<svg width="310" height="288" viewBox="0 0 310 288" fill="none" xmlns="http://www.w3.org/2000/svg">
<path d="M293.648 42.0365H206.364C204.894 42.0388 203.439 41.7715 202.081 41.2502C200.723 40.7288 199.489 39.9634 198.45 38.9981C197.411 38.0327 196.587 36.8863 196.026 35.6246C195.464 34.3629 195.177 33.0107 195.179 31.6454C195.177 30.2802 195.464 28.928 196.026 27.6663C196.587 26.4046 197.411 25.2581 198.45 24.2928C199.489 23.3274 200.723 22.5621 202.081 22.0407C203.439 21.5194 204.894 21.2521 206.364 21.2544H293.648C295.118 21.2521 296.574 21.5194 297.932 22.0407C299.29 22.5621 300.524 23.3274 301.563 24.2928C302.602 25.2581 303.426 26.4046 303.987 27.6663C304.548 28.928 304.836 30.2802 304.833 31.6454C304.825 34.3988 303.643 37.0371 301.548 38.9841C299.452 40.931 296.612 42.0284 293.648 42.0365Z" fill="#F99826"/>
<path d="M261.171 258.919C267.482 258.362 285.379 257.546 285.379 257.546L284.82 246.672L262.21 244.631L261.171 258.919Z" fill="#DA7656"/>
<path d="M285.939 259.847C289.214 260.366 293.009 260.849 295.766 261.22C297.843 261.48 299.68 260.44 299.88 258.845L301.997 242.292L304.154 225.481C304.197 224.878 304.035 224.278 303.69 223.766C303.346 223.253 302.838 222.854 302.237 222.624C300.32 221.733 297.882 222.215 296.967 223.7C293.771 229.007 286.7 240.404 282.106 244.297C281.68 244.645 281.391 245.114 281.282 245.631C281.174 246.148 281.253 246.684 281.508 247.155C282.866 249.826 283.944 252.35 282.786 256.173C282.307 257.806 283.741 259.513 285.939 259.847Z" fill="#1C90D1"/>
<path d="M222.942 25.7078H213.754V37.5839H222.942V25.7078Z" fill="white"/>
<path d="M221.34 27.1919V36.0959H215.347V27.1919H221.34ZM224.496 24.2227H212.157V39.0307H224.5V24.2227H224.496Z" fill="white"/>
<path d="M206.563 37.583C204.886 37.5969 203.266 37.0116 202.039 35.9481C200.813 34.8846 200.073 33.424 199.972 31.8681C199.943 31.0706 200.087 30.2758 200.394 29.5309C200.702 28.786 201.168 28.1061 201.764 27.5316C202.36 26.957 203.074 26.4996 203.864 26.1863C204.654 25.873 205.504 25.7103 206.363 25.7078H208.56V37.583H206.563Z" fill="white"/>
<path d="M206.963 27.1919V36.0959H206.563C205.295 36.1131 204.068 35.6753 203.138 34.8736C202.207 34.0718 201.646 32.9679 201.569 31.7912C201.548 31.1903 201.658 30.5915 201.891 30.0308C202.125 29.47 202.477 28.9586 202.928 28.5272C203.371 28.0944 203.904 27.7495 204.494 27.5134C205.084 27.2772 205.72 27.1548 206.363 27.1535H206.962L206.963 27.1919ZM210.118 24.2216H206.324C205.251 24.2224 204.19 24.4234 203.202 24.8129C202.215 25.2024 201.322 25.7723 200.577 26.4888C199.832 27.2053 199.249 28.0536 198.864 28.9835C198.478 29.9134 198.298 30.9058 198.334 31.9016C198.45 33.8433 199.365 35.6692 200.889 37.0022C202.413 38.3352 204.43 39.0733 206.523 39.0642H210.078L210.118 24.2188V24.2216Z" fill="white"/>
<path d="M237.323 25.7078H228.135V37.5839H237.323V25.7078Z" fill="white"/>
<path d="M235.725 27.1919V36.0959H229.732V27.1919H235.725ZM238.881 24.2227H226.538V39.0307H238.881V24.2227Z" fill="white"/>
<path d="M251.703 25.7078H242.516V37.5839H251.703V25.7078Z" fill="white"/>
<path d="M250.106 27.1919V36.0959H244.113V27.1919H250.106ZM253.262 24.2227H240.919V39.0307H253.262V24.2227Z" fill="white"/>
<path d="M266.084 25.7078H256.897V37.5839H266.084V25.7078Z" fill="white"/>
<path d="M264.487 27.1919V36.0959H258.493V27.1919H264.487ZM267.643 24.2227H255.299V39.0307H267.643V24.2227Z" fill="white"/>
<path d="M293.648 78.7777H206.364C204.894 78.78 203.439 78.5127 202.081 77.9913C200.723 77.47 199.489 76.7046 198.45 75.7393C197.411 74.7739 196.587 73.6275 196.026 72.3658C195.464 71.1041 195.177 69.7519 195.179 68.3866C195.177 67.0214 195.464 65.6691 196.026 64.4073C196.587 63.1455 197.41 61.9991 198.45 61.0337C199.489 60.0682 200.723 59.3028 202.081 58.7813C203.439 58.2598 204.894 57.9925 206.364 57.9946H293.648C295.118 57.9925 296.574 58.2598 297.932 58.7813C299.29 59.3028 300.524 60.0682 301.563 61.0337C302.602 61.9991 303.426 63.1455 303.987 64.4073C304.548 65.6691 304.836 67.0214 304.833 68.3866C304.825 71.14 303.643 73.7783 301.548 75.7253C299.452 77.6722 296.612 78.7696 293.648 78.7777Z" fill="#F99826"/>
<path d="M222.942 62.448H213.754V74.3242H222.942V62.448Z" fill="white"/>
<path d="M221.34 63.936V72.8428H215.347V63.936H221.34ZM224.496 60.9667H212.157V75.7718H224.5V60.96L224.496 60.9667Z" fill="white"/>
<path d="M206.563 74.3242C204.886 74.3381 203.266 73.7528 202.039 72.6893C200.813 71.6258 200.073 70.1652 199.972 68.6093C199.943 67.8117 200.087 67.0169 200.394 66.2719C200.702 65.527 201.168 64.847 201.764 64.2724C202.36 63.6978 203.074 63.2403 203.864 62.9269C204.654 62.6135 205.504 62.4506 206.363 62.448H208.56V74.3242H206.563Z" fill="white"/>
<path d="M206.963 63.9361V72.843H206.563C205.295 72.8599 204.068 72.4219 203.137 71.62C202.207 70.8182 201.646 69.7141 201.569 68.5374C201.548 67.9364 201.658 67.3377 201.891 66.777C202.125 66.2162 202.477 65.7048 202.928 65.2734C203.371 64.8407 203.904 64.496 204.494 64.26C205.084 64.024 205.72 63.9018 206.363 63.9006H206.962L206.963 63.9361ZM210.118 60.9687H206.324C205.251 60.9694 204.19 61.1705 203.202 61.56C202.215 61.9495 201.322 62.5194 200.577 63.2359C199.832 63.9523 199.249 64.8007 198.864 65.7306C198.478 66.6605 198.298 67.6529 198.334 68.6487C198.45 70.5903 199.365 72.4163 200.889 73.7493C202.413 75.0823 204.43 75.8204 206.523 75.8113H210.078L210.118 60.9668V60.9687Z" fill="white"/>
<path d="M237.323 62.448H228.135V74.3242H237.323V62.448Z" fill="white"/>
<path d="M235.725 63.936V72.8428H229.732V63.936H235.725ZM238.881 60.9667H226.538V75.7718H238.881V60.96V60.9667Z" fill="white"/>
<path d="M251.703 62.448H242.516V74.3242H251.703V62.448Z" fill="white"/>
<path d="M250.106 63.936V72.8428H244.113V63.936H250.106ZM253.262 60.9667H240.919V75.7718H253.262V60.96V60.9667Z" fill="white"/>
<path d="M266.084 62.448H256.897V74.3242H266.084V62.448Z" fill="white"/>
<path d="M264.487 63.936V72.8428H258.493V63.936H264.487ZM267.643 60.9667H255.299V75.7718H267.643V60.96V60.9667Z" fill="white"/>
<path d="M280.465 62.448H271.278V74.3242H280.465V62.448Z" fill="white"/>
<path d="M278.868 63.936V72.8428H272.874V63.936H278.868ZM282.024 60.9667H269.68V75.7718H282.024V60.96V60.9667Z" fill="white"/>
<path d="M145.325 225.481C165.578 230.046 247.749 237.769 263.887 238.507C264.187 238.521 264.48 238.592 264.749 238.715C265.018 238.838 265.257 239.011 265.451 239.223C265.646 239.435 265.792 239.682 265.88 239.948C265.968 240.214 265.997 240.494 265.964 240.771C265.326 247.08 267.204 254.948 268.322 258.956C268.41 259.261 268.421 259.58 268.353 259.889C268.286 260.199 268.142 260.489 267.933 260.737C267.723 260.986 267.455 261.186 267.148 261.321C266.841 261.456 266.504 261.523 266.165 261.516C253.701 261.369 205.525 260.923 197.217 261.554C189.107 262.185 126.83 264.969 107.815 265.822C107.374 265.844 106.937 265.742 106.56 265.53C106.182 265.318 105.881 265.006 105.696 264.634C105.512 264.262 105.451 263.847 105.522 263.443C105.594 263.039 105.794 262.664 106.097 262.366L143.168 226.08C143.435 225.807 143.777 225.607 144.157 225.502C144.537 225.396 144.941 225.389 145.325 225.481Z" fill="#FFB27A"/>
<path d="M143.567 251.163C154.952 252.832 266.564 251.163 266.564 251.163" stroke="#F99826" stroke-width="1.546" stroke-linecap="round" stroke-linejoin="round" stroke-dasharray="6.96 6.96"/>
<path d="M202.09 240.363C205.286 245.451 213.675 260.144 213.675 260.144L224.061 255.056L216.471 235.164L202.09 240.363Z" fill="#DA7656"/>
<path d="M209.64 259.662C209.6 262.741 209.64 266.304 209.68 268.902C209.72 270.832 211.118 272.39 212.836 272.316L230.771 271.722L248.988 271.129C249.636 271.078 250.251 270.839 250.745 270.446C251.239 270.053 251.589 269.526 251.744 268.939C252.423 267.047 251.504 264.857 249.787 264.3C243.634 262.188 230.413 257.434 225.579 253.836C225.14 253.496 224.592 253.301 224.021 253.281C223.45 253.26 222.888 253.417 222.423 253.725C219.826 255.395 217.27 256.768 212.996 256.286C211.238 256.024 209.68 257.583 209.64 259.662Z" fill="#1C90D1"/>
<path d="M73.3811 253.389C80.5711 260.44 98.548 274.172 129.306 259.698C151.677 251.163 180.838 198.092 180.838 198.092C180.838 198.092 184.433 229.266 203.608 247.08C211.997 246.153 220.425 237.576 226.897 234.684C227.839 234.259 228.588 233.537 229.012 232.647C229.437 231.758 229.508 230.757 229.214 229.823C224.34 214.905 209.241 179.091 205.605 171.371C201.611 162.836 192.023 144.28 171.251 161.723C150.479 179.165 117.323 213.308 113.728 220.731C110.133 228.154 73.3811 255.245 73.3811 255.245" fill="#FFB27A"/>
<path d="M125.432 263.595C125.432 263.595 141.051 259.328 161.024 229.118" stroke="#F99826" stroke-width="1.546" stroke-linecap="round" stroke-linejoin="round"/>
<path d="M191.944 231.901C196.218 237.988 201.411 246.895 203.807 247.637C206.204 248.379 225.579 235.349 225.579 235.349" stroke="#F99826" stroke-width="1.546" stroke-linecap="round" stroke-linejoin="round"/>
<path d="M185.232 182.134C182.594 187.038 181.161 192.425 181.038 197.907" stroke="#F99826" stroke-width="1.546" stroke-linecap="round" stroke-linejoin="round"/>
<path d="M91.7962 241.105C104.34 250.609 128.109 245.224 181.237 168.774C185.232 162.836 195.219 172.115 197.416 187.886C200.771 211.973 215.19 241.884 215.19 241.884" stroke="#F99826" stroke-width="1.546" stroke-linecap="round" stroke-linejoin="round" stroke-dasharray="6.96 6.96"/>
<path d="M188.228 107.873C187.614 107.727 186.962 107.813 186.415 108.112C185.869 108.411 185.472 108.899 185.312 109.469L172.489 154.82L137.656 184.473C137.192 184.876 136.916 185.431 136.886 186.02C136.856 186.609 137.075 187.186 137.495 187.627C137.719 187.852 137.991 188.031 138.294 188.152C138.596 188.273 138.923 188.335 139.252 188.332C139.859 188.331 140.443 188.119 140.89 187.739L176.243 157.641C176.593 157.355 176.844 156.981 176.967 156.564L189.949 110.58C190.106 110.009 190.013 109.404 189.69 108.897C189.367 108.39 188.842 108.022 188.228 107.873Z" fill="#A4D2FC"/>
<path d="M44.6193 257.62C44.7392 260.366 42.222 266.49 40.9438 268.382C38.9866 271.314 31.7161 272.094 19.7718 272.02C11.223 272.5 4.712 272.5 5.19146 271.314C5.67093 270.129 25.9615 264.709 27.8018 264.152C29.6422 263.595 27.8411 255.505 27.8411 255.505C27.8411 255.505 40.9438 253.019 44.6193 257.62Z" fill="#DA7656"/>
<path d="M134.1 178.683C134.1 178.534 137.416 169.665 136.896 163.578C136.777 162.317 137.975 162.279 139.013 163.95C140.212 165.842 141.287 169.702 140.253 172.226" fill="#DA7656"/>
<path d="M126.79 185.845C128.907 178.906 140.612 165.805 151.397 165.805C162.182 165.805 158.827 166.477 155.432 169.368C152.036 172.259 141.131 180.947 139.054 183.619C137.155 185.78 135.012 187.746 132.662 189.483L126.79 185.845Z" fill="#DA7656"/>
<path d="M42.502 263.781C37.7423 262.312 32.7378 261.645 27.7254 261.814C26.9837 261.831 26.261 261.595 25.6942 261.151C25.1274 260.706 24.7559 260.084 24.6502 259.402C22.413 245.558 12.5457 179.128 25.049 162.874C39.0269 144.688 53.01 148.032 64.9967 160.276C76.7405 172.3 89.28 197.869 123.679 181.684C124.255 181.42 124.908 181.335 125.541 181.442C126.174 181.549 126.752 181.842 127.192 182.278C130.23 185.141 133.751 187.523 137.617 189.329C138.19 189.576 138.638 190.019 138.869 190.565C139.1 191.11 139.096 191.718 138.857 192.261C134.743 201.799 124.117 210.706 124.117 210.706C124.117 210.706 92.7179 242.214 90.6368 262.217C90.5911 262.635 90.4508 263.038 90.2251 263.401C89.9994 263.765 89.6934 264.079 89.3273 264.325C88.9612 264.57 88.5433 264.741 88.1011 264.825C87.6589 264.91 87.2024 264.906 86.7618 264.815C68.0285 260.886 44.6193 232.608 44.6193 232.608C44.6193 232.608 48.1327 249.901 46.5765 261.481C46.5244 261.906 46.3684 262.314 46.1204 262.674C45.8725 263.034 45.5391 263.337 45.1459 263.559C44.7527 263.781 44.31 263.916 43.8517 263.955C43.3935 263.993 42.9318 263.934 42.502 263.781Z" fill="#3E9FF8"/>
<path d="M66.03 214.348C65.7837 214.761 65.3884 215.081 64.9134 215.251C64.4385 215.42 63.9143 215.429 63.4332 215.275C62.0852 214.656 60.5291 214.554 59.101 214.992C57.6728 215.429 56.4872 216.371 55.8 217.614C54.56 219.877 55.0012 222.66 58.5569 224.071C59.0018 224.258 59.3486 224.601 59.5209 225.026C59.6931 225.45 59.6768 225.921 59.4756 226.334C59.2293 226.748 58.834 227.068 58.3591 227.238C57.8842 227.407 57.36 227.416 56.8788 227.263C51.2058 224.959 50.3275 219.914 52.4045 216.127C53.5503 214.02 55.5321 212.409 57.9319 211.634C60.3316 210.858 62.9617 210.979 65.2674 211.971C65.486 212.08 65.6793 212.228 65.8361 212.407C65.9929 212.585 66.1102 212.791 66.181 213.012C66.2519 213.233 66.2751 213.465 66.2491 213.694C66.2232 213.923 66.1487 214.145 66.03 214.348Z" fill="#A4D2FC"/>
<path d="M56.1234 203.289C55.7863 203.441 55.4105 203.504 55.0372 203.471C54.6638 203.439 54.3075 203.311 54.0072 203.102L43.2605 195.681C42.8313 195.39 42.5439 194.953 42.4614 194.466C42.379 193.979 42.5082 193.481 42.8208 193.082C43.1334 192.684 43.6036 192.417 44.1281 192.34C44.6526 192.263 45.1884 192.383 45.6175 192.674L56.3642 200.097C56.7869 200.391 57.0693 200.827 57.1514 201.312C57.2336 201.797 57.1091 202.293 56.8044 202.694C56.629 202.938 56.3961 203.141 56.1234 203.289Z" fill="#A4D2FC"/>
<path d="M78.0549 192.081C77.9561 191.747 77.9559 191.396 78.0543 191.063C78.1527 190.729 78.3461 190.427 78.614 190.187L88.4812 181.726C88.8679 181.386 89.384 181.204 89.9158 181.218C90.4477 181.231 90.9518 181.441 91.3172 181.8C91.6827 182.16 91.8796 182.639 91.8645 183.133C91.8495 183.627 91.6238 184.096 91.2371 184.435L81.3699 192.897C80.9779 193.226 80.4641 193.403 79.9356 193.389C79.4071 193.375 78.9048 193.172 78.5334 192.823C78.4014 192.738 78.2905 192.628 78.208 192.5C78.1255 192.372 78.0733 192.229 78.0549 192.081Z" fill="#A4D2FC"/>
<path d="M68.2279 179.685C68.0436 179.231 68.0526 178.729 68.253 178.28C68.4535 177.832 68.8303 177.472 69.3067 177.273C70.0049 177.03 70.6444 176.662 71.188 176.188C71.7316 175.715 72.1685 175.145 72.4732 174.513C72.778 173.882 72.9446 173.2 72.9633 172.508C72.9821 171.816 72.8526 171.127 72.5824 170.482C71.6627 168.143 69.1868 166.51 65.6311 167.958C65.409 168.049 65.1692 168.097 64.9264 168.099C64.6836 168.101 64.4428 168.058 64.2187 167.971C63.9946 167.884 63.7918 167.756 63.6227 167.594C63.4536 167.432 63.3216 167.24 63.2348 167.029C63.0505 166.575 63.0594 166.073 63.2596 165.625C63.4599 165.177 63.8364 164.817 64.3126 164.618C69.9856 162.279 74.5798 165.137 76.137 169.071C77.0412 171.279 76.9837 173.727 75.9768 175.896C74.9699 178.064 73.0928 179.783 70.7441 180.687C70.5083 180.777 70.2556 180.823 70.0007 180.821C69.7458 180.819 69.4939 180.77 69.2596 180.677C69.0253 180.583 68.8134 180.448 68.6363 180.277C68.4591 180.107 68.3203 179.906 68.2279 179.685Z" fill="#A4D2FC"/>
<path d="M69.906 239.917C69.8075 239.584 69.8074 239.233 69.9057 238.9C70.0041 238.567 70.1974 238.265 70.4651 238.025L80.3313 229.564C80.7197 229.233 81.2326 229.057 81.7591 229.075C82.2857 229.092 82.7837 229.302 83.1457 229.657C83.5076 230.013 83.7045 230.487 83.6938 230.976C83.683 231.465 83.4656 231.931 83.0883 232.273L73.1807 240.768C72.7889 241.098 72.2753 241.274 71.747 241.26C71.2186 241.246 70.7164 241.044 70.3452 240.694C70.1229 240.479 69.9706 240.21 69.906 239.917Z" fill="#A4D2FC"/>
<path d="M15.6974 232.866C15.9768 232.637 16.321 232.488 16.6891 232.435C17.0572 232.383 17.4339 232.429 17.7744 232.57L30.1186 237.466C30.593 237.662 30.965 238.024 31.1544 238.474C31.3437 238.923 31.3351 239.424 31.1304 239.867C30.9258 240.311 30.5415 240.662 30.0605 240.844C29.5796 241.027 29.0407 241.026 28.5603 240.843L16.2171 235.947C15.9772 235.853 15.7597 235.716 15.5773 235.544C15.3949 235.371 15.2512 235.167 15.1545 234.942C15.0579 234.718 15.0103 234.478 15.0144 234.236C15.0185 233.994 15.0744 233.756 15.1786 233.534C15.2862 233.274 15.465 233.043 15.6974 232.866Z" fill="#A4D2FC"/>
<path d="M45.0585 263.002C44.7183 263.123 44.3487 263.157 43.9896 263.098C43.6305 263.039 43.2956 262.89 43.0208 262.667L32.9974 254.429C32.6 254.099 32.3599 253.636 32.3299 253.142C32.2999 252.648 32.4824 252.163 32.8373 251.794C33.1922 251.424 33.6904 251.201 34.2223 251.173C34.7543 251.145 35.2764 251.315 35.6738 251.645L45.6971 259.883C45.897 260.045 46.06 260.242 46.1765 260.463C46.293 260.684 46.3607 260.924 46.3755 261.17C46.3904 261.416 46.3521 261.661 46.2629 261.893C46.1737 262.125 46.0354 262.337 45.8562 262.519C45.613 262.71 45.345 262.872 45.0585 263.002Z" fill="#A4D2FC"/>
<path d="M61.2767 252.09C61.7928 252.086 62.2927 252.258 62.6825 252.572C63.0723 252.886 63.3253 253.322 63.394 253.797C63.4142 254.489 63.5811 255.171 63.8853 255.803C64.1895 256.436 64.6249 257.006 65.1666 257.482C65.7083 257.957 66.3457 258.329 67.0423 258.576C67.7389 258.822 68.481 258.939 69.2261 258.919C71.9427 258.845 74.3793 257.212 74.06 253.612C74.041 253.389 74.071 253.165 74.148 252.953C74.225 252.741 74.3475 252.546 74.5081 252.379C74.6687 252.213 74.864 252.078 75.0822 251.984C75.3004 251.89 75.5369 251.838 75.7774 251.831C76.2936 251.827 76.7936 251.998 77.1835 252.312C77.5733 252.627 77.8263 253.062 77.8947 253.538C78.4114 259.29 74.0197 262.37 69.5061 262.482C66.9732 262.557 64.5088 261.711 62.637 260.123C60.7652 258.536 59.6336 256.333 59.4828 253.983C59.4584 253.748 59.4862 253.51 59.5645 253.285C59.6428 253.061 59.77 252.853 59.9381 252.675C60.1063 252.498 60.3118 252.354 60.5421 252.254C60.7723 252.153 61.0223 252.097 61.2767 252.09Z" fill="#A4D2FC"/>
<path d="M25.4448 191.894C25.3331 191.428 25.4097 190.94 25.66 190.523C25.9103 190.105 26.317 189.788 26.8026 189.631C28.2522 189.296 29.5047 188.45 30.2954 187.273C31.086 186.095 31.3528 184.678 31.0393 183.322C30.4399 180.91 28.1635 178.98 24.4879 179.982C24.2571 180.047 24.0143 180.069 23.7744 180.044C23.5345 180.019 23.3026 179.949 23.093 179.837C22.8834 179.726 22.7005 179.576 22.5557 179.397C22.4108 179.217 22.3071 179.012 22.2508 178.794C22.1389 178.328 22.2155 177.839 22.4661 177.422C22.7166 177.005 23.1236 176.687 23.6096 176.531C29.5616 174.899 33.7156 178.275 34.7148 182.357C35.2989 184.653 34.8951 187.071 33.5893 189.095C32.2834 191.119 30.1788 192.59 27.7233 193.194C27.4817 193.252 27.23 193.264 26.9834 193.229C26.7367 193.195 26.5 193.114 26.2874 192.993C26.0749 192.872 25.8907 192.712 25.746 192.523C25.6012 192.335 25.4988 192.121 25.4448 191.894Z" fill="#A4D2FC"/>
<path d="M19.6519 220.805C19.4656 220.506 19.3675 220.167 19.3675 219.821C19.3675 219.476 19.4656 219.137 19.6519 218.838L26.8429 208.335C27.1237 207.917 27.5718 207.619 28.0887 207.508C28.6057 207.397 29.149 207.481 29.5993 207.741C30.0496 208.002 30.3699 208.419 30.4897 208.899C30.6096 209.379 30.5192 209.884 30.2384 210.302L23.0433 220.805C22.7558 221.216 22.3081 221.507 21.7943 221.618C21.2804 221.729 20.7404 221.65 20.2874 221.399C20.0377 221.239 19.8222 221.038 19.6519 220.805Z" fill="#A4D2FC"/>
<path d="M108.215 225.481C108.285 225.949 108.175 226.425 107.905 226.826C107.634 227.226 107.221 227.525 106.736 227.671C105.263 227.934 103.958 228.722 103.1 229.865C102.242 231.009 101.899 232.419 102.143 233.794C102.582 236.281 104.74 238.284 108.494 237.431C108.73 237.378 108.975 237.37 109.215 237.407C109.455 237.444 109.684 237.526 109.889 237.647C110.094 237.768 110.271 237.927 110.409 238.113C110.547 238.299 110.643 238.508 110.692 238.73C110.762 239.198 110.652 239.674 110.382 240.075C110.111 240.475 109.697 240.774 109.213 240.919C103.181 242.256 99.2269 238.693 98.4281 234.536C97.9713 232.212 98.5088 229.814 99.9264 227.853C101.344 225.891 103.529 224.521 106.018 224.034C106.515 223.958 107.025 224.067 107.437 224.338C107.848 224.609 108.128 225.019 108.215 225.481Z" fill="#A4D2FC"/>
<path d="M100.625 214.348C100.296 214.509 99.9272 214.587 99.5555 214.574C99.1838 214.561 98.8224 214.457 98.5077 214.273L87.4427 207.264C87.2175 207.128 87.0239 206.952 86.8731 206.746C86.7223 206.539 86.6176 206.307 86.565 206.063C86.5124 205.818 86.513 205.566 86.5668 205.322C86.6206 205.078 86.7265 204.846 86.8783 204.64C87.0301 204.435 87.2246 204.259 87.4505 204.124C87.6764 203.99 87.929 203.898 88.1935 203.856C88.458 203.813 88.7289 203.82 88.9904 203.877C89.2519 203.933 89.4987 204.037 89.7161 204.183L100.781 211.198C101.207 211.488 101.498 211.919 101.594 212.402C101.69 212.885 101.584 213.383 101.298 213.796C101.124 214.027 100.894 214.217 100.625 214.348Z" fill="#A4D2FC"/>
<path d="M133.86 205.403C133.507 205.293 133.196 205.091 132.962 204.821C132.729 204.552 132.583 204.226 132.543 203.882L130.864 191.52C130.807 191.031 130.96 190.54 131.29 190.155C131.619 189.77 132.099 189.521 132.625 189.463C133.151 189.404 133.68 189.54 134.099 189.842C134.517 190.144 134.79 190.587 134.859 191.074L136.537 203.432C136.572 203.677 136.554 203.925 136.484 204.162C136.414 204.399 136.293 204.621 136.13 204.815C135.966 205.009 135.763 205.17 135.531 205.289C135.299 205.409 135.044 205.484 134.781 205.511C134.47 205.512 134.161 205.475 133.86 205.403Z" fill="#A4D2FC"/>
<path d="M114.007 186.068C114.114 186.534 114.035 187.021 113.785 187.437C113.536 187.853 113.132 188.171 112.649 188.332C111.196 188.671 109.943 189.524 109.159 190.711C108.375 191.897 108.122 193.321 108.455 194.678C109.093 197.127 111.33 199.02 115.045 197.942C115.276 197.874 115.519 197.851 115.76 197.875C116.001 197.899 116.234 197.968 116.444 198.08C116.654 198.192 116.838 198.343 116.982 198.523C117.126 198.704 117.228 198.911 117.282 199.13C117.389 199.596 117.311 200.082 117.061 200.499C116.811 200.915 116.408 201.233 115.925 201.394C109.973 203.064 105.817 199.687 104.779 195.604C104.176 193.307 104.561 190.883 105.851 188.846C107.141 186.808 109.236 185.319 111.69 184.693C112.191 184.616 112.705 184.714 113.132 184.967C113.56 185.221 113.872 185.613 114.007 186.068Z" fill="#A4D2FC"/>
<path d="M32.4353 170.555C32.3365 170.222 32.3363 169.871 32.4347 169.537C32.5331 169.204 32.7265 168.902 32.9944 168.662L42.8617 160.201C43.0531 160.033 43.2784 159.901 43.5245 159.814C43.7707 159.727 44.0329 159.685 44.2962 159.692C44.5596 159.699 44.8189 159.754 45.0593 159.854C45.2998 159.954 45.5167 160.097 45.6976 160.275C45.8786 160.453 46.0201 160.662 46.114 160.891C46.2079 161.12 46.2524 161.363 46.2449 161.608C46.2375 161.853 46.1783 162.094 46.0706 162.317C45.963 162.54 45.809 162.742 45.6176 162.91L35.711 171.371C35.3191 171.701 34.8053 171.877 34.2768 171.864C33.7483 171.85 33.2459 171.647 32.8745 171.298C32.6604 171.09 32.5089 170.834 32.4353 170.555Z" fill="#A4D2FC"/>
<path d="M125.432 207.705C100.225 222.994 64.4728 213.383 48.2143 183.619" stroke="#46BCFF" stroke-width="1.546" stroke-linecap="round" stroke-linejoin="round"/>
<path d="M29.4789 194.271C31.3172 205.292 36.6296 216.649 44.6193 232.607" stroke="#46BCFF" stroke-width="1.546" stroke-linecap="round" stroke-linejoin="round"/>
<path d="M66.9318 138.283C66.565 138.432 60.2314 152.229 58.9006 155.457C58.6252 156.117 58.1804 156.722 57.5953 157.233C57.0101 157.745 56.2979 158.15 55.5053 158.423C54.4121 158.829 53.1997 158.978 52.0066 158.854C50.8136 158.729 49.688 158.336 48.7586 157.718C47.9473 157.157 47.3737 156.404 47.1182 155.566C46.8628 154.728 46.9382 153.847 47.334 153.045L55.5053 135.724" fill="#DA7656"/>
<path d="M51.49 110.954C49.5328 116.522 46.22 132.85 62.3152 139.716C79.9718 147.212 85.2852 110.212 84.4864 107.057C83.6876 103.903 71.703 94.996 63.3144 98.3358C54.9258 101.676 51.49 110.954 51.49 110.954Z" fill="#DA7656"/>
<path d="M78.0549 102.752C70.5447 82.5599 39.5457 92.7359 46.6561 111.177C38.9867 116.557 29.8386 120.343 27.2418 122.272C24.645 124.202 29.1999 125.353 30.9969 124.426C32.7154 123.535 46.8565 117.04 48.0945 116.554C48.1348 116.516 48.2143 116.516 48.2546 116.48C49.4946 115.849 66.4702 107.201 76.8563 104.789C77.084 104.736 77.2976 104.64 77.4834 104.506C77.6692 104.373 77.8233 104.205 77.9359 104.014C78.0485 103.823 78.1172 103.612 78.1377 103.394C78.1582 103.177 78.13 102.958 78.0549 102.752Z" fill="#5CBBFF"/>
<path d="M97.9487 85.0867C92.2186 86.9609 87.2426 90.4187 83.6886 94.9958C83.6886 94.9958 77.6168 91.2844 74.5809 97.3334C73.3822 99.7084 71.9035 103.381 72.2631 104.681C66.6314 105.944 56.2051 112.215 56.2051 112.215C59.8 120.157 68.5885 120.343 74.7803 108.838C80.972 114.406 101.544 113.291 108.336 104.199C115.128 95.1072 111.051 81.12 97.9487 85.0867Z" fill="#AE504A"/>
<path d="M59.24 124.5C58.3213 124.5 49.9317 118.079 52.6886 114.368C55.365 110.624 60.079 116.48 60.2785 117.448" fill="#DA7656"/>
<path d="M59.24 124.5C58.3213 124.5 49.9317 118.079 52.6886 114.368C55.365 110.624 60.079 116.48 60.2785 117.448" stroke="#AE504A" stroke-width="1.546" stroke-linecap="round" stroke-linejoin="round"/>
<path d="M76.9123 123.8C77.2862 122.991 77.0307 122.112 76.3415 121.837C75.6524 121.562 74.7906 121.996 74.4166 122.806C74.0427 123.616 74.2983 124.495 74.9875 124.769C75.6766 125.044 76.5384 124.61 76.9123 123.8Z" fill="#1C90D1"/>
<path d="M80.971 123.312C80.971 123.312 81.2107 128.916 81.4101 132.624C81.4897 134.331 77.0557 131.733 77.0557 131.733" fill="#DA7656"/>
<path d="M80.971 123.312C80.971 123.312 81.2107 128.916 81.4101 132.624C81.4897 134.331 77.0557 131.733 77.0557 131.733" stroke="#AE504A" stroke-width="1.933" stroke-linecap="round" stroke-linejoin="round"/>
<path d="M74.3401 116.484C75.7454 116.212 77.1789 116.088 78.6139 116.112" stroke="#AE504A" stroke-width="2.706" stroke-linecap="round" stroke-linejoin="round"/>
<path d="M67.549 131.699C67.549 131.699 68.0657 134.074 69.9453 134.074" stroke="#AE504A" stroke-width="1.933" stroke-linecap="round" stroke-linejoin="round"/>
<path d="M168.694 23.8887C169.309 24.1223 169.812 24.5569 170.106 25.1108C170.401 25.6646 170.467 26.2994 170.292 26.8954C169.613 30.6058 168.933 34.3172 168.135 37.9911C167.815 39.5876 166.497 40.4036 164.54 40.4036H145.924C143.444 40.4036 140.971 40.3671 138.534 40.3671C139.413 35.8388 140.332 31.3489 141.171 26.8206C141.688 24.1489 142.609 23.3694 145.565 23.3694H164.499C165.922 23.2562 167.353 23.4334 168.694 23.8887Z" fill="#FFB27A"/>
<path d="M166.817 21.4398C166.817 21.9966 166.856 23.1841 166.817 23.4807C166.577 23.4807 166.178 23.4068 164.544 23.4068H145.605C142.649 23.4068 141.69 24.1863 141.211 26.858C140.332 31.3854 139.455 35.8763 138.574 40.4036C138.125 40.4142 137.679 40.3381 137.264 40.18C136.848 40.0219 136.473 39.7854 136.161 39.4853C135.849 39.1853 135.608 38.8283 135.453 38.4371C135.297 38.0458 135.231 37.6289 135.258 37.2126C135.219 31.0891 135.219 24.9655 135.258 18.842C135.233 18.4152 135.307 17.9884 135.474 17.5901C135.641 17.1918 135.897 16.8313 136.226 16.5326C136.556 16.234 136.95 16.004 137.382 15.8583C137.815 15.7125 138.276 15.6543 138.734 15.6875C141.171 15.6875 143.607 15.65 146.044 15.7239C146.609 15.7195 147.153 15.9191 147.562 16.2807C149.24 18.434 151.477 18.9899 154.279 18.8046C157.315 18.5819 160.391 18.7307 163.427 18.7671C164.255 18.7146 165.073 18.9645 165.706 19.4637C166.34 19.9628 166.738 20.6718 166.817 21.4398Z" fill="#F99826"/>
<path d="M143.013 56.9184C143.002 56.8056 143.016 56.6919 143.054 56.5843C143.048 56.341 143.097 56.0994 143.196 55.8741C143.295 55.6489 143.443 55.4449 143.63 55.2746C143.817 55.1043 144.039 54.9713 144.284 54.8839C144.528 54.7964 144.789 54.7563 145.051 54.7661H161.109C161.22 54.7631 161.331 54.7814 161.434 54.8197C161.537 54.858 161.63 54.9155 161.708 54.9888C164.025 57.1411 166.343 59.2934 168.699 61.4467C168.792 61.5266 168.865 61.6244 168.914 61.7334C168.962 61.8423 168.984 61.9597 168.979 62.0774V83.305C169.008 83.5699 168.973 83.8374 168.876 84.0882C168.78 84.3389 168.625 84.5667 168.422 84.755C168.22 84.9432 167.975 85.0873 167.705 85.1767C167.435 85.2661 167.147 85.2987 166.862 85.272H161.509C161.269 85.272 161.19 85.3095 161.149 85.5687C161.159 85.8261 161.111 86.0827 161.007 86.3216C160.903 86.5605 160.746 86.7763 160.546 86.9549C160.346 87.1336 160.108 87.2711 159.847 87.3584C159.586 87.4458 159.309 87.481 159.032 87.4618H137.375C136.917 87.4908 136.461 87.3692 136.089 87.1183C135.717 86.8675 135.451 86.5032 135.339 86.089C135.304 85.9175 135.29 85.743 135.298 85.5687V58.8854C135.274 58.6182 135.314 58.3493 135.414 58.0979C135.515 57.8465 135.674 57.6188 135.88 57.4309C136.086 57.2431 136.334 57.0998 136.606 57.0112C136.879 56.9226 137.169 56.8909 137.456 56.9184H143.013ZM160.31 56.2138H145.287C144.687 56.2138 144.608 56.2877 144.608 56.8445V83.232C144.608 83.7888 144.647 83.8627 145.287 83.8627H166.738C167.217 83.8627 167.337 83.7514 167.337 83.2694V63.1162C167.337 62.7821 167.217 62.7456 166.898 62.7456H162.344C162.064 62.7637 161.784 62.7265 161.52 62.6364C161.257 62.5463 161.018 62.4054 160.818 62.2229C160.618 62.0404 160.461 61.8206 160.36 61.5779C160.258 61.3352 160.212 61.0752 160.227 60.815V56.6592C160.291 56.5188 160.318 56.3659 160.305 56.2138H160.31ZM143.013 58.4035H137.381C136.822 58.4035 136.742 58.4774 136.742 59.0342V85.4573C136.742 85.9373 136.862 86.0515 137.341 86.0515H158.835C159.394 86.0515 159.558 85.8662 159.394 85.3459H145.166C144.875 85.3723 144.583 85.3386 144.308 85.2473C144.033 85.1559 143.784 85.0092 143.578 84.8176C143.371 84.6261 143.213 84.3944 143.115 84.1393C143.016 83.8843 142.98 83.6121 143.008 83.3424V78.7402C143.008 78.481 142.929 78.4061 142.649 78.4061C142.132 78.4435 141.57 78.4061 141.051 78.4061H140.252V76.9594H142.969V74.9549C142.969 74.881 142.809 74.807 142.729 74.807H140.292V73.3594H142.689C142.745 73.3557 142.799 73.3404 142.847 73.3146C142.896 73.2889 142.937 73.2533 142.969 73.2106C143.008 72.5386 142.969 71.8752 142.969 71.1696H140.212V69.984C140.212 69.7613 140.292 69.6874 140.531 69.7238H142.01C142.969 69.7238 142.969 69.7238 142.969 68.8339V67.5331H140.212V66.3446C140.212 66.1219 140.292 66.0854 140.531 66.0854H142.929C143.013 63.4502 143.013 60.96 143.013 58.4035ZM166.023 61.2979C164.665 59.999 163.267 58.7002 161.869 57.4013V60.7411C161.869 61.2211 161.988 61.2979 162.468 61.2979H166.023Z" fill="#F99826"/>
<path d="M163.821 71.136V72.361C163.821 72.5837 163.661 72.5463 163.501 72.5463H148.161V71.0957C153.355 71.136 158.588 71.136 163.821 71.136Z" fill="#F99826"/>
<path d="M148.161 76.2172V74.7695H163.461C163.781 74.7695 163.861 74.8435 163.821 75.1401C163.781 75.3987 163.781 75.6611 163.821 75.9196C163.861 76.1798 163.741 76.2537 163.461 76.2537H148.601C148.457 76.2235 148.309 76.2112 148.161 76.2172Z" fill="#F99826"/>
<path d="M148.161 68.9423V67.4956H163.821V68.7945C163.821 68.8319 163.621 68.9423 163.501 68.9423H148.161Z" fill="#F99826"/>
<path d="M163.821 63.8958V65.2686H148.202V63.8958H163.821Z" fill="#F99826"/>
<path d="M142.768 171.112C145.685 168.626 155.192 167.92 157.269 166.956L142.768 171.112Z" fill="#DA7656"/>
<path d="M142.768 171.112C145.685 168.626 155.192 167.92 157.269 166.956" stroke="#AE504A" stroke-width="1.546" stroke-linecap="round" stroke-linejoin="round"/>
<path d="M144.367 173.969C146.364 172.374 155.672 168.292 155.672 168.292L144.367 173.969Z" fill="#DA7656"/>
<path d="M144.367 173.969C146.364 172.374 155.672 168.292 155.672 168.292" stroke="#AE504A" stroke-width="1.546" stroke-linecap="round" stroke-linejoin="round"/>
</svg>
