<svg width="307" height="317" viewBox="0 0 307 317" fill="none" xmlns="http://www.w3.org/2000/svg">
<path fill-rule="evenodd" clip-rule="evenodd" d="M119.178 58.234C114.825 58.868 108.909 57.3738 105.656 52.174C104.085 49.7911 102.983 47.1111 102.413 44.287C101.843 41.463 101.815 38.5503 102.332 35.7153C103.44 30.3697 106.353 28.958 107.945 28.1253C108.977 27.6231 110.123 27.4256 111.256 27.5547C111.268 24.8206 111.755 22.1111 112.694 19.5557C114.184 15.9451 117.786 12.1105 122.594 9.79847C127.401 7.48649 132.447 5.75144 136.018 5.4038C139.603 5.15715 143.204 5.38476 146.734 6.08112C150.148 6.66968 153.595 9.74881 155.317 12.1422C157.038 14.5355 158.153 13.1988 160.057 15.44C162.264 17.7463 163.737 20.6958 164.28 23.8933C165.313 28.5427 163.866 30.3496 163.866 30.3496C163.866 30.3496 123.534 57.6052 119.179 58.235L119.178 58.234Z" fill="black"/>
<path fill-rule="evenodd" clip-rule="evenodd" d="M149.586 84.5767C143.465 85.3118 137.463 86.8775 131.736 89.2334C125.995 91.8402 120.074 97.4458 115.376 103.301C110.679 109.156 105.555 118.86 101.558 126.04C97.5603 133.22 94.222 145.869 96.1999 150.618C97.3133 153.283 99.0437 155.623 101.238 157.431C103.432 159.238 106.023 160.459 108.781 160.983C115.376 162.479 120.193 150.78 124.702 144.97C129.211 139.161 140.569 131.007 146.95 127.682C153.332 124.358 168.447 117.913 176.576 118.595C184.705 119.277 199.296 125.569 204.007 129.824C208.717 134.079 215.88 140.808 219.391 137.601C222.903 134.394 223.124 124.638 221.261 118.043C219.399 111.449 212.972 102.014 207.954 97.7089C202.936 93.4041 195.476 88.1524 187.579 85.273C179.682 82.3936 175.287 81.2143 170.935 81.3475L163.462 81.5768C163.462 81.5768 153.903 84.0621 149.591 84.5809L149.586 84.5767Z" fill="#89C6FF"/>
<path fill-rule="evenodd" clip-rule="evenodd" d="M133.056 143.17C132.546 132.757 131.754 116.602 131.754 116.602C131.754 116.602 125.12 133.16 121.762 140.377C118.403 147.594 133.566 153.585 133.056 143.174V143.17Z" fill="#67A3C4"/>
<path fill-rule="evenodd" clip-rule="evenodd" d="M190.357 126.272C189.687 117.171 184.172 104.065 184.172 104.065L184.651 121.034C184.651 121.034 191.027 135.371 190.357 126.272Z" fill="#67A3C4"/>
<path fill-rule="evenodd" clip-rule="evenodd" d="M144.064 129.642C135.457 134.331 131.806 136.223 127.083 143.119C122.36 150.015 119.135 157.681 122.973 161.114C126.812 164.547 150.265 169.495 157.274 167.687C164.283 165.879 170.987 162.199 178.344 153.538C185.7 144.876 197.394 133.375 198.339 129.984C199.284 126.593 196.92 124.181 191.181 122.701C185.443 121.222 169.545 118.813 164.282 120.602C157.303 123.005 150.539 126.03 144.064 129.642Z" fill="#67A3C4"/>
<path fill-rule="evenodd" clip-rule="evenodd" d="M119.045 57.9952C120.936 62.2007 126.326 70.9161 129.509 74.2805C132.692 77.6449 136.653 80.9037 140.08 81.8494C142.066 82.5267 144.126 82.9438 146.212 83.091L149.145 83.1142L148.977 84.6527C148.977 84.6527 151.79 88.5286 154.126 88.6575C156.462 88.7864 158.208 88.7093 159.908 87.5237C161.608 86.3381 163.732 81.5641 163.732 81.5641C163.732 81.5641 163.55 80.5275 163.173 78.3941L162.351 73.7332C163.609 72.2867 164.631 70.6378 165.377 68.8514C166.234 65.4626 166.601 61.9612 166.466 58.4612C166.474 55.0929 166.004 51.7417 165.072 48.5147L163.439 42.3132C163.439 42.3132 166.072 40.0572 166.672 37.7611C167.273 35.4649 166.974 31.7951 164.835 29.797C162.697 27.7988 158.778 30.5451 158.778 30.5451C158.778 30.5451 157.248 28.1929 156.397 26.9207L154.372 23.887C152.63 26.5717 150.67 29.0978 148.514 31.438C145.917 33.974 141.154 38.4056 136.384 40.2315C132.839 41.6066 129.148 42.5412 125.39 43.0159C123.238 43.2454 121.066 43.1628 118.937 42.7707C118.937 42.7707 119.367 44.3029 117.978 46.9974C116.589 49.6919 115.747 51.316 115.747 51.316C115.747 51.316 117.556 54.6762 119.047 57.9931L119.045 57.9952Z" fill="#FCBEB7"/>
<path fill-rule="evenodd" clip-rule="evenodd" d="M125.051 123.002C124.227 121.426 123.189 120.87 125.222 117.785C127.256 114.699 128.444 111.809 131.231 109.823C134.017 107.836 137.023 105.751 140.977 105.853C143.659 105.822 146.333 106.175 148.923 106.9C150.01 107.179 150.998 107.771 151.773 108.607C152.366 106.831 153.255 105.175 154.398 103.715C155.833 101.741 157.73 100.177 159.909 99.1713C162.587 97.907 165.458 97.1405 168.392 96.9069C170.975 96.6718 173.567 97.2328 175.842 98.5194C178.2 99.9163 178.063 100.026 178.178 102.248C178.573 105.575 179.155 108.876 179.921 112.132L183.821 129.294C184.159 130.787 184.48 134.662 183.599 134.731C182.719 134.801 180.752 133.639 178.873 133.413C176.994 133.187 173.13 132.939 170.948 134.334C168.766 135.729 166.915 136.068 165.597 137.761C164.278 139.454 163.814 141.075 162.612 141.594C161.511 142.07 159.64 141.667 157.216 140.633C154.792 139.598 150.485 139.709 147.506 140.633C144.527 141.556 142.812 142.318 140.975 144.014L137.049 147.658C137.049 147.658 134.586 140.261 132.919 138.316C131.251 136.37 129.534 130.662 128.555 129.29C127.285 127.254 126.115 125.155 125.049 122.998L125.051 123.002Z" fill="#62ADD7"/>
<path d="M152.29 111.741C153.757 114.846 155.202 121.47 155.85 123.869C157.177 128.776 158.226 132.651 159.409 137.025" stroke="#256990" stroke-width="1.989" stroke-linecap="round" stroke-linejoin="round"/>
<path fill-rule="evenodd" clip-rule="evenodd" d="M101.558 159.499C98.394 157.249 97.8838 154.368 99.0594 150.851C100.235 147.333 105.067 143.479 109.718 141.524C114.369 139.568 118.801 137.705 121.976 136.371C125.151 135.038 128.071 134.338 130.495 133.469L135.313 131.737C135.313 131.737 135.222 129.029 135.383 127.183C135.544 125.337 135.56 124.265 136.71 124.039C137.86 123.813 138.853 126.345 138.853 126.345C139.643 125.536 140.352 124.647 140.97 123.691C141.81 122.318 143.494 119.968 145.11 119.968C146.727 119.968 148.184 120.192 148.544 121.224C148.739 122.423 148.75 123.646 148.577 124.848C148.577 124.848 150.945 128.383 150.872 129.593C150.625 131.122 149.888 132.521 148.779 133.564C147.728 134.515 145.657 137.039 144.657 137.304C143.674 137.446 142.672 137.352 141.729 137.032C141.002 136.965 140.27 137.033 139.566 137.231C137.606 139.385 135.765 141.651 134.05 144.018C132.913 145.92 128.727 150.072 126.482 151.993C124.237 153.914 118.705 158.698 115.369 159.906C112.033 161.115 105.769 162.501 101.551 159.499H101.558Z" fill="#FCBEB7"/>
<path fill-rule="evenodd" clip-rule="evenodd" d="M224.867 136.382C225.212 139.488 225.015 144.868 221.784 147.04C218.553 149.213 213.455 149.556 208.902 146.788C204.349 144.019 201.336 133.023 198.084 130.631L186.319 121.984C186.319 121.984 183.258 122.866 181.738 123.177C180.218 123.487 178.852 122.387 177.523 121.803C176.194 121.219 174.434 119.468 175.068 117.904C175.701 116.34 174.353 116.039 173.014 114.992C171.675 113.945 171.466 112.405 173.568 111.18C174.994 110.339 176.599 109.876 178.239 109.834C179.593 109.665 181.276 111.147 182.869 112.618C184.462 114.09 186.245 115.742 186.245 115.742C189.479 116.04 192.694 116.534 195.873 117.221C200.16 118.086 204.345 119.426 208.355 121.218C212.252 123.017 216.012 125.12 219.601 127.509C221.022 128.531 222.223 129.846 223.13 131.372C224.037 132.898 224.629 134.601 224.87 136.375L224.867 136.382Z" fill="#FCBEB7"/>
<path fill-rule="evenodd" clip-rule="evenodd" d="M35.8716 216.088C35.9573 206.743 41.3306 202.937 49.3634 202.378C57.3962 201.819 70.6298 200.899 81.1027 200.169C91.5757 199.438 112.671 199.063 120.009 199.206C127.348 199.349 199.938 195.517 218.926 194.8C237.915 194.082 248.796 193.668 258.023 193.32C267.249 192.973 271.205 191.287 271.299 195.657C271.393 200.026 268.299 200.885 265.373 201.426C262.447 201.967 258.841 224.582 263.24 224.441C267.638 224.301 272.425 224.511 272.527 228.668C272.629 232.825 267.45 233.423 262.245 233.384C257.039 233.345 236.916 233.461 223.757 233.96C210.551 234.464 173.036 235.694 152.494 236.595C131.952 237.496 107.46 239.59 79.9801 239.775C57.8779 239.923 51.0983 240.814 46.6079 240C42.1174 239.185 36.0237 234.416 35.7838 229.628C35.544 224.841 35.8492 219.01 35.8757 216.094L35.8716 216.088Z" fill="#57ADC8"/>
<path fill-rule="evenodd" clip-rule="evenodd" d="M43.9932 222.719C44.0708 218.879 44.0871 215.92 45.7037 213.827C47.3202 211.734 52.1689 210.657 59.9415 210.769C67.714 210.881 93.3678 207.81 108.071 207.403L196.386 204.942C215.375 204.413 265.172 201.492 265.172 201.492L263.641 224.428C253.23 225.705 242.745 226.221 232.265 225.97C215.371 225.518 183.412 225.907 163.013 226.99C138.303 228.299 96.2172 229.949 83.8174 230.611L51.874 232.302C46.6497 232.579 43.8228 231.281 43.9983 222.714L43.9932 222.719Z" fill="#F7FCFC"/>
<path d="M59.7679 225.376L82.954 225.328C93.628 225.307 147.006 222.87 159.967 221.967C181.853 220.441 195.466 220.009 217.373 219.9C228.497 219.846 243.546 218.881 254.663 218.449M62.3346 217.125C66.7312 214.98 78.2554 216.385 82.9499 216.378C93.6239 216.356 147.002 213.919 159.963 213.016C181.849 211.492 195.462 211.058 217.369 210.951C228.493 210.897 239.628 209.34 250.741 208.907L62.3346 217.125Z" stroke="#AFAFAF" stroke-width="1.989" stroke-linecap="round" stroke-linejoin="round"/>
<path fill-rule="evenodd" clip-rule="evenodd" d="M246.164 247.183C246.053 243.23 244.523 239.463 241.872 236.616C239.172 233.831 234.092 233.658 227.967 233.658C221.917 233.658 208.355 233.776 197.657 233.841C186.958 233.907 160.61 235.836 152.247 236.377C143.883 236.918 89.7948 238.688 74.4405 239.257C59.0862 239.825 42.2929 240.449 38.773 240.578C35.2531 240.707 33.6192 241.518 33.6447 244.466C33.6702 247.414 35.3378 250.264 39.7191 250.135L48.1999 249.883L50.0176 277.582C50.0176 277.582 44.9056 277.846 41.5275 278.28C38.1495 278.713 35.5573 279.804 35.6369 283.018C35.7165 286.231 37.2228 288.355 43.7187 287.878C50.2145 287.402 64.5319 287.693 83.2071 286.659C101.882 285.624 158.093 285.76 176.723 285.084C195.353 284.409 222.055 283.442 229.882 283.16C237.708 282.878 240.678 283.203 243.273 279.322C245.867 275.442 246.052 269.91 246.344 263.801C246.572 258.264 246.512 252.719 246.166 247.189L246.164 247.183Z" fill="#00C5B9"/>
<path fill-rule="evenodd" clip-rule="evenodd" d="M41.3326 250.083L42.047 278.218C42.047 278.218 54.4978 277.776 63.9604 277.597C73.423 277.417 86.2698 276.712 99.6585 276.922C113.047 277.131 146.821 276.754 160.194 276.413C174.194 276.058 191.366 275.02 206.003 275.251C220.217 275.474 228.093 274.836 230.988 274.782C233.883 274.728 237.957 271.627 238.056 266.461C238.155 261.295 238.308 253.307 238.369 250.059C238.406 247.995 237.658 245.998 236.286 244.5C234.914 243.001 233.028 242.122 231.035 242.051C225.974 241.9 216.552 242.368 203.814 243.438C191.075 244.508 162.228 244.936 147.6 245.729C132.973 246.521 100.078 246.68 85.8708 247.249C71.6636 247.819 41.3326 250.083 41.3326 250.083Z" fill="#F7FCFC"/>
<path d="M49.5165 270.032C56.048 269.804 64.0482 270.021 68.7428 270.017C79.4188 270.01 132.799 267.642 145.76 266.756C167.649 265.257 168.496 265.222 190.401 265.141C201.526 265.102 211.301 264.354 222.419 263.935M48.1316 257.917C54.6631 257.688 64.0584 257.2 68.7468 257.197C79.4219 257.187 132.803 254.819 145.763 253.933C167.652 252.435 181.267 252.019 203.173 251.939C214.297 251.9 213.873 251.537 224.989 251.118L48.1316 257.917Z" stroke="#AFAFAF" stroke-width="1.989" stroke-linecap="round" stroke-linejoin="round"/>
<path fill-rule="evenodd" clip-rule="evenodd" d="M122.452 149.457C126.933 150.473 141.026 153.533 143.32 154.186C145.535 154.952 147.867 155.297 150.201 155.204L159.019 154.643C160.16 154.66 161.29 154.41 162.324 153.911C163.359 153.413 164.271 152.679 164.994 151.765C166.579 149.632 171.674 145.434 175.034 141.655C178.394 137.875 181.76 134.088 184.933 130.523C188.106 126.957 193.636 125.316 196.786 125.183C199.937 125.05 193.547 175.608 193.547 175.608L174.628 196.785L132.921 198.942C132.921 198.942 117.968 148.442 122.452 149.457Z" fill="#616161"/>
<path fill-rule="evenodd" clip-rule="evenodd" d="M113.732 148.99C107.495 149.886 104.197 157.001 102.914 163.511C101.631 170.021 99.3809 185.858 101.556 199.067C103.721 211.089 106.69 222.941 110.443 234.537C112.854 242.016 116.428 253.096 118.446 259.349C120.464 265.603 124.039 282.308 124.039 282.308L138.567 280.36C138.567 280.36 139.532 259.682 139.544 249.822C139.556 239.963 139.586 217.441 139.595 209.938C139.604 202.434 140.975 190.859 140.975 185.486C140.975 180.113 139.963 166.816 134.359 158.395C130.225 152.186 123.634 147.569 113.73 148.991L113.732 148.99Z" fill="#8B8B8B"/>
<path fill-rule="evenodd" clip-rule="evenodd" d="M206.051 127.124C210.679 130.602 216.376 136.007 216.636 145.088C216.896 154.169 212.23 167.962 208.267 176.646C204.305 185.33 195.769 203.999 191.598 213.128C187.427 222.256 182.208 232.402 179.745 236.77L174.427 246.187L163.522 240.233C163.522 240.233 164.08 228.176 165.332 215.52C166.585 202.864 167.628 192.311 168.827 180.19C170.026 168.069 172.319 160.401 174.79 152.208C177.261 144.014 184.678 133.627 188.261 129.289C191.978 124.8 201.294 123.549 206.05 127.12L206.051 127.124Z" fill="#8B8B8B"/>
<path fill-rule="evenodd" clip-rule="evenodd" d="M128.992 56.426C129.016 57.1023 129.157 57.7687 129.408 58.3935C129.586 58.7111 129.796 59.0092 130.032 59.2832C130.813 60.1412 132.924 60.8957 133.375 59.2642C133.75 57.9011 132.584 56.184 131.777 55.0798C131.539 54.8226 131.235 54.6408 130.902 54.5555C130.568 54.4702 130.218 54.4849 129.892 54.5979C129.427 54.8209 129.075 55.7941 128.992 56.426Z" fill="black"/>
<path fill-rule="evenodd" clip-rule="evenodd" d="M141.195 48.3055C140.962 48.647 140.841 49.0564 140.848 49.4744C140.855 49.8923 140.99 50.2971 141.234 50.6302L141.948 52.101C142.131 52.5058 142.336 52.8998 142.561 53.2813C142.722 53.4918 142.931 53.6565 143.17 53.7601C143.409 53.8637 143.67 53.9027 143.928 53.8736C144.185 53.8444 144.431 53.748 144.643 53.5934C144.855 53.4389 145.026 53.2311 145.139 52.9897C145.35 52.4035 145.423 51.7736 145.352 51.1522C145.281 50.5309 145.068 49.936 144.73 49.4171C144.5 48.8824 144.159 48.4068 143.731 48.0244C143.343 47.7596 142.878 47.6426 142.416 47.6933C141.953 47.7439 141.522 47.9592 141.196 48.3023L141.195 48.3055Z" fill="black"/>
<path d="M148.977 73.096C150.101 72.5999 151.125 71.889 151.996 71.0006C153.925 68.77 154.072 67.5654 154.126 66.5933M140.444 61.9017C140.467 62.4692 140.53 63.0342 140.632 63.5923C140.786 64.4525 140.974 65.3179 141.178 66.1653C141.215 66.5041 141.311 66.8331 141.462 67.1364C141.551 67.2611 141.81 67.2706 141.94 67.3382C142.211 67.4725 142.504 67.5498 142.803 67.5656C143.103 67.5814 143.402 67.5354 143.684 67.4302C143.757 67.4059 144.251 67.2093 144.251 67.1132L140.444 61.9017Z" stroke="#1A1A1A" stroke-width="1.587" stroke-linecap="round" stroke-linejoin="round"/>
<path fill-rule="evenodd" clip-rule="evenodd" d="M162.799 246.05C160.625 247.005 158.738 248.547 157.335 250.516C156.244 252.053 156.298 253.342 157.364 256.532C158.48 260.499 159.999 264.331 161.896 267.965C164.282 272.199 165.861 274.517 167.792 275.114C169.723 275.711 170.8 273.212 170.534 269.877C170.269 266.542 169.947 256.71 169.507 254.067C169.066 251.424 164.799 245.414 162.799 246.05Z" fill="black"/>
<path fill-rule="evenodd" clip-rule="evenodd" d="M164.978 240.692C164.28 242.468 164.129 245.13 162.724 246.444C161.319 247.759 161.785 249.614 163.515 251.967C165.245 254.321 166.985 258.361 168.74 258.006C170.495 257.651 169.094 251.604 168.944 250.858C168.794 250.112 171.992 244.326 171.992 244.326C171.992 244.326 165.671 238.914 164.976 240.692H164.978Z" fill="#FCBEB7"/>
<path fill-rule="evenodd" clip-rule="evenodd" d="M128.615 292.748C127.288 294.274 125.638 297.444 123.837 300.41C122.035 303.376 120.813 306.544 120.813 308.57C120.813 310.596 121.91 312.691 124.041 311.226C127.463 308.581 130.646 305.617 133.548 302.373C136.005 299.52 139.153 296.699 140.064 294.818C141.046 292.686 141.193 290.243 140.473 288.001C139.671 286.232 137.003 285.53 137.003 285.53C137.003 285.53 129.94 291.222 128.616 292.748H128.615Z" fill="black"/>
<path fill-rule="evenodd" clip-rule="evenodd" d="M127.357 280.932C128.423 283.194 129.225 285.579 129.748 288.037C129.969 289.718 129.162 291.729 128.031 294.093C126.9 296.456 126.011 298.596 127.834 298.443C129.657 298.29 131.057 297.08 132.921 294.406C134.433 292.405 135.766 290.265 136.901 288.012C137.337 286.813 136.333 285.125 135.561 283.383C135.061 282.034 134.8 280.602 134.789 279.157C134.789 279.157 126.106 277.945 127.362 280.93L127.357 280.932Z" fill="#FCBEB7"/>
</svg>
