<svg width="310" height="317" viewBox="0 0 310 317" fill="none" xmlns="http://www.w3.org/2000/svg">
<path d="M47.0404 184.215C28.6423 184.215 13.6039 182.583 13.124 180.542L15.8437 211.306C15.8437 225.898 29.8689 237.785 47.0404 237.785C64.2119 237.785 78.2371 225.847 78.2371 211.306L80.9568 180.542C80.5835 182.583 65.5451 184.215 47.0404 184.215Z" fill="#DEC7B2"/>
<path d="M47.041 184.215C28.3229 184.215 13.1779 182.532 13.0712 180.491V180.44C13.2312 178.348 28.3763 176.716 47.041 176.716C65.7057 176.716 80.7974 178.399 81.0107 180.44V180.491C80.9041 182.583 65.7057 184.215 47.041 184.215Z" fill="#E8D4C1"/>
<path d="M47.041 183.603C31.2559 183.603 18.4573 182.175 18.404 180.44V180.389C18.564 178.654 31.3093 177.226 47.041 177.226C62.7726 177.226 75.5713 178.603 75.678 180.389V180.44C75.6246 182.175 62.826 183.603 47.041 183.603Z" fill="#BA9C7E"/>
<path d="M14.2978 193.756C16.4842 193.807 18.6173 194.623 20.4838 196.358C23.9501 199.572 26.1365 204.572 28.9629 208.347C30.0295 206.307 30.936 204.215 31.7893 202.072C32.8025 199.521 36.3755 197.123 39.2019 199.215C42.1882 201.409 44.428 203.96 46.4011 207.072C48.0543 209.776 49.4408 212.939 52.0538 214.98C54.5602 216.919 57.4399 217.48 58.4532 214.011C59.3597 211 59.0398 207.735 60.053 204.674C60.9062 202.174 62.2394 199.521 64.9591 198.399C68.1588 197.072 71.2518 198.705 74.0782 200.082C75.7847 200.899 77.4378 201.766 79.091 202.684L78.5044 209.164C75.5713 207.429 72.0517 205.286 69.0654 204.878C67.1989 204.623 67.3056 205.848 67.1989 207.531C67.0923 209.062 67.0922 210.592 67.0389 212.072C66.8789 215.184 66.399 218.245 64.4792 220.796C60.3729 226.306 52.6937 226.051 47.3076 222.531C44.3746 220.643 42.2949 218.194 40.4284 215.388C39.8418 214.47 39.2552 213.5 38.6686 212.582C36.3755 217.735 32.8025 222.327 26.9898 220.388C23.3635 219.164 21.0171 215.388 18.8306 212.582C18.1374 211.715 16.9108 209.572 15.6843 207.684L14.2978 193.756Z" fill="#EBDBCD"/>
<path d="M0.965812 79.1669C1.65907 76.5649 4.91206 76.1567 6.83186 77.6873C10.4581 80.5954 12.3246 84.5748 14.3511 88.5543C16.4308 92.7379 18.9906 96.5644 21.9769 100.187C28.0563 107.585 34.8289 114.523 39.3084 122.992C47.9475 139.471 50.0273 158.859 44.0546 176.511C43.8946 177.073 45.0145 174.267 43.148 179.164C41.4949 183.603 34.8822 181.205 34.9889 176.052C35.0422 171.001 33.6557 166.308 31.3093 161.818C26.6698 152.941 20.9104 144.675 16.3775 135.696C11.8446 126.666 7.79175 117.38 4.59209 107.891C1.39243 98.7072 -1.59392 88.8605 0.965812 79.1669Z" fill="#4C786B"/>
<path d="M43.3081 27.4845C45.6012 23.454 52.4805 26.209 51.0939 30.5967C47.0944 43.6065 49.9741 57.4327 52.4271 70.4426C54.9335 83.7586 57.8666 96.9726 59.6264 110.391C62.6661 134.217 61.7062 161.002 45.9211 180.899C44.2147 183.042 40.6417 181.256 42.0282 178.705C43.5747 175.899 39.6285 157.328 37.922 151.359C36.1622 145.237 34.349 139.063 32.7492 132.941C29.6029 120.901 27.0431 108.605 26.3499 96.1563C25.0167 72.0242 31.256 48.6064 43.3081 27.4845Z" fill="#578A81"/>
<path d="M50.8272 159.981C52.6937 151.869 51.3072 143.298 53.1203 135.186C54.8801 127.278 57.3332 119.217 61.1728 111.972C64.8524 105.085 70.4518 100.187 77.0111 95.9522C83.1971 91.9217 90.503 87.9932 92.6895 80.6465C93.9693 76.3099 101.755 76.9221 101.275 81.7689C100.262 91.6156 95.8891 100.289 90.8763 108.758C85.4902 117.788 80.7974 126.462 78.131 136.564C73.5982 153.961 69.7052 176.512 48.9607 181.818C46.5077 182.481 46.881 177.328 50.8272 159.981Z" fill="#689999"/>
<path d="M270.484 14.8827L269.471 13.9644L279.283 3.86255L286.962 14.0664L285.789 14.8317L279.177 6.0564L270.484 14.8827Z" fill="#E8D4C1"/>
<path d="M235.768 276.407C232.941 277.121 229.902 275.285 228.569 272.071L221.156 254.112C219.503 250.183 221.209 245.847 224.622 244.979L229.208 243.806C232.675 242.939 236.301 245.898 236.941 250.081L239.767 269.213C240.247 272.632 238.541 275.693 235.768 276.407Z" fill="#7A5B3C"/>
<path d="M117.86 276.407C120.687 277.121 123.726 275.285 125.059 272.071L132.472 254.112C134.125 250.183 132.419 245.847 129.006 244.979L124.42 243.806C120.953 242.939 117.327 245.898 116.687 250.081L113.861 269.213C113.327 272.632 115.034 275.693 117.86 276.407Z" fill="#7A5B3C"/>
<path d="M253.313 293.958C249.633 294.876 245.687 292.478 243.98 288.294L234.381 264.979C232.302 259.877 234.435 254.265 238.914 253.142L244.887 251.663C249.366 250.54 254.113 254.367 254.966 259.826L258.592 284.672C259.232 289.06 256.992 293.039 253.313 293.958Z" fill="#A67C52"/>
<path d="M100.262 293.958C103.942 294.876 107.888 292.478 109.594 288.294L119.193 264.979C121.273 259.877 119.14 254.265 114.661 253.142L108.688 251.663C104.208 250.54 99.4621 254.367 98.6089 259.826L94.9826 284.672C94.396 289.06 96.5825 293.039 100.262 293.958Z" fill="#A67C52"/>
<path d="M264.938 201.307H91.3563C80.9574 201.307 72.425 193.195 72.425 183.195V114.472C72.425 104.523 80.9041 96.3604 91.3563 96.3604H264.938C275.337 96.3604 283.869 104.472 283.869 114.472V183.195C283.869 193.195 275.337 201.307 264.938 201.307Z" fill="#62ADD7"/>
<path d="M271.39 167.481C268.191 167.532 265.524 169.879 265.258 172.94C264.084 184.624 260.618 211.256 253.099 224.521C247.926 233.653 232.674 234.469 228.621 234.52H127.512C123.459 234.469 108.261 233.653 103.035 224.521C95.5153 211.256 91.9957 184.675 90.8758 172.94C90.5559 169.879 87.9428 167.583 84.7431 167.481L52.5865 167.022C48.9069 166.971 45.9739 169.93 46.2405 173.45C47.3071 188.042 51.52 223.908 67.7849 247.02C76.6373 259.52 90.3959 263.397 93.8622 264.214C95.8353 264.826 261.791 264.469 263.124 264.163C267.551 262.989 280.083 258.703 288.348 247.071C304.667 224.01 308.88 188.093 309.893 173.501C310.159 169.981 307.226 167.022 303.547 167.073L271.39 167.481Z" fill="#62ADD7"/>
<path d="M127.459 234.673H228.675C232.728 234.622 247.98 233.806 253.153 224.674C261.152 210.592 264.565 181.46 265.578 171.052C265.791 168.859 265.311 166.665 264.245 164.726L257.579 152.635C257.206 151.971 256.139 152.124 256.032 152.839C254.219 161.461 247.447 192.378 243.927 194.623C239.821 197.225 114.554 194.98 109.754 194.623C105.648 194.368 101.382 162.583 100.209 153.196C100.102 152.43 98.9822 152.226 98.6089 152.941L92.1562 164.624C91.0364 166.665 90.5564 168.961 90.7697 171.206C91.7296 181.562 95.1426 210.694 103.142 224.674C108.208 233.755 123.46 234.622 127.459 234.673Z" fill="#4AB6BD"/>
<path d="M238.541 234.52H115.034C114.661 234.52 114.341 234.52 114.021 234.469C101.595 234.01 93.5961 222.633 98.1289 212.429L103.728 199.827C104.208 198.756 105.328 195.95 105.328 195.95C110.128 185.695 117.754 183.144 128.366 183.144H225.262C235.874 183.144 245.58 188.399 248.513 196.46C248.513 196.46 249.42 198.756 249.9 199.827L255.499 212.429C260.032 222.633 252.033 234.01 239.607 234.469C239.234 234.52 238.861 234.52 238.541 234.52Z" fill="#2F8BA8"/>
<path d="M90.8231 171.103C90.6098 168.807 91.0897 166.512 92.2096 164.522L98.6623 152.838C99.0355 152.175 99.9954 152.328 100.209 152.992C100.209 152.992 100.049 150.849 95.4092 150.543H77.1711C74.0248 150.543 70.9318 151.41 68.2654 153.043L51.5738 163.399C48.0542 165.593 45.9744 169.42 46.1877 173.45C45.9211 169.93 48.8541 166.971 52.5338 167.022L84.6904 167.481C87.6767 167.532 90.1831 169.573 90.7697 172.328L90.8231 172.379C90.8764 171.971 90.8231 171.512 90.8231 171.103Z" fill="#86E0D0"/>
<path d="M265.578 171.103C265.791 168.807 265.098 166.563 263.978 164.522L257.526 152.889C257.152 152.226 256.192 152.379 255.979 153.043C255.979 153.043 256.139 150.9 260.779 150.594H278.963C282.11 150.594 285.256 151.461 287.869 153.094L304.561 163.45C308.134 165.644 310.16 169.522 309.947 173.501C310.213 169.981 307.227 167.022 303.601 167.073L271.444 167.532C268.404 167.583 266.058 169.624 265.525 172.379C265.471 172.43 265.525 171.511 265.578 171.103Z" fill="#86E0D0"/>
<path d="M260.245 194.521C260.245 194.521 265.471 195.082 269.258 198.807C273.044 202.531 271.764 208.755 269.258 210.694C264.885 214.01 256.459 214.01 250.113 214.01C243.767 214.01 239.554 212.633 239.554 212.633L247.66 193.399C247.66 193.399 252.726 192.531 260.245 194.521Z" fill="#AB534D"/>
<path d="M185.373 252.734C182.227 258.193 179.134 263.601 176.041 269.009C173.961 272.631 176.841 277.58 180.467 278.958C184.893 280.641 188.786 278.346 190.866 274.723C194.012 269.264 197.105 263.856 200.198 258.448C202.278 254.826 199.398 249.877 195.772 248.499C191.399 246.765 187.453 249.061 185.373 252.734Z" fill="#FCBEB7"/>
<path d="M214.543 80.6463C214.543 80.6463 207.664 59.5754 205.318 50.6981C201.745 36.974 191.932 28.7089 178.121 28.7089C164.095 28.7089 154.283 37.127 150.39 50.8001C146.444 64.8814 141.271 79.5749 141.271 79.5749C140.684 81.4627 141.644 83.4524 143.511 84.1667C147.937 85.8503 157.269 88.8605 178.121 88.6054C196.732 88.3503 206.331 85.8503 211.184 85.3911C213.584 85.085 215.183 82.8912 214.543 80.6463Z" fill="#055480"/>
<path d="M186.066 74.0139H170.175V100.289C170.175 102.279 171.828 103.86 173.908 103.86H182.333C184.413 103.86 186.066 102.279 186.066 100.289V74.0139Z" fill="#FCBEB7"/>
<path d="M177.907 26.6171C183.385 26.6171 187.826 22.3684 187.826 17.1275C187.826 11.8865 183.385 7.63794 177.907 7.63794C172.429 7.63794 167.988 11.8865 167.988 17.1275C167.988 22.3684 172.429 26.6171 177.907 26.6171Z" fill="#055480"/>
<path d="M309.307 58.2491H244.514C244.14 58.2491 243.82 57.943 243.82 57.5858V14.1685C243.82 13.8114 244.14 13.5052 244.514 13.5052H309.307C309.68 13.5052 310 13.8114 310 14.1685V57.6368C310 57.943 309.68 58.2491 309.307 58.2491Z" fill="#EBDBCD"/>
<path d="M300.668 51.7186H253.153C252.833 51.7186 252.619 51.4635 252.619 51.2084V20.5969C252.619 20.2907 252.886 20.0867 253.153 20.0867H300.668C300.988 20.0867 301.201 20.3418 301.201 20.5969V51.2084C301.201 51.4635 300.934 51.7186 300.668 51.7186Z" fill="#FCFAF8"/>
<path d="M94.236 183.552C94.236 171.563 106.448 163.195 119.247 160.134C145.324 153.757 191.186 162.073 191.186 162.073L166.975 176.818C166.975 176.818 189.213 182.736 194.759 183.858C200.305 184.981 236.408 194.011 236.994 194.878C237.581 195.746 223.716 213.347 223.716 213.347C223.716 213.347 156.043 214.113 135.245 211.511C114.394 208.858 94.236 204.011 94.236 183.552Z" fill="#89C6FF"/>
<path d="M163.882 176.92C174.868 179.368 191.239 183.909 198.598 186.103C206.118 188.348 208.997 190.542 208.997 190.542C208.997 190.542 195.292 202.021 189.266 224.775C185.853 237.581 179.347 254.673 178.227 258.448C178.067 259.009 178.174 259.622 178.6 260.081C179.934 261.458 182.973 264.417 186.226 266.101C190.226 268.193 197.478 270.54 198.225 269.519C198.225 269.519 230.062 239.724 242.434 222.633C254.859 205.541 266.271 191.664 261.365 179.726C257.366 169.981 248.46 164.216 233.688 161.206C211.077 156.665 184.787 158.451 184.787 158.451C184.787 158.451 183.24 162.175 177.267 168.808C172.361 174.369 163.669 176.92 163.882 176.92Z" fill="#89C6FF"/>
<path d="M154.496 74.4732C151.937 74.4732 151.883 67.3815 151.883 66.5652C151.883 65.7489 151.937 58.6572 154.496 58.6572C157.056 58.6572 157.109 65.7489 157.109 66.5652C157.163 67.3305 157.056 74.4732 154.496 74.4732ZM154.496 59.9837C154.016 60.4429 153.27 62.7898 153.27 66.5652C153.27 70.2896 154.016 72.6875 154.496 73.1467C154.976 72.6875 155.723 70.3406 155.723 66.5652C155.723 62.7388 154.976 60.3919 154.496 59.9837Z" fill="white"/>
<path d="M201.265 74.4732C198.705 74.4732 198.652 67.3815 198.652 66.5652C198.652 65.7489 198.705 58.6572 201.265 58.6572C203.824 58.6572 203.878 65.7489 203.878 66.5652C203.878 67.3305 203.824 74.4732 201.265 74.4732ZM201.265 59.9837C200.785 60.4429 200.038 62.7898 200.038 66.5652C200.038 70.2896 200.785 72.6875 201.265 73.1467C201.745 72.6875 202.491 70.3406 202.491 66.5652C202.491 62.7388 201.745 60.3919 201.265 59.9837Z" fill="white"/>
<path d="M178.121 79.677C192.67 79.677 204.464 68.393 204.464 54.4735C204.464 40.554 192.67 29.27 178.121 29.27C163.571 29.27 151.777 40.554 151.777 54.4735C151.777 68.393 163.571 79.677 178.121 79.677Z" fill="#FCBEB7"/>
<path d="M151.243 56.3104C151.297 56.7185 151.297 57.1267 151.35 57.4838C151.35 57.5349 151.35 57.5858 151.403 57.6369C151.457 58.096 151.51 58.5042 151.563 58.9123V58.9634C151.617 59.4225 151.723 59.8817 151.83 60.3409C153.59 53.4023 160.149 48.2493 167.935 48.2493C168.895 48.2493 169.855 48.3003 170.761 48.5044C171.455 48.6575 172.201 48.7595 172.894 48.7595C177.801 48.7595 181.853 45.2392 182.387 40.6475C182.387 40.6475 182.44 40.6475 182.44 40.5965C182.387 41.0556 182.28 41.5658 182.28 42.076C182.28 47.433 186.813 51.7697 192.412 51.7697H192.466C197.958 52.8411 202.331 56.7185 203.931 61.7694C204.251 60.647 204.518 59.4736 204.731 58.3511C204.731 58.3001 204.731 58.2491 204.731 58.1981C204.784 57.7389 204.891 57.2287 204.891 56.7186C204.891 56.5655 204.944 56.4634 204.944 56.3614C204.998 55.8002 204.998 55.239 204.998 54.6778C204.998 54.2186 204.998 53.7084 204.944 53.3002C204.944 53.1472 204.891 53.0452 204.891 52.8921C204.838 52.535 204.838 52.2289 204.838 51.9227C204.838 51.7697 204.784 51.6166 204.784 51.4636C204.731 51.1574 204.731 50.8513 204.624 50.5452C204.571 50.3921 204.571 50.2391 204.571 50.0861C204.518 49.78 204.464 49.4738 204.411 49.1677C204.358 49.0146 204.358 48.9126 204.304 48.7595C204.251 48.4534 204.144 48.0963 204.038 47.7902C203.984 47.6882 203.984 47.5351 203.931 47.433C203.824 47.0759 203.718 46.7698 203.611 46.4126C203.558 46.3106 203.558 46.2596 203.505 46.1576C203.345 45.8004 203.238 45.3923 203.078 45.0862C203.025 45.0351 203.025 44.9841 203.025 44.9331C202.865 44.5249 202.651 44.1168 202.438 43.7087C200.145 38.9639 196.305 35.0354 191.612 32.4334C190.119 31.6171 188.573 30.9028 186.92 30.3416C186.866 30.2906 186.813 30.2906 186.76 30.2906C186.28 30.1375 185.8 29.9845 185.32 29.8314C185.266 29.7804 185.16 29.7804 185.053 29.7804C183.987 29.5253 182.92 29.3212 181.8 29.1171C181.64 29.0661 181.534 29.0661 181.374 29.0661C180.947 29.0151 180.574 28.9641 180.147 28.9131C179.987 28.9131 179.827 28.862 179.667 28.862C179.134 28.811 178.547 28.811 178.014 28.811C163.135 28.811 151.083 40.3414 151.083 54.5757C151.083 55.0349 151.083 55.5451 151.137 56.0043C151.243 56.1573 151.243 56.2083 151.243 56.3104Z" fill="#055480"/>
<path d="M172.201 272.325C171.615 272.989 166.815 279.366 166.388 282.733C166.068 285.08 164.629 289.366 163.615 295.08C162.602 300.794 159.509 312.886 168.788 316.151C176.627 318.906 178.494 314.263 180.147 312.069C181.8 309.876 186.44 292.682 186.813 290.845C187.506 287.121 191.826 275.234 191.826 275.234C192.306 274.264 192.572 273.856 191.452 273.55C189.373 272.989 186.226 271.917 183.933 270.897C181.427 269.775 178.92 267.581 177.481 266.458C177.001 266.05 176.681 265.795 176.361 266.305C176.361 266.356 172.254 272.325 172.201 272.325Z" fill="#C7645D"/>
<path d="M135.832 114.574C127.672 121.564 121.167 130.237 120.527 141.053C119.887 152.175 126.873 160.696 137.058 165.185C140.098 166.563 143.724 166.002 145.537 163.042C147.084 160.492 146.337 156.257 143.297 154.93C136.578 151.971 131.939 147.584 133.005 140.033C134.018 132.992 139.298 127.533 144.577 123.043C150.55 117.942 141.751 109.523 135.832 114.574Z" fill="#FCBEB7"/>
<path d="M208.411 122.941C211.13 126.36 213.477 129.982 215.45 133.808C217.103 137.074 219.343 140.9 218.916 144.675C218.01 152.481 209.051 156.716 202.651 160.032C195.665 163.655 201.851 173.96 208.891 170.287C218.596 165.236 228.995 158.655 230.915 147.379C231.928 141.563 230.168 136.308 227.662 131.053C225.316 126.053 222.596 121.309 219.076 116.921C216.996 114.421 213.743 112.993 210.597 114.778C208.037 116.309 206.331 120.39 208.411 122.941Z" fill="#F0A173"/>
<path d="M203.771 96.3094C196.999 92.8911 189.426 91.2074 186.066 90.6973C185.053 94.8808 182.76 97.1767 177.854 97.1767C172.841 97.1767 171.135 94.7788 170.175 90.4932C169.161 90.5442 166.068 91.2074 165.322 91.2585C156.523 92.0237 150.443 95.442 145.911 98.4521C139.671 102.585 132.952 110.748 130.232 114.217C129.432 115.186 129.486 116.564 130.286 117.533C131.779 119.217 134.285 121.87 136.845 123.503C141.378 126.411 148.95 126.411 148.95 126.411L150.07 116.411C150.07 116.411 148.15 127.278 147.777 134.523C147.297 142.38 147.777 149.42 147.777 149.42L205.264 150.543C205.264 150.543 207.344 142.737 206.118 131.972C205.798 129.166 202.651 117.227 202.651 117.227L205.318 125.135C205.318 125.135 209.317 125.288 216.197 122.38C218.276 121.513 221.209 119.37 222.916 118.044C223.716 117.482 223.822 116.36 223.236 115.646C220.249 111.615 210.65 99.7787 203.771 96.3094Z" fill="white"/>
<path d="M178.121 79.6262C175.348 79.6262 172.681 79.218 170.175 78.4528V83.1465C172.681 83.9118 175.454 83.9118 178.227 83.7077C181.96 83.3506 183.56 82.6873 186.066 81.6669V78.4528C183.613 79.218 180.947 79.6262 178.121 79.6262Z" fill="#E3996D"/>
<path d="M278.857 7.84197C278.697 7.84197 278.483 7.79095 278.323 7.58687C278.057 7.33178 278.163 6.92365 278.43 6.71957L283.656 2.68904C283.923 2.48497 284.349 2.53596 284.563 2.79106C284.829 3.04615 284.723 3.45434 284.456 3.65842L279.23 7.68889C279.177 7.79092 279.017 7.84197 278.857 7.84197Z" fill="#D4BFA9"/>
<path d="M285.968 4.86809C286.741 4.35271 286.727 3.05408 285.935 1.96748C285.144 0.880887 283.876 0.417781 283.102 0.933164C282.329 1.44855 282.344 2.74722 283.135 3.83382C283.926 4.92042 285.194 5.38347 285.968 4.86809Z" fill="#D4BFA9"/>
<path d="M177.801 173.909C186.973 175.95 196.252 177.532 205.371 179.726C209.904 180.797 214.437 182.021 218.863 183.552C219.876 183.909 220.943 184.266 221.903 184.623C222.383 184.828 222.916 184.981 223.449 185.185C223.822 185.338 224.729 185.542 224.996 185.848C225.422 186.409 224.142 187.532 223.822 187.94C223.023 188.807 222.276 189.674 221.529 190.542C210.224 203.603 199.878 217.429 191.399 232.377C186.706 240.694 182.653 249.265 179.347 258.142C178.867 259.367 180.947 259.928 181.427 258.703C187.453 242.326 196.305 226.969 206.544 212.735C211.717 205.541 217.263 198.603 223.129 191.868C223.822 191.001 224.569 190.185 225.316 189.368C226.009 188.603 226.755 187.889 227.075 186.919C227.342 186.052 227.235 185.083 226.542 184.419C225.849 183.756 224.676 183.45 223.769 183.144C219.343 181.409 214.757 180.032 210.117 178.807C199.665 176.052 188.946 174.267 178.387 171.92C177.001 171.665 176.467 173.603 177.801 173.909Z" fill="white"/>
<path d="M144.471 126.156C144.471 126.156 147.937 122.635 149.164 120.237C150.39 117.789 151.883 113.248 151.883 113.248C151.883 113.248 150.817 119.931 150.177 122.839C149.27 126.87 148.257 128.809 148.257 128.809L144.951 128.656C144.951 128.656 144.791 128.094 144.737 127.482C144.631 126.87 144.471 126.156 144.471 126.156Z" fill="#E0E0E0"/>
<path d="M208.411 127.38C208.411 127.38 205.424 123.554 204.464 121.003C203.505 118.452 202.598 113.758 202.598 113.758C202.598 113.758 202.865 120.543 203.131 123.452C203.558 127.584 204.358 129.625 204.358 129.625L207.664 129.778C207.664 129.778 207.877 129.217 208.037 128.605C208.197 128.043 208.411 127.38 208.411 127.38Z" fill="#E0E0E0"/>
<path d="M211.45 172.124H142.124C139.831 172.124 137.805 170.542 137.325 168.348L129.112 128.758C128.526 125.849 130.819 123.196 133.912 123.196H222.329C225.529 123.196 227.875 126.105 227.075 129.064L216.143 168.654C215.61 170.695 213.637 172.124 211.45 172.124Z" fill="#C5DEE3"/>
<path d="M185.213 149.063C184.947 152.583 181.747 155.492 178.121 155.492C174.494 155.492 171.348 152.634 171.028 149.114C170.708 145.594 173.908 142.686 178.121 142.686C182.333 142.635 185.533 145.492 185.213 149.063Z" fill="#E8F7FF"/>
<path d="M266.858 31.8211C269.044 29.8314 273.204 28.964 275.657 30.0865C278.11 31.2089 277.257 30.9538 278.11 31.2089C278.963 31.464 280.51 31.1068 282.003 32.1782C283.656 33.4537 286.802 36.872 285.096 41.3617C283.656 45.1881 278.963 48.4534 273.364 47.5351C267.764 46.6167 264.991 43.4025 264.245 40.6985C263.392 37.4843 264.725 33.7088 266.858 31.8211Z" fill="#56FFC2"/>
<path d="M278.643 32.4333C278.643 32.4333 278.483 27.0763 282.003 25.8519C285.523 24.6274 291.229 22.9438 290.962 23.3009C290.695 23.607 289.309 29.4232 286.962 30.9538C283.336 33.3517 278.643 32.4333 278.643 32.4333Z" fill="#1F6771"/>
<path d="M274.91 33.1475C274.91 33.1475 275.444 30.5455 275.55 29.0149C275.764 25.8518 275.71 24.2701 275.71 24.2701L278.537 24.7293C278.537 24.7293 278.163 28.4537 277.843 29.7802C277.257 32.1781 276.404 33.6067 276.404 33.6067C276.404 33.6067 275.87 34.0149 275.39 33.7598C274.91 33.5557 274.91 33.1475 274.91 33.1475Z" fill="#6B4D3A"/>
<path d="M278.557 24.708C278.632 24.3488 278.061 23.9366 277.281 23.7873C276.502 23.6381 275.809 23.8083 275.734 24.1675C275.658 24.5267 276.23 24.9389 277.009 25.0881C277.789 25.2374 278.482 25.0672 278.557 24.708Z" fill="#8A634B"/>
</svg>
