<svg width="310" height="317" viewBox="0 0 310 317" fill="none" xmlns="http://www.w3.org/2000/svg">
<path d="M34.1434 79.2534L192.991 10.3379L230.441 135.197L50.0228 129.474L34.1434 79.2534Z" fill="#EBDBCD"/>
<path d="M145.624 44.5807L139.5 84.7854C139.446 85.31 139.717 85.8346 140.259 86.0254C142.047 86.6931 146.22 88.1239 150.881 88.3623C154.675 88.5531 161.341 87.647 165.189 86.5977C165.893 86.407 166.381 85.6916 166.11 85.0716L148.225 44.2945C147.738 43.1499 145.841 43.3884 145.624 44.5807Z" fill="#055480"/>
<path d="M166.219 79.444C181.014 79.444 193.045 68.8563 193.045 55.8363C193.045 42.8162 181.014 32.2285 166.219 32.2285C151.423 32.2285 139.392 42.8162 139.392 55.8363C139.392 68.904 151.369 79.444 166.219 79.444Z" fill="#FCB58A"/>
<path d="M126.005 237.544H89.3147V261.963H126.005V237.544Z" fill="#F8D7BC"/>
<path d="M85.7378 235.637V237.497H126.059V261.915H85.7378V263.775H240.9V235.637H85.7378Z" fill="#4EA7BA"/>
<path d="M70.3462 221.186C71.2675 226.194 72.3514 231.154 73.7063 236.066C76.0909 244.746 91.2658 241.074 88.8812 232.394C87.5263 227.481 86.4424 222.521 85.521 217.514C84.8707 213.841 79.6137 211.79 75.82 212.649C71.3217 213.794 69.6417 217.514 70.3462 221.186Z" fill="#E3996D"/>
<path d="M310 170.489L282.631 184.463L282.143 155.99L310 170.489Z" fill="#2B87BA"/>
<path d="M161.395 147.644C161.233 147.597 161.07 147.501 160.907 147.501C158.306 147.12 138.254 144.067 117.442 140.538C108.175 138.964 81.1311 132.24 66.9318 137.104C52.7867 141.969 49.9686 149.266 48.7221 154.369C47.6382 158.995 49.535 174.686 54.1416 190.615C58.2605 204.875 68.3409 222.951 70.4004 226.575C70.6172 227.004 71.1591 227.291 71.7011 227.338C73.0018 227.386 75.6032 227.386 78.9092 226.48C81.8899 225.717 85.0332 224.238 86.4423 223.523C86.9301 223.284 87.2011 222.855 87.2011 222.378C87.2553 218.42 87.6347 199.867 87.0927 186.847C86.5508 174.209 81.619 170.012 81.619 170.012C81.619 170.012 98.6364 186.657 116.033 191.187C129.799 194.764 158.631 202.729 170.554 202.443C184.374 202.109 194.4 196.958 198.844 190.758C207.136 179.312 201.988 162.333 200.687 158.613C200.525 158.137 200.091 157.803 199.549 157.707C194.996 156.753 173.372 152.223 167.79 150.172C163.292 148.455 161.829 147.835 161.395 147.644Z" fill="#8AD5FF"/>
<path d="M200.091 142.303C200.091 142.303 199.766 145.45 200.145 149.934C200.47 154.464 201.283 157.898 201.283 157.898C201.283 157.898 180.58 154.941 172.722 152.271C162.804 148.884 161.232 147.501 161.232 147.501C161.232 147.501 163.075 143.829 163.78 141.206C164.267 139.251 164.538 133.909 164.538 133.909C164.538 133.909 175.269 138.392 182.748 139.966C190.227 141.54 200.091 142.303 200.091 142.303Z" fill="#FCB58A"/>
<path d="M18.5 41C28.7276 41 37 33.1748 37 23.5C37 13.8252 28.7276 6 18.5 6C8.27236 6 0 13.8252 0 23.5C0 33.1748 8.27236 41 18.5 41Z" fill="#4EA7BA"/>
<path d="M176.407 305.697H53.6539V266.255H176.353C182.477 266.255 187.409 270.595 187.409 275.985V295.968C187.518 301.357 182.531 305.697 176.407 305.697Z" fill="#F8ECE2"/>
<path d="M249.138 263.775H48.3427C47.5839 263.775 46.9336 264.3 46.9336 265.015C46.9336 265.683 47.5297 266.255 48.3427 266.255H73.0018H165.026C177.437 266.255 187.463 275.078 187.463 286C187.463 296.921 177.437 305.744 165.026 305.744H51.3776H48.3427C47.5839 305.744 46.9336 306.269 46.9336 306.984C46.9336 307.7 47.5297 308.224 48.3427 308.224H249.138C261.549 308.224 271.575 299.401 271.575 288.48V283.567C271.575 272.598 261.549 263.775 249.138 263.775Z" fill="#56FFCC"/>
<path d="M169.362 274.792H53.7081V273.409H169.362C169.795 273.409 170.121 273.695 170.121 274.077C170.121 274.506 169.795 274.792 169.362 274.792Z" fill="#EBD0BE"/>
<path d="M115.979 256.144H89.3147V254.761H115.979C116.413 254.761 116.738 255.047 116.738 255.429C116.738 255.81 116.413 256.144 115.979 256.144Z" fill="#E0C1A6"/>
<path d="M109.692 248.418H89.3147V247.035H109.638C110.072 247.035 110.397 247.321 110.397 247.703C110.451 248.132 110.126 248.418 109.692 248.418Z" fill="#E0C1A6"/>
<path d="M177.762 290.149H53.7081V288.766H177.762C178.196 288.766 178.521 289.052 178.521 289.434C178.521 289.815 178.196 290.149 177.762 290.149Z" fill="#EBD0BE"/>
<path d="M162.479 298.686H53.7081V297.303H162.479C162.913 297.303 163.238 297.589 163.238 297.971C163.238 298.352 162.913 298.686 162.479 298.686Z" fill="#EBD0BE"/>
<path d="M174.023 282.614H53.7081V281.23H174.023C174.456 281.23 174.781 281.517 174.781 281.898C174.781 282.28 174.456 282.614 174.023 282.614Z" fill="#EBD0BE"/>
<path d="M160.853 233.395H113.649V218.753H160.853C162.154 218.753 163.184 219.66 163.184 220.804V231.344C163.184 232.489 162.1 233.395 160.853 233.395Z" fill="#F8D0B3"/>
<path d="M245.886 216.512H152.128H110.993H109.746C109.042 216.512 108.446 217.037 108.446 217.657C108.446 218.277 109.042 218.801 109.746 218.801H113.649H158.523C161.07 218.801 163.184 220.661 163.184 222.903V229.294C163.184 231.535 161.07 233.395 158.523 233.395H148.28H110.072C109.367 233.395 108.771 233.92 108.771 234.54C108.771 235.16 109.367 235.685 110.072 235.685H111.047H152.453H245.886C248.433 235.685 250.547 233.825 250.547 231.583V220.661C250.547 218.325 248.433 216.512 245.886 216.512Z" fill="#7ADFFF"/>
<path d="M83.4616 126.898C97.3899 121.413 113.486 128.758 127.36 130.856C140.963 132.907 155.867 131.285 165.297 121.509C167.411 119.267 167.79 116.024 165.297 113.83C163.075 111.875 158.74 111.589 156.572 113.83C147.684 123.035 133.864 121.365 121.941 118.695C106.983 115.309 92.1329 111.636 77.2833 117.502C74.2483 118.695 73.4895 122.605 75.0612 124.942C76.8497 127.709 80.4266 128.09 83.4616 126.898Z" fill="#F0A173"/>
<path d="M87.9056 130.284C103.026 125.944 117.93 134.528 132.075 138.201C145.624 141.682 160.636 141.158 171.205 132.096C176.895 127.232 168.17 119.553 162.479 124.418C152.941 132.573 139.012 129.139 128.065 125.562C114.136 121.032 99.6119 115.499 84.5997 119.839C77.1749 121.938 80.3724 132.478 87.9056 130.284Z" fill="#FCB58A"/>
<path d="M183.073 89.3166C184.374 89.6505 196.189 93.8474 200.579 107.726C204.264 119.172 207.353 136.198 208.329 141.778C208.546 142.828 207.733 143.877 206.486 144.068C202.963 144.688 195.322 145.641 185.729 144.878C172.343 143.829 163.834 140.634 163.834 140.634L164.159 137.963L162.967 138.44C162.045 138.821 160.907 138.583 160.311 137.868L151.586 127.661C150.99 126.994 151.261 126.04 152.073 125.658L152.182 125.611L145.136 118.171C144.486 117.455 144.54 116.406 145.299 115.786C147.792 113.687 153.212 108.871 157.059 104.244C159.878 100.906 163.563 94.8013 165.839 92.4643C170.5 87.5997 179.605 88.4105 183.073 89.3166Z" fill="white"/>
<path d="M183.507 93.6564L174.944 74.2456L158.631 74.1501L167.194 93.561L183.507 93.6564Z" fill="#FCB58A"/>
<path d="M168.549 97.901C170.988 98.4257 174.294 96.3749 177.058 95.278C180.038 94.1333 183.453 93.6564 183.453 93.6564L167.14 93.561C167.14 93.561 165.948 97.3764 168.549 97.901Z" fill="#FCB58A"/>
<path d="M162.804 113.592C162.804 113.592 161.178 117.455 159.552 119.601C157.927 121.747 152.29 125.563 152.29 125.563L150.177 123.321C150.177 123.321 154.079 121.556 156.843 119.219C158.902 117.55 162.804 113.592 162.804 113.592Z" fill="#E0E0E0"/>
<path d="M164.213 137.915C164.213 137.915 169.253 135.292 171.53 133.146C173.806 131 176.949 126.66 176.949 126.66C176.949 126.66 173.481 133.241 171.801 136.103C169.416 140.014 167.628 141.73 167.628 141.73L163.996 140.586C163.996 140.586 164.051 139.918 164.159 139.298C164.159 138.726 164.213 137.915 164.213 137.915Z" fill="#E0E0E0"/>
<path d="M71.4301 125.419C74.9528 123.464 78.6381 121.938 82.6486 120.841C85.9546 119.935 84.5455 115.309 81.1854 116.167C76.7955 117.36 72.6224 119.029 68.7203 121.223C65.7937 122.892 68.4493 127.041 71.4301 125.419Z" fill="#F0A173"/>
<path d="M194.4 38.7624C199.982 38.7624 204.481 34.804 204.481 29.8917C204.481 24.9793 199.982 21.0209 194.4 21.0209C188.818 21.0209 184.32 24.9793 184.32 29.8917C184.266 34.804 188.818 38.7624 194.4 38.7624Z" fill="#055480"/>
<path d="M165.568 62.9424C168.386 63.8486 169.633 63.8486 169.633 63.8486C169.308 62.2271 168.928 60.4624 168.928 60.3194C168.928 60.3194 164.268 58.9363 161.178 56.2178C156.518 52.1163 158.848 48.0147 154.946 44.5809C151.694 41.7193 147.629 40.4794 146.275 40.1455C146.22 40.1932 146.22 40.1932 146.22 40.1932C146.275 40.2409 151.261 42.0055 154.512 45.8686C157.818 49.7317 154.837 53.547 158.794 58.1732C161.124 61.0348 163.129 62.1317 165.568 62.9424Z" fill="#E3996D"/>
<path d="M176.407 77.6792C173.264 78.8238 169.795 79.4439 166.164 79.4439C164.322 79.4439 162.425 79.253 160.691 78.9192L162.967 84.07C163.617 84.0223 164.268 83.8792 164.918 83.7839C169.47 82.8777 173.481 80.9223 176.678 78.2992L176.407 77.6792Z" fill="#E3996D"/>
<path d="M172.614 81.2565C167.302 81.2565 162.913 77.4411 162.913 72.7195C162.913 68.0457 167.248 64.1826 172.614 64.1826C177.979 64.1826 182.315 67.998 182.315 72.7195C182.315 77.4411 177.925 81.2565 172.614 81.2565ZM172.614 65.6134C168.17 65.6134 164.538 68.8087 164.538 72.7195C164.538 76.6303 168.17 79.8257 172.614 79.8257C177.058 79.8257 180.689 76.6303 180.689 72.7195C180.689 68.8087 177.058 65.6134 172.614 65.6134Z" fill="white"/>
<path d="M203.884 85.9301C204.968 85.5962 205.619 84.547 205.185 83.5931L192.341 49.3499C189.089 39.2868 178.629 31.8945 166.164 31.8945C158.035 31.8945 150.773 35.0422 145.787 39.9546C145.841 39.9546 151.044 41.0992 154.892 44.533C158.794 47.9669 156.463 52.0684 161.124 56.17C164.213 58.8884 168.874 60.2715 168.874 60.2715C168.874 60.7007 171.15 71.0023 172.993 79.0147C173.372 80.7793 173.752 82.83 174.077 84.4039C174.239 85.1669 174.836 85.7869 175.649 86.0731C180.364 87.7423 185.783 88.6008 191.582 88.3624C195.755 88.2193 201.066 86.7885 203.884 85.9301Z" fill="#055480"/>
<path d="M201.012 155.609C201.012 155.609 202.855 162.333 202.313 162.333C201.717 162.286 179.226 158.423 173.372 157.278C160.528 154.846 158.523 147.167 158.523 147.167C158.523 147.167 159.553 147.12 160.636 146.404C161.72 145.689 162.1 145.403 162.1 145.403C162.1 145.403 163.942 149.361 175.107 152.223C190.661 156.181 201.012 155.609 201.012 155.609Z" fill="#ADE1FF"/>
<path d="M72.6766 232.25C72.6766 232.25 77.8251 232.203 80.4265 231.821C83.0279 231.392 88.0681 229.246 88.0681 229.246C88.0681 229.246 91.0489 234.969 91.8618 236.495C92.729 238.021 96.3601 241.789 96.8479 244.269C97.3357 246.749 97.444 252.281 86.6049 253.14C81.5647 253.521 76.8496 262.487 71.3759 263.155C68.6661 263.489 55.7675 264.729 52.1364 262.964C48.5053 261.2 49.6433 256.478 58.4772 253.95C67.3112 251.375 65.6311 248.8 67.7447 245.509C69.75 242.123 72.6766 232.25 72.6766 232.25Z" fill="#5DC79A"/>
<path d="M42.6521 223.427C41.8934 229.007 41.1346 234.54 40.3759 240.12C39.8881 243.84 44.3864 247.083 48.2885 247.083C52.9494 247.083 55.6591 243.887 56.2011 240.12C56.9598 234.54 57.7186 229.007 58.4773 223.427C58.9651 219.707 54.4668 216.464 50.5647 216.464C45.8497 216.512 43.1399 219.707 42.6521 223.427Z" fill="#FCB58A"/>
<path d="M166.869 202.252C178.25 203.254 188.764 200.44 196.785 193.62C204.752 186.8 204.264 175.354 203.83 170.727C203.505 167.055 202.096 161.141 201.554 158.804C201.392 158.232 200.904 157.755 200.253 157.66C196.189 156.992 181.935 154.75 177.708 153.606C174.24 152.652 171.205 151.603 169.687 151.078C169.091 150.887 168.441 150.983 167.953 151.364C166.652 152.413 163.563 154.274 158.523 153.844C151.694 153.224 121.615 145.069 109.746 141.826C97.8776 138.63 77.9878 130.857 59.5612 136.198C47.8007 139.632 39.021 149.504 38.75 170.25C38.5874 186.37 38.5333 206.974 38.8584 214.747C39.0752 220.852 38.8042 227.338 38.6958 229.818C38.6416 230.486 39.0752 231.011 39.7255 231.249C40.9179 231.678 43.0857 232.298 46.1207 232.871C49.9144 233.586 54.6294 233.3 56.743 233.109C57.3934 233.061 57.9353 232.68 58.1521 232.108C59.2902 229.151 62.9755 219.374 66.3357 211.171C74.6818 190.615 75.3864 179.55 75.007 174.59C74.8986 173.35 76.4703 172.587 77.6084 173.303C83.1364 176.641 95.0053 183.509 108.283 188.755C126.493 196.004 152.67 201.012 166.869 202.252Z" fill="#ADE1FF"/>
<path d="M182.857 155.513C182.911 162.715 180.364 170.107 174.402 175.258C171.746 177.595 168.44 179.407 164.809 180.409C160.474 181.553 155.867 181.363 151.423 180.743C134.839 178.406 119.61 171.681 104.652 165.386C97.1188 162.19 89.5314 159.09 81.6188 156.61C79.6136 155.99 77.6625 155.37 75.6573 154.846C73.4353 154.273 71.159 153.701 68.8828 153.94C65.1433 154.273 62.2709 156.563 60.3199 159.186C58.2604 162.047 57.2307 165.433 56.4178 168.724C55.4965 172.349 54.9003 176.021 54.5209 179.741C53.9248 185.083 53.7622 190.424 53.2202 195.766C52.0821 206.353 50.7272 217.037 48.6136 227.529C48.451 228.387 48.2884 229.198 48.0716 230.009C47.8006 231.154 49.8059 231.678 50.0768 230.486C51.1066 226.098 51.8111 221.663 52.4615 217.227C53.3828 211.504 54.1416 205.686 54.8461 199.915C55.4423 195.05 55.8216 190.233 56.1468 185.369C56.5804 178.167 57.4475 170.727 60.1572 163.812C61.2954 160.855 63.2464 157.85 66.4982 156.372C70.4003 154.607 75.0611 156.42 78.8548 157.612C86.8216 159.996 94.5174 163.097 102.105 166.292C117.171 172.587 132.238 179.455 148.822 182.173C153.32 182.889 157.926 183.413 162.479 182.746C166.218 182.221 169.85 180.79 172.83 178.835C179.388 174.59 183.344 168.009 184.591 160.95C184.916 159.138 185.079 157.278 185.024 155.466C184.97 154.321 182.857 154.321 182.857 155.513Z" fill="white"/>
<path d="M70.5088 129.139C74.0316 126.182 78.584 125.085 83.2448 124.322C86.5508 123.75 85.3584 119.219 82.0525 119.792C76.5245 120.745 71.1049 122.224 66.9319 125.753C64.5472 127.804 68.07 131.238 70.5088 129.139Z" fill="#FCB58A"/>
<path d="M89.5857 130.523L78.2588 133.003C76.5787 133.384 74.8986 132.478 74.465 131L72.6766 124.657C72.2431 123.178 73.2728 121.7 74.9528 121.318L86.2798 118.838C87.9598 118.457 89.6399 119.363 90.0735 120.841L91.8619 127.184C92.2954 128.663 91.2658 130.189 89.5857 130.523Z" fill="#FCB58A"/>
<path d="M183.886 215.511H107.525V201.441H183.886C186.054 201.441 187.788 202.968 187.788 204.875V211.981C187.788 213.937 186.054 215.511 183.886 215.511Z" fill="#F8E7D8"/>
<path d="M231.47 200.344H104.273C103.948 200.344 103.677 200.583 103.677 200.869C103.677 201.155 103.948 201.393 104.273 201.393H179.713C184.157 201.393 187.734 204.541 187.734 208.452C187.734 212.363 184.157 215.51 179.713 215.51H104.273C103.948 215.51 103.677 215.749 103.677 216.035C103.677 216.321 103.948 216.56 104.273 216.56H231.47C235.914 216.56 239.491 213.412 239.491 209.501V207.45C239.437 203.492 235.86 200.344 231.47 200.344Z" fill="#2B87BA"/>
<path d="M14.1993 272.98C16.0962 276.366 25.6889 277.892 35.5525 271.644C50.4563 262.249 59.3986 265.11 59.3986 257.241C59.3986 253.712 58.5857 250.469 57.556 246.749C56.5804 243.363 56.6346 236.972 56.6346 236.972C56.6346 236.972 49.535 237.639 45.9039 237.067C43.0857 236.638 41.0804 235.684 41.0804 235.684C41.0804 235.684 40.0507 240.739 36.7448 246.081C34.4144 249.849 32.6801 252.138 28.7238 255.333C26.2308 257.289 11.0018 267.4 14.1993 272.98Z" fill="#5DC79A"/>
<path d="M165.568 212.363H107.525V211.695H165.568C165.785 211.695 165.948 211.838 165.948 212.029C165.948 212.22 165.839 212.363 165.568 212.363Z" fill="#DEBCA7"/>
<path d="M171.909 205.495H107.525V204.827H171.909C172.126 204.827 172.289 204.971 172.289 205.161C172.289 205.304 172.126 205.495 171.909 205.495Z" fill="#DEBCA7"/>
<path d="M179.009 208.786H107.525V208.118H179.009C179.226 208.118 179.388 208.261 179.388 208.452C179.388 208.643 179.171 208.786 179.009 208.786Z" fill="#DEBCA7"/>
<path d="M243.448 3.89929C248.759 8.71622 251.74 14.0101 255.045 19.9716C255.967 21.5931 261.657 18.3501 261.224 16.7286C259.489 10.3855 254.72 4.80544 249.463 0.322355C247.675 -1.10842 242.038 2.61159 243.448 3.89929Z" fill="#F3E9E1"/>
<path d="M275.64 3.32612C275.477 9.19228 274.068 14.7246 272.822 20.4477C272.226 22.9754 277.754 20.0185 278.35 18.6831C280.789 13.0554 281.493 6.6646 281.439 0.655354C281.33 -1.10927 275.694 1.5615 275.64 3.32612Z" fill="#F3E9E1"/>
<path d="M288.864 27.65C292.982 25.8853 297.156 24.1208 301.383 22.4992C302.9 21.9269 304.906 20.3531 304.472 18.6838C304.038 17.0623 301.654 17.1577 300.299 17.6823C296.126 19.3515 291.953 21.0684 287.78 22.833C286.316 23.5007 284.257 24.9315 284.69 26.6484C285.124 28.27 287.509 28.2223 288.864 27.65Z" fill="#F3E9E1"/>
<path d="M149.255 288.766H131.208C131.208 288.766 128.281 289.625 125.788 293.678C122.699 298.734 123.783 303.646 121.832 307.414C119.556 311.754 115.979 313.423 115.979 313.423C115.979 313.423 119.99 313.9 122.374 313.614C124.542 313.328 127.252 311.754 127.252 311.754C127.252 311.754 127.74 312.66 127.848 314.282C128.01 316.046 127.794 317 127.794 317C127.794 317 134.406 315.617 137.061 312.278C140.801 307.605 137.657 301.929 142.481 294.871C144.703 291.723 149.255 288.766 149.255 288.766Z" fill="#BFA990"/>
<path d="M261.007 61.2731C261.711 59.9377 259.056 57.4577 255.045 55.7885C251.035 54.1193 247.187 53.8331 246.482 55.2162C245.778 56.5516 248.433 59.0316 252.444 60.7008C256.454 62.3701 260.302 62.6085 261.007 61.2731Z" fill="#D4BFA9"/>
<path d="M247.837 52.927C249.192 50.59 250.385 48.1101 250.818 45.487C251.848 39.8593 249.951 33.3731 253.799 28.8423C256.617 25.5515 261.766 24.4069 266.372 24.8839C272.009 25.4085 277.537 28.2223 280.301 32.5623C283.065 36.95 282.577 42.9116 278.675 46.5362C275.369 49.5886 270.329 50.6378 266.806 53.4993C264.855 55.1209 263.554 57.1716 262.091 59.2224L261.603 59.8424C250.71 59.127 247.837 52.927 247.837 52.927Z" fill="#EBDBCD"/>
<path d="M266.806 43.7224C266.318 42.2439 264.855 42.387 263.554 42.9116C263.229 42.1008 262.687 41.0516 261.712 40.7654C260.628 40.4316 259.435 41.0993 258.622 41.6716C256.834 42.9593 255.479 44.867 254.72 46.7747C253.962 48.6824 253.582 50.7331 252.878 52.6408C252.607 53.4039 254.016 53.7378 254.287 52.927C255.154 50.447 255.479 47.7762 256.888 45.487C257.701 44.1993 258.893 42.7685 260.411 42.1008C260.899 41.9101 261.278 41.8147 261.603 42.2916C261.874 42.6255 262.091 43.007 262.199 43.3885C262.199 43.4362 262.254 43.4362 262.254 43.4839C262.037 43.5793 261.928 43.6747 261.766 43.7701C260.302 44.8193 258.406 46.6316 258.46 48.3962C258.514 49.207 259.11 49.8747 260.032 49.9224C261.061 49.9701 262.091 49.207 262.687 48.5393C263.879 47.2516 264.205 45.5824 263.879 44.0085C264.205 43.8178 264.53 43.7224 264.855 43.7224C265.722 43.6747 265.397 44.9624 265.288 45.3916C264.855 46.8701 263.988 48.1578 263.121 49.4455C262.47 50.3993 261.874 51.4486 261.061 52.307C260.194 53.2609 258.948 53.9286 257.809 54.644C257.051 55.0732 257.81 56.1701 258.568 55.7409C259.923 54.9301 261.278 54.1193 262.308 52.9747C263.337 51.7347 264.259 50.3516 265.126 49.0639C266.047 47.5854 267.402 45.4393 266.806 43.7224ZM262.525 46.0116C262.362 46.6793 262.037 47.347 261.495 47.8716C261.17 48.1578 259.815 49.2547 259.923 48.3008C259.977 47.7285 260.465 47.1085 260.79 46.6316C261.278 46.0116 261.874 45.4393 262.525 44.9624C262.579 45.2962 262.579 45.6777 262.525 46.0116Z" fill="#BFA990"/>
<path d="M252.444 60.6532C248.813 59.1271 246.32 57.0286 246.374 55.6455L244.802 61.2732C244.206 62.3701 246.374 64.3732 249.626 65.7086C252.878 67.044 255.967 67.2824 256.563 66.1855C256.617 66.1378 256.617 66.0901 256.617 65.9947L260.736 61.5594C259.49 62.5132 256.075 62.1794 252.444 60.6532Z" fill="#BFA990"/>
<path d="M48.8847 133.623C47.584 133.909 46.2833 133.289 45.9039 132.144L28.9406 78.7286C28.6155 77.584 29.32 76.4393 30.6207 76.1055C31.9214 75.8193 33.2221 76.4393 33.6015 77.5839L50.5648 130.999C50.9441 132.144 50.1854 133.336 48.8847 133.623Z" fill="#C5C6E3"/>
<path d="M45.7954 131.476C45.8496 130.332 46.9878 129.378 48.3427 129.473L111.264 132.716C112.565 132.764 113.649 133.766 113.54 134.958C113.486 136.103 112.348 137.057 110.993 136.961L48.0717 133.718C46.771 133.67 45.7412 132.669 45.7954 131.476Z" fill="#C5C6E3"/>
<path d="M292.766 167.579L290.002 166.912C289.839 166.864 289.731 166.721 289.785 166.578C289.839 166.435 290.002 166.339 290.164 166.387L292.278 166.912L292.874 165.052C292.928 164.909 293.091 164.813 293.254 164.861C293.416 164.909 293.525 165.052 293.47 165.195L292.766 167.579Z" fill="#EBDBCD"/>
<path d="M285.124 165.72C285.07 165.72 285.07 165.72 285.07 165.72L280.084 164.527C279.921 164.48 279.813 164.337 279.867 164.194C279.921 164.05 280.084 163.955 280.246 164.003L285.232 165.195C285.395 165.243 285.503 165.386 285.449 165.529C285.395 165.672 285.287 165.72 285.124 165.72ZM275.152 163.383C275.098 163.383 275.098 163.383 275.098 163.383L270.112 162.19C269.949 162.143 269.841 162 269.895 161.857C269.949 161.714 270.112 161.618 270.274 161.666L275.261 162.858C275.423 162.906 275.531 163.049 275.477 163.192C275.423 163.287 275.315 163.383 275.152 163.383ZM265.288 160.998C265.234 160.998 265.234 160.998 265.234 160.998L260.248 159.806C260.086 159.758 259.977 159.615 260.031 159.472C260.086 159.329 260.248 159.234 260.411 159.281L265.397 160.474C265.559 160.521 265.668 160.664 265.614 160.807C265.505 160.95 265.397 160.998 265.288 160.998Z" fill="#EBDBCD"/>
<path d="M255.316 158.661C255.262 158.661 255.262 158.661 255.262 158.661L252.498 157.993L253.257 155.561C253.311 155.418 253.474 155.323 253.636 155.37C253.799 155.418 253.907 155.561 253.853 155.704L253.257 157.564L255.371 158.089C255.533 158.136 255.642 158.28 255.587 158.423C255.533 158.566 255.425 158.661 255.316 158.661Z" fill="#EBDBCD"/>
<path d="M254.829 151.555C254.774 151.555 254.775 151.555 254.775 151.555C254.612 151.507 254.503 151.364 254.558 151.221L255.858 146.833C255.913 146.69 256.075 146.595 256.238 146.642C256.4 146.69 256.509 146.833 256.455 146.976L255.154 151.364C255.1 151.459 254.991 151.555 254.829 151.555ZM257.538 142.827C257.484 142.827 257.484 142.827 257.484 142.827C257.322 142.779 257.213 142.636 257.267 142.493L258.568 138.106C258.622 137.962 258.785 137.867 258.948 137.915C259.11 137.962 259.219 138.105 259.164 138.249L257.864 142.636C257.809 142.732 257.701 142.827 257.538 142.827Z" fill="#EBDBCD"/>
<path d="M260.194 134.052C260.14 134.052 260.14 134.052 260.14 134.052C259.977 134.004 259.869 133.861 259.923 133.718L260.682 131.286L263.446 131.953C263.608 132.001 263.717 132.144 263.662 132.287C263.608 132.43 263.446 132.526 263.283 132.478L261.17 131.953L260.573 133.813C260.465 134.004 260.357 134.052 260.194 134.052Z" fill="#EBDBCD"/>
<path d="M293.145 139.584C293.091 139.584 293.091 139.584 293.091 139.584L288.105 138.392C287.942 138.344 287.834 138.201 287.888 138.058C287.942 137.915 288.105 137.82 288.268 137.868L293.254 139.06C293.416 139.108 293.525 139.251 293.47 139.394C293.416 139.489 293.308 139.584 293.145 139.584ZM283.227 137.2C283.173 137.2 283.173 137.2 283.173 137.2L278.187 136.007C278.025 135.96 277.916 135.817 277.97 135.674C278.025 135.531 278.187 135.435 278.35 135.483L283.336 136.675C283.498 136.723 283.607 136.866 283.553 137.009C283.498 137.152 283.336 137.2 283.227 137.2ZM273.255 134.863C273.201 134.863 273.201 134.863 273.201 134.863L268.215 133.671C268.053 133.623 267.944 133.48 267.998 133.337C268.053 133.194 268.215 133.098 268.378 133.146L273.364 134.338C273.526 134.386 273.635 134.529 273.581 134.672C273.526 134.767 273.418 134.863 273.255 134.863Z" fill="#EBDBCD"/>
<path d="M299.92 143.495C299.866 143.495 299.865 143.495 299.865 143.495C299.703 143.448 299.595 143.304 299.649 143.161L300.245 141.301L298.131 140.777C297.969 140.729 297.86 140.586 297.914 140.443C297.969 140.3 298.131 140.204 298.294 140.252L301.058 140.92L300.299 143.352C300.191 143.448 300.028 143.495 299.92 143.495Z" fill="#EBDBCD"/>
<path d="M294.554 160.998C294.5 160.998 294.5 160.998 294.5 160.998C294.338 160.95 294.229 160.807 294.283 160.664L295.584 156.277C295.638 156.134 295.801 156.038 295.963 156.086C296.126 156.134 296.234 156.277 296.18 156.42L294.879 160.807C294.825 160.903 294.663 160.998 294.554 160.998ZM297.264 152.27C297.21 152.27 297.21 152.27 297.21 152.27C297.047 152.223 296.939 152.08 296.993 151.937L298.294 147.549C298.348 147.406 298.511 147.31 298.673 147.358C298.836 147.406 298.944 147.549 298.89 147.692L297.589 152.08C297.535 152.175 297.372 152.27 297.264 152.27Z" fill="#EBDBCD"/>
<path d="M185.729 144.83C177.925 144.21 171.801 142.875 168.007 141.873C173.481 144.735 180.039 146.738 187.247 147.406C191.636 147.835 195.972 147.739 199.983 147.215C199.928 146.309 199.928 145.498 199.928 144.783C196.189 145.164 191.257 145.307 185.729 144.83Z" fill="#F0A173"/>
<path d="M5.90734 65.1366C5.79895 65.1366 5.69056 65.0889 5.63636 65.0412C5.1486 64.4212 4.76927 63.7535 4.3899 63.0381C4.3357 62.895 4.38986 62.7519 4.55245 62.6566C4.71503 62.6089 4.87765 62.6566 4.98604 62.7997C5.31121 63.4673 5.69056 64.135 6.17832 64.7074C6.28671 64.8504 6.23253 64.9935 6.12414 65.0889C6.06994 65.1365 5.96154 65.1366 5.90734 65.1366Z" fill="#EBDBCD"/>
<path d="M3.68533 58.6978C3.52274 58.6978 3.36017 58.5547 3.36017 58.4116V58.2685C3.36017 56.7424 3.63116 55.2639 4.11892 53.7378C4.17312 53.5947 4.33568 53.4993 4.49827 53.547C4.66085 53.5947 4.76926 53.7377 4.71506 53.8808C4.2273 55.3116 3.95631 56.7901 3.95631 58.2209V58.3162C4.0105 58.5547 3.84792 58.6978 3.68533 58.6978ZM6.72028 49.97C6.66609 49.97 6.61193 49.9701 6.55773 49.9224C6.39515 49.8747 6.3409 49.6839 6.50348 49.5408C7.42481 48.3008 8.50877 47.0608 9.86366 45.9162C9.97205 45.8208 10.1888 45.8208 10.2972 45.9162C10.4056 46.0116 10.4056 46.2024 10.2972 46.2978C8.99649 47.4424 7.91258 48.6346 7.04544 49.8269C6.93705 49.9223 6.88287 49.97 6.72028 49.97ZM14.0367 43.3885C13.9825 43.3885 13.8199 43.3408 13.8199 43.2931C13.7115 43.15 13.7658 43.0069 13.8742 42.9115C14.7413 42.3392 15.6626 41.7669 16.6923 41.1469C17.1801 40.8608 17.7221 40.5269 18.264 40.2408C18.4266 40.1931 18.5891 40.1931 18.6975 40.2885C18.7517 40.4315 18.7517 40.5746 18.6434 40.67C18.1556 40.9562 17.6136 41.2423 17.0717 41.5762C16.0419 42.1485 15.1748 42.7208 14.3077 43.3408C14.1451 43.3408 14.0909 43.3885 14.0367 43.3885ZM22.7622 38.2377C22.6538 38.2377 22.5454 38.19 22.4912 38.0946C22.437 37.9515 22.4371 37.8085 22.5455 37.7131C24.2798 36.7116 25.6346 35.9008 26.7727 35.0423C26.8811 34.9469 27.0979 34.9946 27.2063 35.09C27.3147 35.1854 27.2605 35.3762 27.1521 35.4715C25.9598 36.33 24.6049 37.1408 22.8165 38.19C22.8707 38.2377 22.8164 38.2377 22.7622 38.2377ZM40.9178 35.4715C40.7552 35.4715 40.5927 35.3285 40.5927 35.1854C40.5927 35.0423 40.701 34.8993 40.9178 34.8993C42.6521 34.8516 44.3321 34.7084 46.0664 34.3269C46.229 34.2792 46.3916 34.3746 46.4458 34.5177C46.5 34.6608 46.3916 34.8039 46.229 34.8516C44.4406 35.2331 42.6521 35.4238 40.9178 35.4715ZM35.715 35.0423C35.6608 35.0423 35.6608 35.0423 35.6608 35.0423C33.9266 34.7561 32.1923 34.2793 30.6206 33.6593C30.458 33.6116 30.4039 33.4208 30.4581 33.2777C30.5123 33.1346 30.729 33.0869 30.8916 33.1346C32.4633 33.7546 34.1434 34.1838 35.8235 34.5177C35.986 34.5654 36.0944 34.7085 36.0402 34.8516C35.986 34.947 35.8776 35.0423 35.715 35.0423ZM51.1066 33.4685C50.9983 33.4685 50.8899 33.4208 50.8357 33.2777C50.7815 33.1346 50.8357 32.9915 50.9983 32.8961C52.5158 32.3238 54.0332 31.6085 55.6049 30.7977C55.7675 30.75 55.9301 30.75 56.0385 30.8931C56.0926 31.0362 56.0927 31.1793 55.9301 31.2746C54.3042 32.1331 52.7867 32.8008 51.215 33.3731C51.1608 33.4208 51.1066 33.4685 51.1066 33.4685ZM30.7832 32.3715C30.729 32.3715 30.6206 32.3238 30.5664 32.3238C30.458 32.2285 30.4039 32.0377 30.5122 31.9423C31.7046 30.75 32.5717 29.4623 33.2762 28.1269C33.3304 27.9838 33.5472 27.9362 33.7098 27.9839C33.8724 28.0315 33.9266 28.2223 33.8724 28.3654C33.1678 29.7484 32.1923 31.0838 31.0542 32.3238C30.9458 32.3715 30.8916 32.3715 30.7832 32.3715ZM26.2308 31.2746C26.1766 31.2746 26.0682 31.2269 26.014 31.2269C24.5507 30.1777 23.3584 29.0331 22.4371 27.7454C22.3829 27.6023 22.3829 27.4592 22.5455 27.3638C22.7081 27.3161 22.8706 27.3162 22.979 27.4592C23.8462 28.6992 24.9843 29.7962 26.3934 30.7977C26.5018 30.8931 26.556 31.0838 26.4476 31.1792C26.3934 31.2746 26.285 31.2746 26.2308 31.2746ZM60.1031 28.7469C59.9947 28.7469 59.8864 28.6992 59.8322 28.6516C59.7238 28.5085 59.7779 28.3654 59.8863 28.27C61.187 27.4592 62.4336 26.6485 63.5717 25.79L64.0595 25.4561C64.222 25.3607 64.3846 25.4084 64.493 25.5038C64.5472 25.5992 64.5472 25.79 64.4388 25.8854L63.951 26.2192C62.7587 27.03 61.5664 27.8408 60.2658 28.6992C60.2116 28.7469 60.1573 28.7469 60.1031 28.7469ZM34.9021 24.0254C34.6853 24.0254 34.5769 23.8823 34.5769 23.7392C34.5769 23.5484 34.5769 23.4054 34.5769 23.2146C34.5769 22.5946 34.5227 21.9746 34.3601 21.3546C34.1975 20.6869 33.9808 20.0192 33.6014 19.3515C33.5472 19.2085 33.6014 19.0654 33.764 18.97C33.9266 18.9223 34.0892 18.97 34.1976 19.1131C34.577 19.7808 34.8479 20.4961 35.0105 21.2115C35.1731 21.8315 35.2273 22.4992 35.2273 23.1669C35.2273 23.3577 35.2273 23.5484 35.2273 23.7392C35.1731 23.93 35.0105 24.0254 34.9021 24.0254ZM20.9196 23.5484C20.757 23.5484 20.5944 23.453 20.5944 23.31C20.5402 23.0238 20.5402 22.6423 20.5402 22.3561C20.5402 21.0684 20.8654 19.7808 21.4073 18.6838C21.4615 18.5408 21.6783 18.493 21.8409 18.5407C22.0035 18.5884 22.0577 18.7792 22.0035 18.9223C21.4616 19.9715 21.1906 21.1638 21.1906 22.4038C21.1906 22.69 21.1906 23.0238 21.2448 23.31C21.299 23.4054 21.1364 23.5484 20.9196 23.5484C20.9738 23.5484 20.9738 23.5484 20.9196 23.5484ZM30.3496 16.2038C30.2954 16.2038 30.2413 16.2038 30.1871 16.1561C28.8864 15.4884 27.5315 15.2977 26.2308 15.5838C25.9598 15.6315 25.6888 15.7269 25.4178 15.7746C25.2552 15.8223 25.0927 15.7746 25.0385 15.5838C24.9843 15.4407 25.0385 15.2976 25.2553 15.2499C25.5263 15.1546 25.8514 15.0592 26.1224 15.0115C27.5857 14.7253 29.1031 14.9638 30.5664 15.6792C30.729 15.7269 30.7833 15.9177 30.6749 16.0607C30.5665 16.1561 30.458 16.2038 30.3496 16.2038Z" fill="#EBDBCD"/>
<path d="M68.5577 23.2625C68.4493 23.2625 68.3409 23.2148 68.2867 23.1194C68.2325 22.9764 68.2326 22.8333 68.3952 22.7379C69.3165 22.261 70.0752 21.9272 70.7798 21.7364C70.9424 21.6887 71.1049 21.7841 71.1591 21.9271C71.2133 22.0702 71.1049 22.2133 70.9423 22.261C70.3462 22.4518 69.5875 22.6903 68.7203 23.1672C68.7203 23.2626 68.6661 23.2625 68.5577 23.2625Z" fill="#EBDBCD"/>
</svg>
