<svg width="310" height="290" viewBox="0 0 310 290" fill="none" xmlns="http://www.w3.org/2000/svg">
<g clip-path="url(#clip0)">
<path d="M159.699 13.019C159.662 13.019 159.662 12.9861 159.626 12.9861L147.864 5.89658C147.614 5.69552 147.327 5.56212 147.077 5.39488C146.304 5.00524 145.434 4.81248 144.556 4.83589C143.677 4.8593 142.821 5.09806 142.072 5.52828L54.3006 54.5924C52.792 55.4353 51.5438 56.6309 50.6787 58.0617C49.8136 59.4925 49.3614 61.1092 49.3665 62.753V267.274C49.3612 268.109 49.5894 268.931 50.0284 269.658C50.4674 270.386 51.102 270.993 51.8692 271.421L63.4177 278.381C64.2372 279.007 65.2433 279.382 66.2989 279.454C67.3545 279.526 68.4081 279.292 69.316 278.783L157.517 229.45C158.883 228.686 160.013 227.603 160.797 226.307C161.58 225.012 161.99 223.547 161.986 222.059V17.0326C161.995 16.2379 161.789 15.454 161.39 14.7528C160.99 14.0515 160.409 13.4554 159.699 13.019Z" fill="#46BCFF" stroke="#46BCFF" stroke-width="0.346" stroke-miterlimit="10"/>
<path d="M157.052 15.5633L69.316 64.6265C67.8071 65.4697 66.5589 66.6658 65.6939 68.0971C64.829 69.5285 64.3771 71.1458 64.3829 72.79V277.307C64.3833 278.159 64.6248 278.995 65.0829 279.732C65.541 280.468 66.1993 281.078 66.9909 281.5C67.7825 281.921 68.6793 282.139 69.59 282.131C70.5008 282.123 71.3931 281.89 72.1763 281.455L160.373 232.122C161.739 231.358 162.87 230.275 163.653 228.979C164.437 227.683 164.846 226.219 164.842 224.731V19.7084C164.841 18.857 164.599 18.0211 164.141 17.2855C163.683 16.5499 163.025 15.9407 162.234 15.5198C161.443 15.0989 160.547 14.8812 159.637 14.8889C158.727 14.8965 157.835 15.1292 157.052 15.5633Z" fill="#3E9FF8" stroke="#3E9FF8" stroke-width="0.346" stroke-miterlimit="10"/>
<path d="M150.832 204.964L81.6509 242.992C81.1012 243.297 80.4752 243.46 79.8364 243.465C79.1975 243.47 78.5685 243.317 78.0132 243.022C77.4578 242.727 76.9958 242.299 76.6739 241.783C76.3521 241.267 76.1818 240.68 76.1804 240.082V228.744C76.186 227.889 76.4255 227.049 76.8763 226.304C77.327 225.56 77.9739 224.935 78.7555 224.491L147.935 186.43C148.485 186.126 149.111 185.963 149.75 185.957C150.388 185.952 151.017 186.105 151.573 186.4C152.128 186.696 152.59 187.123 152.912 187.639C153.234 188.156 153.404 188.742 153.406 189.34V200.68C153.404 201.541 153.167 202.386 152.716 203.137C152.266 203.887 151.617 204.516 150.832 204.964Z" fill="white" stroke="white" stroke-width="0.346" stroke-miterlimit="10"/>
<path d="M115.401 75.2619L79.7558 94.9268C79.2833 95.1852 78.7463 95.3224 78.199 95.3247C77.6517 95.327 77.1135 95.1942 76.6385 94.9398C76.1636 94.6854 75.7688 94.3184 75.4939 93.8757C75.2189 93.433 75.0737 92.9303 75.0727 92.4183V73.7229C75.0709 73.2155 75.2121 72.7165 75.482 72.2763C75.752 71.8361 76.1411 71.4702 76.6103 71.2154L112.26 51.5486C112.733 51.2902 113.27 51.153 113.817 51.1507C114.364 51.1484 114.903 51.2811 115.378 51.5355C115.852 51.7899 116.247 52.157 116.522 52.5997C116.797 53.0424 116.942 53.5451 116.943 54.0571V72.7534C116.949 73.2623 116.809 73.7633 116.538 74.2045C116.266 74.6456 115.874 75.0107 115.401 75.2619Z" fill="#A4D2FC" stroke="#A4D2FC" stroke-width="0.346" stroke-miterlimit="10"/>
<path d="M139.427 144.461L85.1549 174.796C84.5875 175.113 83.9399 175.284 83.2786 175.291C82.6173 175.298 81.9659 175.14 81.3912 174.834C80.8165 174.528 80.339 174.084 80.0077 173.549C79.6764 173.013 79.5032 172.405 79.5057 171.786V115.597C79.5069 113.946 79.9653 112.324 80.8362 110.888C81.707 109.452 82.9607 108.251 84.475 107.404L138.748 77.0676C139.315 76.75 139.963 76.5793 140.624 76.5727C141.285 76.5662 141.937 76.7241 142.511 77.0303C143.086 77.3365 143.563 77.7801 143.894 78.3155C144.225 78.851 144.399 79.4592 144.396 80.0778V136.233C144.395 137.889 143.937 139.516 143.066 140.958C142.196 142.399 140.942 143.606 139.427 144.461Z" fill="white" stroke="white" stroke-width="0.346" stroke-miterlimit="10"/>
<path d="M130.417 180.181C130.488 179.445 130.52 178.676 130.596 177.94C130.667 177.271 130.811 176.602 130.811 175.933C130.781 175.615 130.628 175.318 130.381 175.097C130.023 174.763 129.523 174.562 129.166 174.227C129.019 174.147 128.897 174.032 128.812 173.894C128.727 173.756 128.683 173.6 128.683 173.441C128.683 173.282 128.727 173.126 128.812 172.988C128.897 172.85 129.019 172.735 129.166 172.655C129.809 172.121 130.488 171.652 131.129 171.184C131.675 170.819 132.068 170.286 132.238 169.679C132.523 168.474 132.917 167.304 133.31 166.133C133.382 165.933 133.632 165.766 133.81 165.599C133.952 165.746 134.084 165.902 134.203 166.066C134.55 166.697 134.86 167.345 135.133 168.007C135.312 168.474 135.598 168.541 136.063 168.374C136.599 168.174 137.171 167.906 137.743 167.739C138.048 167.672 138.36 167.639 138.673 167.642C138.688 167.934 138.665 168.226 138.602 168.512C138.233 169.337 137.791 170.131 137.279 170.886C136.627 171.938 136.434 173.185 136.743 174.366C136.814 174.901 136.958 175.436 137.029 175.971C137.133 176.774 136.743 177.109 135.921 176.974C135.812 176.98 135.704 176.969 135.599 176.941C133.383 176.573 133.99 176.406 132.56 178.112C132.095 178.681 131.666 179.249 131.201 179.817C131.043 179.971 130.876 180.116 130.701 180.252C130.596 180.214 130.524 180.214 130.417 180.181Z" fill="#FFC37D"/>
<path d="M118.618 186.836C118.577 186.604 118.553 186.37 118.547 186.134C118.65 185.168 118.726 184.194 118.905 183.224C118.988 182.852 118.934 182.464 118.753 182.124C118.571 181.785 118.272 181.512 117.903 181.351C116.367 180.415 116.367 179.947 117.832 178.91C118.387 178.557 118.913 178.166 119.406 177.739C119.787 177.397 120.071 176.972 120.232 176.502C120.626 175.365 120.948 174.16 121.305 173.022C121.376 172.788 121.627 172.62 121.806 172.419C122.001 172.573 122.17 172.754 122.306 172.955C122.606 173.531 122.868 174.122 123.093 174.727C123.271 175.229 123.629 175.295 124.094 175.095C124.666 174.861 125.238 174.626 125.81 174.426C126.058 174.386 126.309 174.363 126.561 174.36C126.603 174.627 126.591 174.899 126.525 175.162C126.024 176.199 125.453 177.235 124.88 178.239C124.542 178.784 124.428 179.427 124.559 180.045C124.738 180.915 124.809 181.785 124.952 182.655C125.055 183.429 124.702 183.759 123.918 183.659C123.761 183.653 123.605 183.631 123.453 183.592C122.095 183.024 121.273 183.659 120.629 184.696C120.268 185.23 119.874 185.743 119.449 186.234C119.266 186.461 119.063 186.674 118.842 186.87C118.762 186.87 118.691 186.836 118.618 186.836Z" fill="#FFC37D"/>
<path d="M106.856 193.325C106.927 192.551 106.959 191.787 107.035 191.017C107.054 190.532 107.126 190.05 107.25 189.579C107.464 188.743 106.892 188.308 106.285 187.906C106.056 187.781 105.84 187.635 105.641 187.471C104.997 186.937 104.997 186.469 105.641 185.9C106.248 185.398 106.927 184.997 107.501 184.462C107.937 184.098 108.288 183.653 108.534 183.157C108.964 181.987 109.285 180.783 109.643 179.612C109.752 179.392 109.897 179.189 110.072 179.01C110.246 179.173 110.402 179.353 110.537 179.546C110.874 180.136 111.161 180.75 111.394 181.382C111.573 181.952 111.931 181.884 112.361 181.751C112.932 181.55 113.468 181.283 114.005 181.116C114.264 181.071 114.528 181.059 114.791 181.082C114.805 181.341 114.781 181.602 114.72 181.855C114.147 182.959 113.54 184.029 113.003 185.166C112.825 185.58 112.752 186.026 112.789 186.471C112.861 187.407 113.039 188.343 113.147 189.28C113.25 190.053 112.897 190.384 112.074 190.247C111.609 190.18 111.144 190.08 110.679 190.013C110.464 189.953 110.234 189.964 110.026 190.043C109.818 190.122 109.645 190.265 109.535 190.448C108.928 191.284 108.284 192.091 107.64 192.89C107.498 193.09 107.283 193.223 107.104 193.424C107.028 193.379 106.944 193.345 106.856 193.325Z" fill="#FFC37D"/>
<path d="M95.4872 199.78C95.4278 199.55 95.4037 199.314 95.4159 199.077C95.5193 197.941 95.7011 196.804 95.7735 195.666C95.7759 195.516 95.7455 195.368 95.684 195.23C95.6224 195.092 95.5312 194.967 95.4159 194.864C95.0226 194.515 94.6045 194.193 94.1646 193.897C93.5208 193.429 93.4495 193.027 94.0613 192.492C94.6601 191.966 95.293 191.475 95.9564 191.021C96.5245 190.655 96.931 190.108 97.1003 189.482C97.3865 188.379 97.7079 187.308 98.0654 186.238C98.1741 186 98.3321 185.784 98.5304 185.603C98.6966 185.784 98.8519 185.974 98.9954 186.171C99.3074 186.747 99.5834 187.339 99.8221 187.944C100.001 188.446 100.287 188.479 100.752 188.312C101.324 188.078 101.896 187.844 102.468 187.643C102.68 187.602 102.895 187.58 103.111 187.576C103.111 187.777 103.215 188.045 103.147 188.212C102.647 189.248 102.146 190.318 101.575 191.322C101.224 191.863 101.097 192.506 101.217 193.129C101.396 193.999 101.467 194.869 101.575 195.739C101.678 196.542 101.324 196.876 100.466 196.742C98.2855 196.407 98.2855 196.407 97.1054 198.147C96.6766 198.749 96.1754 199.284 95.7104 199.887C95.6298 199.81 95.5585 199.81 95.4872 199.78Z" fill="#FFC37D"/>
<path d="M87.4066 191.987C87.7641 192.76 88.1578 193.492 88.4399 194.261C88.6538 194.763 88.94 194.896 89.4732 194.663C89.9968 194.433 90.534 194.232 91.0821 194.06C91.2932 194.015 91.5109 194.004 91.7259 194.027C91.7545 194.238 91.7666 194.45 91.7621 194.663C91.7054 194.824 91.6335 194.981 91.5471 195.131C91.0821 196.067 90.5458 196.968 90.1532 197.907C89.9477 198.433 89.8506 198.99 89.8669 199.55C89.9021 200.386 90.0808 201.255 90.1883 202.091C90.2916 202.895 89.9744 203.195 89.1157 203.058C88.9106 203.042 88.7074 203.009 88.5081 202.961C87.3642 202.593 86.6843 203.058 86.1128 203.965C85.7168 204.574 85.2747 205.155 84.7902 205.705C84.6691 205.876 84.5613 206.055 84.4678 206.24C84.3644 206.173 84.2539 206.144 84.1464 206.073C84.1464 205.604 84.1102 205.136 84.1464 204.701C84.2177 203.799 84.3965 202.929 84.4326 202.026C84.4214 201.727 84.2943 201.441 84.0751 201.223C83.7176 200.889 83.2887 200.621 82.895 200.287C82.2161 199.785 82.18 199.35 82.8589 198.782C83.4675 198.28 84.0751 197.815 84.7189 197.343C85.2284 197.002 85.594 196.505 85.7522 195.939C86.0023 194.868 86.3598 193.798 86.7173 192.728C86.812 192.467 86.9445 192.219 87.111 191.992L87.4066 191.987Z" fill="#FFC37D"/>
<path d="M104.139 222.857C104 222.775 103.839 222.732 103.674 222.732C103.51 222.732 103.349 222.775 103.209 222.857L81.901 234.564C81.7047 234.667 81.5415 234.818 81.4283 235C81.3151 235.182 81.256 235.389 81.2572 235.6V238.042C81.255 238.198 81.2969 238.351 81.3785 238.487C81.4602 238.623 81.5787 238.736 81.7222 238.815C81.8655 238.889 82.0239 238.935 82.1872 238.949C82.354 238.956 82.5183 238.908 82.6522 238.815L103.961 227.109C104.157 227.005 104.32 226.855 104.433 226.673C104.546 226.49 104.605 226.283 104.604 226.073V223.631C104.606 223.475 104.565 223.321 104.483 223.186C104.401 223.05 104.283 222.937 104.139 222.857Z" fill="#3E9FF8"/>
<path d="M122.73 204.997C122.585 204.915 122.418 204.871 122.247 204.871C122.077 204.871 121.91 204.915 121.765 204.997L81.8297 227.506C81.6332 227.609 81.4698 227.76 81.3566 227.942C81.2434 228.125 81.1845 228.332 81.1859 228.543V230.985C81.1836 231.141 81.2254 231.294 81.3071 231.43C81.3888 231.566 81.5074 231.679 81.6509 231.758C81.7939 231.834 81.9524 231.879 82.1159 231.893C82.2828 231.9 82.4472 231.852 82.5809 231.758L122.516 209.249C122.712 209.146 122.875 208.996 122.989 208.813C123.102 208.631 123.16 208.424 123.159 208.213V205.771C123.18 205.617 123.151 205.46 123.074 205.321C122.997 205.183 122.877 205.07 122.73 204.997Z" fill="#3E9FF8"/>
<path d="M137.71 61.047C137.353 61.2481 136.995 61.4153 136.677 61.6164C135.139 62.4525 133.602 63.3216 132.065 64.1577C131.975 64.1982 131.903 64.268 131.863 64.3543C131.824 64.4406 131.819 64.5373 131.85 64.6266C132.013 65.3636 131.981 66.1268 131.757 66.8495C131.532 67.5723 131.122 68.2328 130.563 68.7736C130.436 68.9001 130.276 68.9925 130.099 69.0413C129.902 69.1357 129.675 69.1571 129.463 69.1011C129.25 69.0452 129.069 68.9161 128.954 68.7397C128.646 68.3061 128.507 67.7865 128.561 67.2685C128.558 66.2961 128.856 65.3437 129.419 64.526C129.669 64.153 130.012 63.843 130.42 63.6232C133.173 62.1181 135.962 60.5791 138.715 59.074C138.799 59.0412 138.872 58.9855 138.923 58.9141C138.974 58.8427 139.001 58.7587 139.001 58.6729C139.001 58.3722 139.072 58.1045 139.104 57.77C138.961 57.8367 138.853 57.9034 138.782 57.9372C135.6 59.6772 132.419 61.4491 129.236 63.1882C128.807 63.4221 128.664 63.3554 128.557 62.9204C127.771 59.6424 126.983 56.3316 126.162 53.0536C126.079 52.7946 126.095 52.517 126.205 52.2674C126.316 52.0177 126.515 51.8113 126.769 51.6829L140.712 43.8529C140.833 43.7951 140.935 43.7095 141.011 43.6041C141.086 43.4987 141.131 43.377 141.142 43.2507C141.463 40.8089 141.821 38.3671 142.175 35.9262C142.195 35.7119 142.271 35.5054 142.395 35.3246C142.52 35.1438 142.69 34.9943 142.89 34.889C143.748 34.4211 144.607 33.9223 145.464 33.4506C145.787 33.2505 146.001 33.3539 146.072 33.7184C146.102 33.9522 146.06 34.1891 145.953 34.4021C145.845 34.6151 145.676 34.7955 145.464 34.9228C144.714 35.3569 143.999 35.759 143.248 36.1602C143.178 36.1988 143.12 36.2522 143.076 36.316C143.033 36.3798 143.006 36.4522 142.998 36.5275C142.748 38.3004 142.497 40.1042 142.247 41.879C141.997 43.7156 141.71 45.5252 141.46 47.3638C141.174 49.3378 140.924 51.3446 140.634 53.3175C140.384 54.9899 140.17 56.6622 139.919 58.3684C139.919 58.4351 139.955 58.5685 140.022 58.6023C140.252 58.6599 140.459 58.7791 140.618 58.9454C140.777 59.1116 140.88 59.3176 140.916 59.538C141.095 60.2722 141.082 61.0362 140.876 61.7645C140.671 62.4927 140.279 63.1634 139.736 63.7189C139.59 63.8411 139.435 63.9529 139.272 64.0533C139.163 64.1193 139.041 64.1631 138.913 64.1819C138.785 64.2007 138.655 64.1941 138.53 64.1626C138.405 64.131 138.289 64.0752 138.188 63.9988C138.088 63.9223 138.006 63.8269 137.948 63.7189C137.705 63.3102 137.581 62.8487 137.59 62.381C137.603 61.9508 137.675 61.5158 137.71 61.047ZM140.857 45.2275C140.765 45.2787 140.669 45.3236 140.571 45.3619C136.245 47.8027 131.883 50.2107 127.557 52.6525C127.271 52.8197 127.271 52.9531 127.307 53.2209C127.878 55.596 128.451 57.9372 129.023 60.3114C129.126 60.7464 129.237 61.1814 129.381 61.6492C129.472 61.5978 129.567 61.5532 129.666 61.5158C130.417 61.1147 131.168 60.6797 131.918 60.2785C134.314 58.9406 136.709 57.6356 139.105 56.2978C139.218 56.222 139.304 56.1177 139.355 55.9971C139.459 55.3949 139.534 54.7598 139.605 54.1605C139.82 52.6892 140.034 51.2508 140.213 49.7795C140.357 48.7085 140.499 47.6384 140.678 46.5683C140.749 46.1304 140.785 45.6963 140.857 45.2275ZM138.57 61.7498C138.566 61.8511 138.578 61.9523 138.605 62.0504C138.605 62.1708 138.641 62.2888 138.711 62.3899C138.781 62.4911 138.881 62.5709 138.999 62.6198C139.117 62.6365 139.238 62.6199 139.346 62.5723C139.454 62.5246 139.545 62.4479 139.606 62.352C139.812 62.1165 139.96 61.8418 140.041 61.547C140.121 61.2523 140.131 60.9447 140.071 60.6458C140.035 60.4119 139.968 60.2108 139.714 60.1441C139.604 60.1214 139.49 60.1318 139.387 60.1738C139.284 60.2159 139.198 60.2874 139.141 60.3781C138.772 60.7512 138.568 61.2414 138.57 61.7498ZM131.027 65.8968C131.027 65.8301 130.992 65.7295 130.992 65.63C130.955 65.3951 130.888 65.1611 130.598 65.0944C130.307 65.0277 130.133 65.2278 129.99 65.3951C129.79 65.6262 129.647 65.8964 129.573 66.1858C129.499 66.4751 129.495 66.7764 129.561 67.0674C129.597 67.3013 129.704 67.5691 129.954 67.5691C130.172 67.5428 130.373 67.4485 130.527 67.3013C130.855 66.8981 131.031 66.4039 131.027 65.8968Z" fill="white"/>
<path d="M135.244 38.2035V45.2273C135.264 45.5558 135.149 45.8791 134.921 46.1302C134.876 46.1864 134.816 46.2312 134.748 46.2604C134.679 46.2896 134.604 46.3023 134.529 46.2974C134.408 46.2299 134.319 46.1227 134.279 45.9968C134.247 45.8879 134.235 45.7749 134.242 45.6623V38.8396H134.171C133.885 39.4418 133.599 40.0102 133.344 40.6115L132.594 42.2171C132.532 42.3515 132.447 42.4758 132.343 42.5854C132.129 42.7855 131.914 42.7188 131.807 42.4511C131.731 42.1479 131.767 41.8294 131.91 41.5482C132.625 40.0769 133.304 38.5718 134.019 37.1015C134.163 36.8338 134.27 36.5322 134.413 36.2654C134.628 35.8632 134.842 35.8632 135.199 36.1687C135.95 36.9043 136.629 37.64 137.416 38.3089C137.585 38.5403 137.657 38.8219 137.617 39.0998C137.578 39.3776 137.43 39.632 137.202 39.814C137.13 39.8613 137.042 39.8808 136.955 39.8684C136.868 39.856 136.79 39.8125 136.737 39.7473C136.308 39.3123 135.879 38.8773 135.414 38.4433C135.343 38.3756 135.311 38.276 135.235 38.2084L135.244 38.2035Z" fill="white"/>
<path d="M166.098 138.137L162.344 128.939L152.333 126.865C151.975 126.932 152.083 126.23 139.605 122.852C138.39 122.517 137.46 122.251 137.031 122.15C135.767 121.671 134.425 121.4 133.062 121.347C132.783 121.369 132.523 121.487 132.332 121.679C132.14 121.87 132.033 122.122 132.029 122.384C132.029 123.321 134.496 124.424 136.998 125.394C136.377 125.514 135.821 125.833 135.426 126.297C135.346 126.424 135.305 126.568 135.305 126.715C135.305 126.862 135.346 127.006 135.426 127.133C135.668 127.511 135.945 127.869 136.252 128.203C135.501 128.3 135.251 128.672 135.18 128.906C135.094 129.281 135.134 129.671 135.294 130.024C135.454 130.377 135.726 130.676 136.073 130.879C135.892 130.928 135.735 131.035 135.63 131.182C135.525 131.329 135.479 131.506 135.501 131.681C135.604 133.621 138.504 134.491 140.435 134.558C140.852 134.599 141.273 134.588 141.687 134.524C142.437 134.428 142.902 134.224 143.08 133.889C144.857 134.165 146.671 134.153 148.443 133.855C149.624 133.722 150.66 133.555 151.233 133.454L166.098 138.137Z" fill="#DA7656"/>
<path d="M141.786 124.962C140.178 125.196 137.675 126.166 138.425 127.102C139.252 128.069 145.039 127.905 147.506 127.236" fill="#DA7656"/>
<path d="M141.786 124.962C140.178 125.196 137.675 126.166 138.425 127.102C139.252 128.069 145.039 127.905 147.506 127.236" stroke="#AE504A" stroke-width="1.038" stroke-linecap="round" stroke-linejoin="round"/>
<path d="M136.245 128.277C137.503 128.858 138.805 129.35 140.142 129.749C142.537 130.049 145.111 129.681 145.147 128.105" fill="#DA7656"/>
<path d="M136.245 128.277C137.503 128.858 138.805 129.35 140.142 129.749C142.537 130.049 145.111 129.681 145.147 128.105" stroke="#AE504A" stroke-width="1.038" stroke-linecap="round" stroke-linejoin="round"/>
<path d="M135.883 130.948C137.115 131.523 138.409 131.971 139.744 132.286C142.068 132.621 144.607 132.19 143.82 131.015" fill="#DA7656"/>
<path d="M135.883 130.948C137.115 131.523 138.409 131.971 139.744 132.286C142.068 132.621 144.607 132.19 143.82 131.015" stroke="#AE504A" stroke-width="1.038" stroke-linecap="round" stroke-linejoin="round"/>
<path d="M142.68 132.955C144.11 133.959 142.966 134.126 142.966 134.126L142.68 132.955Z" fill="#DA7656"/>
<path d="M142.68 132.955C144.11 133.959 142.966 134.126 142.966 134.126" stroke="#AE504A" stroke-width="1.038" stroke-linecap="round" stroke-linejoin="round"/>
<path d="M192.018 88.1386C190.946 95.1615 169.491 101.516 173.785 83.7886C166.634 84.1231 159.484 72.0823 170.925 68.7376C165.919 65.0585 171.997 44.657 189.158 50.3429C192.376 37.9696 212.396 41.3123 211.324 51.6808C216.687 47.3308 227.77 49.3395 224.91 60.0415C235.279 58.3701 235.994 65.393 231.346 70.0755C240.284 73.0857 235.636 84.1231 228.486 82.1163C228.486 90.8163 214.184 95.494 207.035 89.1401C199.885 82.7862 192.018 88.1386 192.018 88.1386Z" fill="#AE504A"/>
<path d="M209.147 79.0414C209.504 78.4391 214.187 75.5962 214.975 78.6392C215.761 81.6494 208.539 84.1251 207.931 83.924" fill="#DA7656"/>
<path d="M209.147 79.0414C209.504 78.4391 214.187 75.5962 214.975 78.6392C215.761 81.6494 208.539 84.1251 207.931 83.924" stroke="#AE504A" stroke-width="1.038" stroke-linecap="round" stroke-linejoin="round"/>
<path d="M197.202 203.024C197.202 214.396 201.493 266.905 201.135 270.25C200.778 273.595 199.705 277.608 197.202 279.615C194.7 281.622 188.979 283.293 192.912 284.297C196.845 285.3 202.212 284.297 203.638 282.624C205.064 280.952 207.213 278.946 207.571 281.622C207.928 284.298 209.715 284.966 209.715 283.293C209.715 281.621 210.609 261.387 210.966 256.033C211.324 250.68 211.145 223.424 211.86 218.408C212.575 213.392 214.363 201.35 214.363 201.35L197.202 203.024Z" fill="#DA7656"/>
<path d="M215.793 201.357C215.121 208.078 216.616 214.834 220.083 220.755C224.374 228.447 244.037 258.883 245.825 261.224C247.613 263.565 249.4 273.265 247.613 275.941C245.825 278.616 248.328 278.616 250.115 277.279C251.903 275.941 255.836 271.593 255.478 268.579C255.121 265.565 254.763 262.558 257.623 265.234C260.484 267.91 260.484 266.237 259.411 264.899C256.712 261.34 254.206 257.657 251.903 253.862C250.473 251.186 237.245 224.096 232.955 218.411C228.664 212.726 232.955 199.011 232.955 199.011L215.793 201.357Z" fill="#DA7656"/>
<path d="M196.774 279.313C195.917 279.929 195.008 280.479 194.056 280.957C192.233 281.923 190.946 282.662 191.053 283.567C191.156 284.27 192.086 284.604 192.769 284.771C193.938 285.044 195.139 285.179 196.344 285.172C199.561 285.172 202.854 284.302 204.031 282.932C205.962 280.657 206.641 280.824 206.677 280.824C206.78 280.858 206.927 281.058 207.035 281.694C207.32 283.734 208.321 284.771 209.215 284.705C209.715 284.671 210.248 284.302 210.248 283.299C210.248 282.563 210.427 277.881 210.678 272.53C205.89 277.508 200.849 279.046 196.774 279.313Z" fill="#3C6594"/>
<path d="M250.438 277.675C252.01 276.504 256.408 271.989 256.018 268.544C255.875 267.306 255.589 265.032 255.946 264.731C255.946 264.731 256.268 264.697 257.269 265.634C258.807 267.073 259.736 267.508 260.344 267.039C260.952 266.537 260.523 265.501 259.879 264.665C258.878 263.427 254.802 257.675 252.943 254.631C252.917 257.021 252.761 259.408 252.478 261.784C251.871 267.236 250.011 269.614 247.828 271.115C247.932 273.122 247.792 274.862 247.221 275.731C246.188 277.27 246.506 278.038 246.935 278.407C247.07 278.522 247.228 278.61 247.399 278.668C247.571 278.725 247.754 278.75 247.936 278.741C248.851 278.585 249.711 278.219 250.438 277.675Z" fill="#3C6594"/>
<path d="M196.127 146.501C200.417 149.177 219.008 148.174 223.303 144.16C230.096 150.849 250.475 184.295 252.978 199.011C237.605 213.727 196.489 210.717 188.624 204.696C186.476 191.652 191.482 156.534 196.127 146.501Z" fill="#FFC37D" stroke="#FFC37D" stroke-width="0.346" stroke-miterlimit="10"/>
<path d="M203.995 196.168C208.142 196.168 208.142 190.147 203.995 190.147C199.849 190.147 199.848 196.168 203.995 196.168Z" fill="#F97F26"/>
<path d="M215.793 181.285H215.69C215.256 181.274 214.825 181.365 214.439 181.552C213.86 181.791 213.365 182.179 213.011 182.67C212.657 183.161 212.458 183.736 212.437 184.328C212.453 185.125 212.784 185.887 213.367 186.469C213.984 187.019 214.802 187.33 215.655 187.339H215.758C216.193 187.35 216.623 187.258 217.009 187.071C217.588 186.832 218.083 186.444 218.437 185.953C218.791 185.462 218.99 184.888 219.011 184.296C219.017 183.899 218.938 183.505 218.778 183.137C218.619 182.77 218.382 182.435 218.082 182.155C217.782 181.874 217.425 181.653 217.032 181.503C216.639 181.354 216.217 181.28 215.793 181.286H215.69C215.256 181.275 214.825 181.366 214.439 181.553C213.86 181.792 213.365 182.18 213.011 182.671C212.657 183.162 212.458 183.737 212.437 184.329C212.453 185.126 212.784 185.888 213.367 186.47C213.984 187.02 214.802 187.331 215.655 187.34H215.758C216.193 187.351 216.623 187.259 217.009 187.072C217.588 186.833 218.083 186.445 218.437 185.954C218.791 185.463 218.99 184.889 219.011 184.297C219.017 183.9 218.938 183.506 218.778 183.138C218.619 182.77 218.382 182.436 218.082 182.156C217.782 181.875 217.425 181.654 217.032 181.504C216.639 181.355 216.217 181.281 215.793 181.287V181.285Z" fill="#F97F26"/>
<path d="M202.565 176.602H202.387C201.952 176.591 201.521 176.683 201.135 176.87C200.556 177.109 200.061 177.497 199.707 177.988C199.352 178.479 199.153 179.053 199.133 179.645C199.149 180.442 199.481 181.205 200.063 181.787C200.68 182.336 201.498 182.647 202.35 182.657H202.533C202.968 182.668 203.399 182.576 203.785 182.389C204.364 182.149 204.859 181.762 205.213 181.271C205.568 180.78 205.766 180.205 205.787 179.613C205.793 179.217 205.714 178.823 205.554 178.455C205.395 178.087 205.158 177.753 204.858 177.473C204.558 177.192 204.201 176.971 203.808 176.821C203.415 176.672 202.994 176.598 202.57 176.603L202.565 176.602Z" fill="#F97F26"/>
<path d="M216.508 172.254C220.656 172.254 220.656 166.234 216.508 166.234C212.36 166.234 212.361 172.254 216.508 172.254Z" fill="#F97F26"/>
<path d="M230.094 180.616C234.241 180.616 234.241 174.595 230.094 174.595C225.948 174.595 225.947 180.616 230.094 180.616Z" fill="#F97F26"/>
<path d="M200.777 167.404C204.923 167.404 204.923 161.384 200.777 161.384C196.63 161.384 196.629 167.404 200.777 167.404Z" fill="#F97F26"/>
<path d="M215.793 154.528C219.941 154.528 219.941 148.508 215.793 148.508C211.645 148.508 211.646 154.528 215.793 154.528Z" fill="#F97F26"/>
<path d="M225.804 163.056V163.224C225.792 163.63 225.89 164.033 226.09 164.394C226.347 164.936 226.761 165.399 227.286 165.73C227.811 166.061 228.425 166.247 229.058 166.267C229.909 166.251 230.724 165.941 231.346 165.397C231.934 164.819 232.266 164.054 232.276 163.256V163.089C232.288 162.683 232.19 162.28 231.991 161.919C231.734 161.377 231.32 160.914 230.795 160.582C230.27 160.251 229.656 160.065 229.023 160.045C228.599 160.04 228.178 160.114 227.785 160.264C227.392 160.413 227.035 160.635 226.735 160.915C226.435 161.196 226.198 161.53 226.039 161.897C225.879 162.265 225.799 162.659 225.805 163.055L225.804 163.056Z" fill="#F97F26"/>
<path d="M204.889 153.859V153.692C204.901 153.286 204.803 152.883 204.603 152.522C204.347 151.98 203.932 151.517 203.407 151.185C202.882 150.854 202.268 150.668 201.635 150.648C200.784 150.663 199.969 150.973 199.348 151.518C198.759 152.096 198.427 152.861 198.418 153.658V153.826C198.405 154.232 198.504 154.635 198.704 154.996C198.96 155.538 199.374 156.001 199.899 156.333C200.424 156.664 201.039 156.85 201.672 156.869C202.096 156.874 202.517 156.8 202.91 156.651C203.302 156.502 203.66 156.28 203.959 156C204.259 155.719 204.496 155.385 204.656 155.018C204.816 154.65 204.895 154.256 204.889 153.859Z" fill="#F97F26"/>
<path d="M188.8 190.482H188.697C188.262 190.471 187.832 190.563 187.446 190.75C186.867 190.99 186.372 191.377 186.018 191.868C185.664 192.359 185.465 192.934 185.444 193.526C185.46 194.322 185.792 195.085 186.374 195.666C186.992 196.216 187.81 196.527 188.663 196.536H188.766C189.201 196.548 189.632 196.455 190.018 196.268C190.597 196.028 191.092 195.641 191.446 195.15C191.8 194.659 191.999 194.084 192.02 193.492C192.026 193.095 191.946 192.701 191.787 192.334C191.627 191.966 191.39 191.632 191.09 191.352C190.79 191.071 190.433 190.85 190.04 190.7C189.647 190.551 189.227 190.477 188.802 190.482H188.699C188.265 190.471 187.834 190.563 187.448 190.75C186.869 190.99 186.374 191.377 186.02 191.868C185.666 192.359 185.467 192.934 185.446 193.526C185.462 194.322 185.794 195.085 186.376 195.666C186.994 196.216 187.812 196.527 188.665 196.536H188.768C189.203 196.548 189.634 196.455 190.02 196.268C190.599 196.028 191.094 195.641 191.448 195.15C191.802 194.659 192.001 194.084 192.022 193.492C192.028 193.095 191.948 192.701 191.789 192.334C191.629 191.966 191.392 191.632 191.092 191.352C190.792 191.071 190.435 190.85 190.042 190.7C189.65 190.551 189.229 190.477 188.804 190.482H188.8Z" fill="#F97F26"/>
<path d="M188.443 176.1C192.591 176.1 192.591 170.08 188.443 170.08C184.295 170.08 184.296 176.1 188.443 176.1Z" fill="#F97F26"/>
<path d="M217.938 206.202C222.086 206.202 222.086 200.181 217.938 200.181C213.79 200.181 213.792 206.202 217.938 206.202Z" fill="#F97F26"/>
<path d="M228.307 192.657C232.454 192.657 232.454 186.637 228.307 186.637C224.16 186.637 224.159 192.657 228.307 192.657Z" fill="#F97F26"/>
<path d="M199.169 204.696H199.065C198.631 204.685 198.2 204.777 197.814 204.964C197.235 205.204 196.74 205.591 196.386 206.082C196.031 206.573 195.832 207.148 195.811 207.74C195.828 208.536 196.159 209.299 196.742 209.881C197.359 210.431 198.177 210.741 199.029 210.751H199.133C199.567 210.762 199.998 210.67 200.384 210.484C200.963 210.244 201.458 209.856 201.812 209.365C202.167 208.874 202.366 208.3 202.387 207.708C202.392 207.311 202.313 206.917 202.154 206.549C201.994 206.182 201.757 205.848 201.457 205.567C201.157 205.286 200.8 205.065 200.407 204.915C200.014 204.766 199.593 204.692 199.169 204.697H199.065C198.631 204.686 198.2 204.778 197.814 204.965C197.235 205.205 196.74 205.592 196.386 206.083C196.031 206.574 195.832 207.149 195.811 207.741C195.828 208.537 196.159 209.3 196.742 209.882C197.359 210.432 198.177 210.742 199.029 210.752H199.133C199.567 210.763 199.998 210.671 200.384 210.485C200.963 210.245 201.458 209.857 201.812 209.366C202.167 208.875 202.366 208.301 202.387 207.709C202.392 207.312 202.313 206.918 202.154 206.55C201.994 206.183 201.757 205.849 201.457 205.568C201.157 205.287 200.8 205.066 200.407 204.916C200.014 204.767 199.593 204.693 199.169 204.698V204.696Z" fill="#F97F26"/>
<path d="M239.39 202.69H239.217C238.782 202.678 238.351 202.77 237.965 202.957C237.386 203.197 236.891 203.585 236.537 204.076C236.183 204.567 235.984 205.142 235.963 205.734C235.979 206.53 236.31 207.293 236.893 207.874C237.51 208.424 238.328 208.735 239.181 208.744H239.359C239.794 208.755 240.224 208.663 240.611 208.477C241.19 208.238 241.685 207.85 242.039 207.359C242.393 206.868 242.592 206.293 242.612 205.701C242.618 205.304 242.539 204.91 242.379 204.543C242.22 204.175 241.983 203.841 241.683 203.56C241.383 203.28 241.026 203.058 240.633 202.909C240.24 202.76 239.82 202.685 239.395 202.691L239.39 202.69Z" fill="#F97F26"/>
<path d="M243.858 193.994C248.006 193.994 248.006 187.973 243.858 187.973C239.711 187.973 239.712 193.994 243.858 193.994Z" fill="#F97F26"/>
<path d="M244.216 180.95C248.364 180.95 248.364 174.93 244.216 174.93C240.068 174.93 240.069 180.95 244.216 180.95Z" fill="#F97F26"/>
<path d="M227.77 148.174H227.667C227.233 148.163 226.802 148.255 226.416 148.441C225.837 148.68 225.341 149.068 224.987 149.559C224.633 150.05 224.434 150.625 224.414 151.217C224.43 152.014 224.762 152.776 225.344 153.358C225.962 153.908 226.78 154.219 227.633 154.228H227.736C228.171 154.239 228.602 154.147 228.988 153.96C229.567 153.721 230.062 153.333 230.416 152.842C230.771 152.351 230.969 151.777 230.99 151.185C230.996 150.788 230.917 150.394 230.757 150.027C230.598 149.659 230.361 149.325 230.061 149.044C229.761 148.764 229.404 148.542 229.011 148.393C228.618 148.243 228.197 148.169 227.773 148.175H227.669C227.235 148.164 226.804 148.255 226.418 148.441C225.839 148.681 225.343 149.069 224.989 149.56C224.635 150.051 224.437 150.626 224.416 151.218C224.433 152.015 224.764 152.777 225.346 153.359C225.964 153.909 226.782 154.22 227.635 154.229H227.738C228.173 154.24 228.604 154.148 228.99 153.961C229.569 153.722 230.064 153.334 230.418 152.843C230.773 152.352 230.972 151.778 230.992 151.186C230.998 150.789 230.919 150.395 230.759 150.027C230.6 149.66 230.363 149.326 230.063 149.045C229.763 148.765 229.406 148.543 229.013 148.394C228.62 148.244 228.199 148.17 227.775 148.176L227.77 148.174Z" fill="#F97F26"/>
<path d="M233.491 147.003C234.524 149.578 234.456 162.99 234.135 168.742C234.135 170.85 228.807 175.702 229.414 177.84C230.344 179.044 231.31 176.334 232.24 175.432C233.849 173.86 230.631 183.391 230.988 183.893C231.632 184.495 232.883 182.087 232.883 182.087C232.24 183.592 231.953 184.194 232.24 184.794C232.561 185.395 235.386 182.686 235.386 182.087C234.456 184.194 233.812 184.194 234.456 184.794C235.1 185.393 238.21 181.75 238.21 181.147C237.28 183.255 236.78 183.188 237.566 183.555C238.21 183.857 240.713 180.849 241.321 177.502C241.964 174.157 240.999 172.954 240.677 169.342C240.355 165.696 242.572 156.331 242.572 152.987C242.573 150.255 242.358 147.527 241.928 144.826L233.491 147.003Z" fill="#DA7656"/>
<path d="M160.735 128.106C163.953 131.45 163.595 134.46 162.344 137.471C167.707 139.812 178.611 142.822 190.409 125.764C189.694 131.45 196.487 135.129 196.845 137.805C197.202 140.481 195.701 148.438 195.701 148.438C195.701 148.438 214.22 153.858 225.733 146.499C225.16 137.469 225.446 131.448 223.301 125.762C226.877 132.117 232.955 143.489 232.955 148.172C238.318 149.844 242.965 145.161 242.965 145.161C242.251 139.81 241.893 121.415 228.307 108.706C214.72 95.9958 196.487 100.344 192.553 104.356C188.62 108.367 180.397 121.079 175.034 125.092C169.671 129.104 160.735 128.106 160.735 128.106Z" fill="#7CB1FF" stroke="#7CB1FF" stroke-width="0.346" stroke-linecap="round" stroke-linejoin="round"/>
<path d="M205.389 92.22C205.286 92.3872 206.176 100.113 206.498 102.454C206.639 103.388 206.382 104.337 205.783 105.096C205.454 105.579 204.964 105.948 204.39 106.148C203.815 106.347 203.187 106.365 202.601 106.2C202.044 105.985 201.567 105.624 201.224 105.161C200.882 104.698 200.69 104.153 200.67 103.59L199.884 94.0586" fill="#DA7656"/>
<path d="M187.764 76.0312C187.764 76.0312 187.049 99.6102 201.707 96.4994C211.754 94.0586 210.037 76.3986 207.463 70.2119" fill="#DA7656"/>
<path d="M201.229 83.9956C201.8 83.8493 202.107 83.1963 201.914 82.5372C201.721 81.8781 201.101 81.4624 200.53 81.6088C199.959 81.7551 199.652 82.4081 199.845 83.0672C200.038 83.7263 200.657 84.142 201.229 83.9956Z" fill="#1C7AD1"/>
<path d="M196.666 86.366C196.671 87.1543 196.575 87.9403 196.38 88.7072C196.165 89.5434 197.953 88.6734 197.953 88.6734" stroke="#AE504A" stroke-width="1.038" stroke-linecap="round" stroke-linejoin="round"/>
<path d="M202.208 79.341C201.881 79.1677 201.511 79.0767 201.135 79.0767C200.759 79.0767 200.39 79.1677 200.063 79.341" stroke="#AE504A" stroke-width="1.038" stroke-linecap="round" stroke-linejoin="round"/>
<path d="M201.957 90.6133C201.85 90.9901 201.605 91.32 201.265 91.546C200.926 91.772 200.512 91.8797 200.097 91.8506" stroke="#AE504A" stroke-width="1.038" stroke-linecap="round" stroke-linejoin="round"/>
<path d="M194.011 85.1931C194.582 85.0468 194.889 84.3938 194.696 83.7347C194.503 83.0756 193.884 82.66 193.312 82.8063C192.741 82.9527 192.434 83.6056 192.627 84.2647C192.82 84.9238 193.44 85.3395 194.011 85.1931Z" fill="#1C7AD1"/>
<path d="M193.198 80.1782C192.818 80.1844 192.445 80.2794 192.114 80.4547C191.783 80.6299 191.504 80.8798 191.303 81.1816" stroke="#AE504A" stroke-width="1.038" stroke-linecap="round" stroke-linejoin="round"/>
<path d="M210.18 74.7233C205.282 78.3696 197.274 76.8645 196.88 73.7199C194.7 75.7267 181.793 77.1033 183.437 67.4994C185.082 57.8676 194.199 63.3186 194.199 63.3186C195.951 57.4326 207.856 60.4089 207.713 65.5265C212.933 64.4921 215.185 71.0142 210.18 74.7233Z" fill="#AE504A" stroke="#AE504A" stroke-width="1.038" stroke-miterlimit="10"/>
<path d="M233.848 179.445C232.776 182.121 232.705 182.522 232.561 182.823" stroke="#AE504A" stroke-width="1.038" stroke-linecap="round" stroke-linejoin="round"/>
<path d="M236.351 180.114C235.949 181.215 235.37 182.253 234.635 183.191" stroke="#AE504A" stroke-width="1.038" stroke-linecap="round" stroke-linejoin="round"/>
<path fill-rule="evenodd" clip-rule="evenodd" d="M87.5972 130.207C86.9905 128.955 87.4686 125.911 88.9667 123.461C90.4648 121.011 91.3398 118.716 93.3919 117.139C95.444 115.561 97.6585 113.906 100.571 113.987C102.546 113.963 104.516 114.242 106.423 114.818C107.224 115.04 107.951 115.51 108.523 116.174C108.96 114.763 109.614 113.449 110.456 112.289C111.513 110.722 112.91 109.48 114.515 108.682C116.487 107.678 118.602 107.069 120.763 106.884C122.665 106.697 124.575 107.142 126.25 108.164C127.987 109.273 127.886 109.36 127.971 111.125C128.262 113.766 128.69 116.387 129.255 118.973L132.127 132.599C132.376 133.785 132.613 136.861 131.964 136.917C131.315 136.972 129.867 136.049 128.483 135.87C127.099 135.69 124.252 135.494 122.645 136.601C121.038 137.709 119.675 137.978 118.704 139.322C117.733 140.666 117.391 141.953 116.506 142.366C115.695 142.744 114.317 142.424 112.531 141.603C110.746 140.781 107.574 140.869 105.38 141.603C103.186 142.336 101.922 142.941 100.569 144.287L96.434 149.784C96.434 149.784 94.6202 143.911 93.3919 142.366C92.1637 140.822 90.8993 136.289 90.1777 135.199C89.2426 133.583 88.3809 131.916 87.5956 130.204L87.5972 130.207Z" fill="#95D5F9"/>
</g>
<defs>
<clipPath id="clip0">
<rect width="310" height="290" fill="white"/>
</clipPath>
</defs>
</svg>
