<svg width="420" height="249" viewBox="0 0 420 249" fill="none" xmlns="http://www.w3.org/2000/svg">
<path d="M159.411 95.4059C159.215 95.3412 159.085 95.2117 158.954 95.0175C158.824 94.8234 158.824 94.6939 158.824 94.4997C158.824 94.2408 158.954 93.982 159.15 93.7878C159.345 93.5936 159.606 93.4642 159.867 93.4642H164.758V88.545C164.758 88.286 164.888 88.0271 165.084 87.8329C165.28 87.6387 165.541 87.5093 165.801 87.5093C166.062 87.5093 166.323 87.6387 166.519 87.8329C166.714 88.0271 166.845 88.286 166.845 88.545V95.4706H159.932C159.672 95.4706 159.541 95.4707 159.411 95.4059Z" fill="#055480"/>
<path d="M58.8528 95.3409C58.6572 95.2762 58.5267 95.1467 58.3963 94.9525C58.2659 94.7583 58.2007 94.629 58.2659 94.4348C58.2659 94.1759 58.3963 93.917 58.5267 93.7228C58.7224 93.5286 58.9832 93.3992 59.2441 93.3992H71.8301C72.0909 93.3992 72.3518 93.5286 72.5474 93.7228C72.7431 93.917 72.8083 94.1759 72.8083 94.4348C72.8083 94.6937 72.6779 94.9526 72.5474 95.1467C72.3518 95.3409 72.0909 95.4704 71.8301 95.4704H59.2441C59.1136 95.4056 58.9832 95.4057 58.8528 95.3409ZM83.9596 95.3409C83.764 95.2762 83.5684 95.0821 83.4379 94.8879C83.3075 94.6937 83.3075 94.4348 83.3727 94.2406C83.4379 94.0465 83.5683 93.7875 83.6988 93.658C83.8944 93.5286 84.09 93.464 84.3509 93.464H96.9369C97.1978 93.464 97.4586 93.5934 97.6543 93.7876C97.8499 93.9818 97.9151 94.2406 97.9151 94.4995C97.9151 94.7584 97.7847 95.0173 97.6543 95.2115C97.4586 95.4057 97.1978 95.5352 96.9369 95.5352H84.3509C84.2205 95.4057 84.0901 95.4057 83.9596 95.3409ZM109.132 95.3409C108.936 95.2762 108.74 95.0821 108.61 94.8879C108.48 94.6937 108.48 94.4348 108.545 94.2406C108.61 94.0465 108.74 93.7875 108.871 93.658C109.066 93.5286 109.262 93.464 109.523 93.464H122.109C122.37 93.464 122.631 93.5934 122.826 93.7876C123.022 93.9818 123.087 94.2406 123.087 94.4995C123.087 94.7584 122.957 95.0173 122.826 95.2115C122.631 95.4057 122.37 95.5352 122.109 95.5352H109.523C109.393 95.4057 109.262 95.4057 109.132 95.3409ZM134.239 95.3409C134.043 95.2762 133.912 95.1467 133.782 94.9525C133.652 94.7583 133.652 94.629 133.652 94.4348C133.652 94.1759 133.782 93.917 133.978 93.7228C134.173 93.5286 134.434 93.3992 134.695 93.3992H147.216C147.477 93.3992 147.738 93.5286 147.933 93.7228C148.129 93.917 148.194 94.1759 148.194 94.4348C148.194 94.6937 148.064 94.9526 147.933 95.1467C147.738 95.3409 147.477 95.4704 147.216 95.4704H134.695C134.565 95.4056 134.369 95.4057 134.239 95.3409Z" fill="#055480"/>
<path d="M39.7455 95.4059V88.4801C39.7455 88.2212 39.8759 87.9624 40.0064 87.7682C40.202 87.574 40.4629 87.4446 40.7237 87.4446C40.9846 87.4446 41.2454 87.574 41.4411 87.7682C41.6367 87.9624 41.7019 88.2212 41.7019 88.4801V93.3993H46.5929C46.8537 93.3993 47.1145 93.5288 47.3102 93.7229C47.5058 93.9171 47.6362 94.1761 47.6362 94.435C47.6362 94.6939 47.5058 94.9527 47.3102 95.1469C47.1145 95.3411 46.8537 95.4705 46.5929 95.4705H39.7455V95.4059Z" fill="#055480"/>
<path d="M40.3977 77.7355C40.202 77.6708 40.0716 77.5413 39.9412 77.3471C39.8107 77.1529 39.7455 77.0234 39.8107 76.8292V65.1786C39.8107 64.9197 39.9412 64.6609 40.0716 64.4667C40.2672 64.2725 40.5281 64.1431 40.7889 64.1431C41.0498 64.1431 41.3106 64.2725 41.5062 64.4667C41.7019 64.6609 41.7671 64.9197 41.7671 65.1786V76.8292C41.7671 77.0882 41.6367 77.3471 41.5062 77.5413C41.3106 77.7355 41.0498 77.8649 40.7889 77.8649C40.6585 77.8649 40.5281 77.8002 40.3977 77.7355ZM40.3977 54.4342C40.202 54.3695 40.0716 54.24 39.9412 54.0458C39.8107 53.8516 39.7455 53.7221 39.8107 53.528V41.8773C39.8107 41.6184 39.9412 41.3596 40.0716 41.1654C40.2672 40.9713 40.5281 40.8418 40.7889 40.8418C41.0498 40.8418 41.3106 40.9713 41.5062 41.1654C41.7019 41.3596 41.7671 41.6184 41.7671 41.8773V53.528C41.7671 53.7869 41.6367 54.0458 41.5062 54.24C41.3106 54.4342 41.0498 54.5636 40.7889 54.5636C40.6585 54.4989 40.5281 54.4989 40.3977 54.4342ZM40.3977 31.1329C40.202 31.0682 40.0716 30.9387 39.9412 30.7445C39.8107 30.5503 39.7455 30.4209 39.8107 30.2267V18.576C39.8107 18.3171 39.9412 18.0583 40.0716 17.8642C40.2672 17.67 40.5281 17.5405 40.7889 17.5405C41.0498 17.5405 41.3106 17.67 41.5062 17.8642C41.7019 18.0583 41.7671 18.3171 41.7671 18.576V30.2267C41.7671 30.4856 41.6367 30.7446 41.5062 30.9387C41.3106 31.1329 41.0498 31.2624 40.7889 31.2624C40.6585 31.1976 40.5281 31.1977 40.3977 31.1329Z" fill="#055480"/>
<path d="M40.3977 7.83188C40.202 7.76716 40.0716 7.63764 39.9412 7.44346C39.8107 7.24929 39.7455 7.1198 39.7455 6.92563V0H46.6581C46.9189 0 47.1797 0.129452 47.3754 0.323629C47.571 0.517806 47.7014 0.776772 47.7014 1.03568C47.7014 1.29458 47.571 1.55339 47.3754 1.74756C47.1797 1.94174 46.9189 2.07119 46.6581 2.07119H41.7671V6.99042C41.7671 7.24932 41.6367 7.50828 41.5063 7.70246C41.3106 7.89664 41.0498 8.02609 40.7889 8.02609C40.7237 7.89664 40.5281 7.83188 40.3977 7.83188Z" fill="#055480"/>
<path d="M58.918 1.94193C58.7224 1.87721 58.5267 1.68306 58.3963 1.48888C58.2659 1.29471 58.2659 1.0358 58.2659 0.841626C58.3311 0.582723 58.4615 0.388609 58.6572 0.259158C58.8528 0.129706 59.0484 0.0649486 59.3093 0.0649486H71.8953C72.1562 0.0649486 72.417 0.1944 72.6126 0.388577C72.8083 0.582755 72.9387 0.841563 72.9387 1.10047C72.9387 1.35937 72.8083 1.61834 72.6126 1.81251C72.417 2.00669 72.1562 2.13614 71.8953 2.13614H59.3093C59.1789 2.00669 59.0484 1.94193 58.918 1.94193ZM84.0248 2.00672C83.8944 2.00672 83.764 1.94203 83.6336 1.8773C83.5031 1.81258 83.4379 1.68303 83.3727 1.6183C83.2423 1.42413 83.1771 1.10053 83.2423 0.841626C83.3075 0.582723 83.4379 0.32382 83.6988 0.194369C83.8944 0.064917 84.2205 0.000222836 84.4813 0.0649486H97.0673C97.3282 0.0649486 97.5891 0.1944 97.7847 0.388577C97.9803 0.582755 98.1108 0.841563 98.1108 1.10047C98.1108 1.35937 97.9803 1.61834 97.7847 1.81251C97.5891 2.00669 97.3282 2.13614 97.0673 2.13614H84.4813C84.2857 2.00669 84.1553 2.00672 84.0248 2.00672ZM109.197 2.00672C109.001 1.942 108.871 1.81248 108.74 1.6183C108.61 1.42413 108.61 1.29464 108.61 1.10047C108.61 0.841563 108.74 0.582755 108.936 0.388577C109.132 0.1944 109.393 0.0649486 109.653 0.0649486H122.239C122.5 0.0649486 122.761 0.1944 122.957 0.388577C123.152 0.582755 123.218 0.841563 123.218 1.10047C123.218 1.35937 123.087 1.61834 122.957 1.81251C122.761 2.00669 122.5 2.13614 122.239 2.13614H109.653C109.458 2.07142 109.327 2.07145 109.197 2.00672ZM134.304 2.00672C134.108 1.942 133.978 1.81248 133.847 1.6183C133.717 1.42413 133.717 1.29464 133.717 1.10047C133.717 0.841563 133.847 0.582755 134.043 0.388577C134.239 0.1944 134.499 0.0649486 134.76 0.0649486H147.346C147.607 0.0649486 147.868 0.1944 148.064 0.388577C148.259 0.582755 148.324 0.841563 148.324 1.10047C148.324 1.35937 148.194 1.61834 148.064 1.81251C147.868 2.00669 147.607 2.13614 147.346 2.13614H134.695C134.565 2.07142 134.434 2.00672 134.304 2.00672Z" fill="#055480"/>
<path d="M165.345 7.89651C165.149 7.83179 165.019 7.70243 164.888 7.50825C164.758 7.31408 164.758 7.18459 164.758 6.99042V2.07119H159.867C159.606 2.07119 159.345 1.94174 159.15 1.74756C158.954 1.55339 158.824 1.29458 158.824 1.03568C158.824 0.776772 158.954 0.517806 159.15 0.323629C159.345 0.129452 159.606 0 159.867 0H166.78V6.92563C166.78 7.18453 166.649 7.4435 166.519 7.63767C166.323 7.83185 166.062 7.9613 165.801 7.9613C165.671 7.9613 165.475 7.96124 165.345 7.89651Z" fill="#055480"/>
<path d="M165.345 77.8652C165.149 77.8005 165.019 77.671 164.888 77.4768C164.758 77.2826 164.693 77.1533 164.693 76.9591V65.3085C164.693 65.0496 164.823 64.7906 165.019 64.5964C165.215 64.4023 165.475 64.2728 165.736 64.2728C165.997 64.2728 166.258 64.4023 166.454 64.5964C166.649 64.7906 166.78 65.0496 166.78 65.3085V77.0238C166.78 77.2827 166.649 77.5416 166.454 77.7358C166.258 77.93 165.997 78.0594 165.736 78.0594C165.606 77.93 165.475 77.93 165.345 77.8652ZM165.345 54.4992C165.149 54.4344 165.019 54.3051 164.888 54.1109C164.758 53.9167 164.693 53.7872 164.693 53.5931V41.9424C164.693 41.6835 164.823 41.4246 165.019 41.2304C165.215 41.0362 165.475 40.9067 165.736 40.9067C165.997 40.9067 166.258 41.0362 166.454 41.2304C166.649 41.4246 166.78 41.6835 166.78 41.9424V53.5931C166.78 53.852 166.649 54.1109 166.454 54.3051C166.258 54.4993 165.997 54.6287 165.736 54.6287C165.606 54.6287 165.475 54.5639 165.345 54.4992ZM165.345 31.1979C165.149 31.1332 165.019 31.0038 164.888 30.8096C164.758 30.6154 164.693 30.486 164.693 30.2918V18.6411C164.693 18.3822 164.823 18.1233 165.019 17.9291C165.215 17.7349 165.475 17.6055 165.736 17.6055C165.997 17.6055 166.258 17.7349 166.454 17.9291C166.649 18.1233 166.78 18.3822 166.78 18.6411V30.2918C166.78 30.5507 166.649 30.8097 166.454 31.0038C166.258 31.198 165.997 31.3275 165.736 31.3275C165.606 31.2627 165.475 31.2626 165.345 31.1979Z" fill="#055480"/>
<path d="M7.26965 65.9557L8.05221 65.8261C8.96518 65.632 9.94338 65.7615 10.7911 66.2146C11.6389 66.6676 12.291 67.3796 12.6171 68.2857L18.1602 83.6905C18.2254 83.8847 18.2906 84.0789 18.2906 84.3378C16.3994 85.8912 14.1822 86.9269 11.7693 87.3152C9.61732 87.7036 7.40007 87.5093 5.31327 86.9268C5.31327 86.7326 5.24808 86.5385 5.24808 86.3443L4.00902 70.0333C3.94381 69.0624 4.2699 68.1563 4.85682 67.4443C5.50894 66.6676 6.35667 66.1499 7.26965 65.9557Z" fill="#D7DDE6"/>
<path d="M7.00886 42.6544C6.87843 42.4603 6.6828 42.266 6.48716 42.1366C6.29153 42.0071 6.03065 41.9424 5.7698 41.9424C5.50895 41.9424 5.31333 42.0071 5.05248 42.1366C4.85684 42.266 4.66121 42.4603 4.53079 42.6544C3.68302 44.3373 2.57438 46.5379 1.72661 47.9619C0.226726 50.4862 -0.425368 56.5704 0.29197 59.2889C1.20495 62.1369 2.57438 64.8553 4.33512 67.3149C4.46554 67.509 4.72639 67.7032 4.98724 67.7679C6.29149 68.1563 7.59575 68.1563 8.9 67.8327C11.4433 67.2502 11.7042 65.5673 11.7042 65.5673C11.7042 65.5673 13.1388 59.9362 12.9432 56.5705C12.6823 53.2047 10.8564 48.7386 10.0739 47.9619C8.96524 46.279 7.92183 44.5315 7.00886 42.6544Z" fill="#C7905D"/>
<path d="M27.7464 145.439L18.4862 85.3732C18.421 85.0496 18.3558 84.726 18.2906 84.4023C16.4647 85.891 14.2474 86.9266 11.8346 87.315C9.74776 87.6386 7.53056 87.5091 5.50897 86.9266C5.50897 87.3149 5.57418 87.7033 5.7046 88.0269L20.0514 147.057C20.3774 147.963 21.0295 148.675 21.8773 149.128C22.7251 149.581 23.6381 149.711 24.6162 149.516C25.5292 149.322 26.377 148.804 26.9639 148.092C27.4204 147.316 27.7464 146.41 27.7464 145.439Z" fill="#2B7EBA"/>
<path d="M24.9423 151.394L43.7235 152.753L52.0707 38.7707L33.2895 37.4114L24.9423 151.394Z" fill="#DADAED"/>
<path d="M44.5061 53.593L44.3757 54.9523L50.8317 55.4054L50.9621 54.0461L44.5061 53.593Z" fill="#98C0D7"/>
<path d="M43.593 66.085L43.5278 67.4441L49.9839 67.8973L50.0491 66.538L43.593 66.085Z" fill="#98C0D7"/>
<path d="M42.6149 79.0947L42.4845 80.454L48.9406 80.9071L49.071 79.5479L42.6149 79.0947Z" fill="#98C0D7"/>
<path d="M41.7019 91.8462L41.5715 93.2053L48.0275 93.6584L48.1579 92.2992L41.7019 91.8462Z" fill="#98C0D7"/>
<path d="M40.789 104.597L40.6586 105.956L47.1146 106.409L47.2451 105.05L40.789 104.597Z" fill="#98C0D7"/>
<path d="M39.8108 117.348L39.6804 118.707L46.1364 119.16L46.2669 117.801L39.8108 117.348Z" fill="#98C0D7"/>
<path d="M38.8978 130.099L38.7674 131.458L45.2234 131.911L45.3538 130.552L38.8978 130.099Z" fill="#98C0D7"/>
<path d="M36.6153 166.669L48.6144 168.74L64.3959 78.7067L52.3967 76.6355L36.6153 166.669Z" fill="#FFADB2"/>
<path d="M52.462 76.6354L64.4611 78.7065L62.57 61.4894L60.0919 61.0364L52.462 76.6354Z" fill="#EBDBCD"/>
<path d="M61.7874 69.4506L60.0267 68.2855L58.592 68.4797L56.8312 67.5737L59.9615 61.1011L62.4395 61.5541L63.2221 68.4797L61.7874 69.4506Z" fill="#FFB27A"/>
<path d="M60.8091 108.804H8.31304C7.98697 108.804 7.66089 108.869 7.40004 108.998C7.07398 109.128 6.81312 109.322 6.61749 109.581C6.42185 109.84 6.22624 110.099 6.16103 110.422C6.09582 110.746 6.03058 111.07 6.09579 111.393L13.0735 167.381C13.204 168.611 13.8561 169.776 14.7691 170.617C15.7472 171.459 16.9211 171.912 18.2254 171.912H51.0925C52.3315 171.912 53.5705 171.459 54.5487 170.617C55.5269 169.776 56.1138 168.611 56.2443 167.381L63.0263 111.393C63.0916 111.07 63.0264 110.746 62.9612 110.487C62.8959 110.163 62.7003 109.905 62.5047 109.646C62.309 109.387 62.0482 109.192 61.7221 109.063C61.4612 108.869 61.1352 108.804 60.8091 108.804Z" fill="#FFB27A"/>
<path d="M316.573 16.7642H104.828C97.3283 16.7642 91.1983 22.8484 91.1983 30.3566V163.951C91.1983 171.459 97.3283 177.543 104.828 177.543H316.573C324.072 177.543 330.202 171.459 330.202 163.951V30.3566C330.202 22.8484 324.138 16.7642 316.573 16.7642Z" fill="#B3CFDE"/>
<path d="M317.551 25.3726H103.85C101.828 25.3726 100.263 26.9908 100.263 28.9973V162.462C100.263 164.468 101.893 166.087 103.85 166.087H317.551C319.573 166.087 321.138 164.468 321.138 162.462V28.9973C321.138 26.9908 319.507 25.3726 317.551 25.3726Z" fill="#E8EAF7"/>
<path d="M356.287 242.139H65.1132C63.6785 242.139 62.3091 241.751 61.07 241.104C59.831 240.392 58.7876 239.421 58.0703 238.191C57.3529 236.961 56.9616 235.602 56.8964 234.178C56.8312 232.754 57.1573 231.395 57.8094 230.1L87.3507 184.663C88.4593 182.527 90.2201 180.714 92.2416 179.485C94.3285 178.255 96.6761 177.608 99.089 177.608H322.051C324.464 177.608 326.876 178.255 328.963 179.485C331.05 180.714 332.746 182.527 333.854 184.663L363.395 230.1C364.048 231.33 364.374 232.754 364.308 234.178C364.243 235.602 363.852 236.961 363.135 238.191C362.417 239.421 361.374 240.392 360.135 241.104C359.091 241.751 357.722 242.139 356.287 242.139Z" fill="#C5D1E3"/>
<path d="M364.439 233.725C364.504 234.825 364.309 235.926 363.917 236.961C363.526 237.997 362.939 238.903 362.157 239.68C361.374 240.456 360.461 241.104 359.483 241.492C358.505 241.945 357.396 242.139 356.287 242.139H65.1133C64.0047 242.139 62.9613 241.945 61.9179 241.492C60.9397 241.039 59.9615 240.456 59.2441 239.68C58.4616 238.903 57.8747 237.932 57.4834 236.961C57.0921 235.926 56.8965 234.825 56.9617 233.725V240.974C56.9617 243.11 57.8747 245.181 59.3746 246.67C60.8745 248.159 62.9613 249 65.1133 249H356.287C358.439 249 360.461 248.159 362.026 246.605C363.526 245.117 364.439 243.045 364.439 240.909V233.725Z" fill="#99B8C9"/>
<path d="M267.403 236.184H154.063C153.607 236.184 153.15 236.055 152.759 235.861C152.368 235.666 152.042 235.343 151.781 234.954C151.52 234.566 151.389 234.113 151.389 233.66C151.389 233.207 151.455 232.754 151.715 232.365L156.215 217.802C156.606 217.09 157.128 216.508 157.78 216.119C158.432 215.731 159.215 215.537 159.997 215.537H261.468C262.251 215.537 263.033 215.731 263.685 216.119C264.338 216.508 264.924 217.09 265.251 217.802L269.685 232.365C269.881 232.754 270.011 233.207 270.011 233.66C270.011 234.113 269.881 234.566 269.62 234.954C269.359 235.343 269.033 235.666 268.642 235.861C268.25 236.12 267.859 236.184 267.403 236.184Z" fill="#D8DBF2"/>
<path d="M308.943 210.553H112.458C111.936 210.553 111.414 210.423 110.958 210.165C110.501 209.906 110.11 209.517 109.849 209.064C109.588 208.611 109.393 208.093 109.393 207.576C109.393 207.058 109.523 206.54 109.784 206.022L118.066 188.805C118.522 187.964 119.109 187.316 119.892 186.863C120.674 186.41 121.587 186.151 122.5 186.151H298.965C299.878 186.151 300.791 186.41 301.574 186.863C302.357 187.316 303.009 188.028 303.465 188.805L311.747 206.022C312.008 206.475 312.138 207.058 312.138 207.576C312.138 208.093 312.008 208.676 311.682 209.129C311.421 209.582 311.03 209.97 310.508 210.229C309.986 210.424 309.465 210.553 308.943 210.553Z" fill="#A7BFD6"/>
<path d="M100.263 37.8645H321.203V162.462C321.203 162.915 321.138 163.433 320.942 163.821C320.746 164.274 320.486 164.662 320.16 164.986C319.834 165.31 319.442 165.569 318.986 165.763C318.529 165.957 318.073 166.022 317.616 166.022H103.85C102.871 166.022 101.958 165.633 101.306 164.986C100.654 164.339 100.263 163.368 100.263 162.462V37.8645Z" fill="white"/>
<path d="M168.671 49.3208H145.716C145.129 49.3208 144.673 49.7739 144.673 50.3565V73.2693C144.673 73.8519 145.129 74.305 145.716 74.305H168.671C169.258 74.305 169.714 73.8519 169.714 73.2693V50.3565C169.714 49.8387 169.258 49.3208 168.671 49.3208Z" fill="#E8F5F7"/>
<path d="M274.446 69.7744H191.495C190.256 69.7744 189.213 70.81 189.213 72.0398C189.213 73.3343 190.256 74.3052 191.495 74.3052H274.446C275.685 74.3052 276.728 73.2696 276.728 72.0398C276.728 70.81 275.685 69.7744 274.446 69.7744Z" fill="#E8F5F7"/>
<path d="M251.165 59.5479H191.495C190.256 59.5479 189.213 60.5835 189.213 61.8133C189.213 63.1078 190.256 64.0787 191.495 64.0787H251.165C252.404 64.0787 253.447 63.043 253.447 61.8133C253.447 60.5835 252.404 59.5479 251.165 59.5479Z" fill="#E8F5F7"/>
<path d="M262.773 49.3208H191.495C190.256 49.3208 189.213 50.3564 189.213 51.5862C189.213 52.8807 190.256 53.8516 191.495 53.8516H262.838C264.077 53.8516 265.12 52.816 265.12 51.5862C265.12 50.3564 264.077 49.3208 262.773 49.3208Z" fill="#E8F5F7"/>
<path d="M168.671 90.0337H145.716C145.129 90.0337 144.673 90.4867 144.673 91.0692V113.982C144.673 114.565 145.129 115.018 145.716 115.018H168.671C169.258 115.018 169.714 114.565 169.714 113.982V91.0692C169.714 90.4867 169.258 90.0337 168.671 90.0337Z" fill="#E8F5F7"/>
<path d="M274.446 110.487H191.495C190.256 110.487 189.213 111.522 189.213 112.752C189.213 114.047 190.256 115.018 191.495 115.018H274.446C275.685 115.018 276.728 113.982 276.728 112.752C276.728 111.522 275.685 110.487 274.446 110.487Z" fill="#E8F5F7"/>
<path d="M251.165 100.26H191.495C190.256 100.26 189.213 101.296 189.213 102.526C189.213 103.82 190.256 104.791 191.495 104.791H251.165C252.404 104.791 253.447 103.755 253.447 102.526C253.447 101.296 252.404 100.26 251.165 100.26Z" fill="#E8F5F7"/>
<path d="M262.773 90.0337H191.495C190.256 90.0337 189.213 91.0693 189.213 92.2991C189.213 93.5936 190.256 94.5645 191.495 94.5645H262.838C264.077 94.5645 265.12 93.5289 265.12 92.2991C265.12 91.0693 264.077 90.0337 262.773 90.0337Z" fill="#E8F5F7"/>
<path d="M168.671 130.746H145.716C145.129 130.746 144.673 131.199 144.673 131.782V154.695C144.673 155.277 145.129 155.73 145.716 155.73H168.671C169.258 155.73 169.714 155.277 169.714 154.695V131.782C169.714 131.199 169.258 130.746 168.671 130.746Z" fill="#E8F5F7"/>
<path d="M274.446 151.199H191.495C190.256 151.199 189.213 152.235 189.213 153.465C189.213 154.759 190.256 155.73 191.495 155.73H274.446C275.685 155.73 276.728 154.695 276.728 153.465C276.728 152.17 275.685 151.199 274.446 151.199Z" fill="#E8F5F7"/>
<path d="M251.165 140.973H191.495C190.256 140.973 189.213 142.008 189.213 143.238C189.213 144.533 190.256 145.503 191.495 145.503H251.165C252.404 145.503 253.447 144.468 253.447 143.238C253.447 142.008 252.404 140.973 251.165 140.973Z" fill="#E8F5F7"/>
<path d="M262.773 130.746H191.495C190.256 130.746 189.213 131.782 189.213 133.011C189.213 134.306 190.256 135.277 191.495 135.277H262.838C264.077 135.277 265.12 134.241 265.12 133.011C265.12 131.782 264.077 130.746 262.773 130.746Z" fill="#E8F5F7"/>
<path d="M108.349 33.9165C109.653 33.9165 110.697 32.8808 110.697 31.5863C110.697 30.2918 109.653 29.2561 108.349 29.2561C107.045 29.2561 106.001 30.2918 106.001 31.5863C106.067 32.8808 107.11 33.9165 108.349 33.9165Z" fill="#FFB27A"/>
<path d="M117.088 33.9165C118.392 33.9165 119.435 32.8808 119.435 31.5863C119.435 30.2918 118.392 29.2561 117.088 29.2561C115.783 29.2561 114.74 30.2918 114.74 31.5863C114.74 32.8808 115.783 33.9165 117.088 33.9165Z" fill="#FDB62F"/>
<path d="M125.761 33.9165C127.065 33.9165 128.109 32.8808 128.109 31.5863C128.109 30.2918 127.065 29.2561 125.761 29.2561C124.457 29.2561 123.413 30.2918 123.413 31.5863C123.413 32.8808 124.457 33.9165 125.761 33.9165Z" fill="#64A7B0"/>
<path d="M419.152 49.9036C419.283 49.9036 419.348 49.9036 419.478 49.9036C419.609 49.9036 419.674 49.9683 419.739 50.033C419.804 50.0977 419.87 50.1624 419.935 50.2918C420 50.4213 420 50.486 420 50.6155C420 50.7449 420 50.8096 419.935 50.9391C419.478 52.4925 418.826 53.9165 418.044 55.3405C417.913 55.5346 417.783 55.6642 417.587 55.7289C417.392 55.7936 417.196 55.7935 417 55.6641C416.805 55.5346 416.674 55.4052 416.609 55.211C416.544 55.0169 416.609 54.8228 416.674 54.6286C417.392 53.3341 417.978 51.9748 418.37 50.5508C418.435 50.4214 418.5 50.2919 418.631 50.1624C418.826 49.9682 419.022 49.9036 419.152 49.9036Z" fill="#055480"/>
<path d="M289.771 17.5405C289.836 17.5405 289.966 17.5405 290.031 17.5405L291.14 17.7994C293.749 18.4466 296.422 19.0939 299.292 19.8706C299.422 19.8706 299.487 19.9354 299.552 20.0001C299.618 20.0649 299.683 20.1295 299.748 20.259C299.813 20.3237 299.813 20.4532 299.813 20.5826C299.813 20.7121 299.813 20.7768 299.748 20.9062C299.748 21.0357 299.683 21.1004 299.618 21.1651C299.552 21.2298 299.487 21.2946 299.357 21.3593C299.226 21.424 299.161 21.4241 299.031 21.4241C298.9 21.4241 298.835 21.424 298.705 21.3593C295.901 20.5826 293.227 19.9353 290.618 19.2881L289.51 19.0293C289.314 18.9645 289.118 18.8351 289.053 18.7056C288.923 18.5114 288.923 18.3172 288.988 18.123C289.053 17.9288 289.118 17.7994 289.249 17.6699C289.445 17.6052 289.575 17.5405 289.771 17.5405ZM308.095 22.7832C308.226 22.7832 308.356 22.7832 308.487 22.7832C311.486 23.8836 314.421 25.1781 317.29 26.7316C317.355 26.7963 317.486 26.861 317.551 26.9258C317.616 26.9905 317.682 27.1199 317.682 27.1846C317.682 27.3141 317.747 27.3788 317.682 27.5082C317.682 27.6377 317.616 27.7024 317.616 27.8319C317.551 27.8966 317.486 28.0261 317.421 28.0909C317.355 28.1556 317.225 28.2203 317.16 28.2203C317.029 28.2203 316.964 28.285 316.834 28.2203C316.703 28.2203 316.638 28.1555 316.573 28.1555C313.769 26.6668 310.899 25.3723 307.965 24.3367C307.769 24.272 307.639 24.1426 307.574 24.0131C307.508 23.8837 307.443 23.6894 307.443 23.4953C307.443 23.3011 307.574 23.1717 307.639 23.0422C307.769 22.848 307.9 22.7832 308.095 22.7832ZM324.79 31.8448C324.92 31.8448 324.985 31.8448 325.116 31.8448C325.246 31.8448 325.311 31.9097 325.377 31.9744C327.92 33.9809 330.268 36.2462 332.289 38.7058C332.354 38.7705 332.42 38.8999 332.42 38.9647C332.42 39.0941 332.485 39.1588 332.42 39.2883C332.42 39.4177 332.354 39.4825 332.354 39.6119C332.289 39.6766 332.224 39.8062 332.159 39.8709C332.028 40.0004 331.767 40.0651 331.572 40.0651C331.376 40.0651 331.181 39.9356 331.05 39.8061C329.029 37.4113 326.811 35.2107 324.333 33.2689C324.268 33.2042 324.203 33.1394 324.138 33.0099C324.072 32.9452 324.072 32.8157 324.072 32.6863C324.072 32.5568 324.072 32.4921 324.072 32.3627C324.072 32.2332 324.138 32.1686 324.203 32.1038C324.398 31.9744 324.594 31.9096 324.79 31.8448ZM336.789 46.4081C336.919 46.4081 337.115 46.4082 337.245 46.4729C337.376 46.5376 337.506 46.6671 337.571 46.7965C339.071 49.6445 340.245 52.6865 341.093 55.7934C341.158 55.9228 341.158 55.9875 341.158 56.117C341.158 56.2464 341.093 56.3112 341.093 56.4406C341.028 56.5701 340.962 56.6349 340.897 56.6996C340.832 56.7643 340.702 56.829 340.571 56.829C340.441 56.829 340.376 56.8938 340.245 56.829C340.115 56.829 340.049 56.7643 339.919 56.6996C339.854 56.6349 339.723 56.5701 339.658 56.4406C339.593 56.3759 339.528 56.2464 339.528 56.117C338.745 53.0749 337.571 50.1622 336.137 47.379C336.072 47.3143 336.072 47.1848 336.072 47.0554C336.072 46.9259 336.072 46.8612 336.137 46.7318C336.137 46.6023 336.202 46.5376 336.267 46.4729C336.332 46.4082 336.398 46.3434 336.528 46.2787C336.593 46.4729 336.724 46.4081 336.789 46.4081ZM332.876 57.0233C334.637 56.8291 336.398 56.6995 338.158 56.7643C338.354 56.7643 338.55 56.8291 338.68 57.0233C338.81 57.1527 338.876 57.3468 338.876 57.6057C338.876 57.7352 338.876 57.7999 338.81 57.9293C338.745 57.9941 338.68 58.1236 338.615 58.1883C338.55 58.2531 338.484 58.3177 338.354 58.3824C338.289 58.4471 338.158 58.4472 338.028 58.4472C336.332 58.4472 334.637 58.5118 332.941 58.706C331.572 58.9002 330.137 59.1592 328.768 59.4829C328.572 59.5476 328.376 59.4828 328.181 59.4181C327.985 59.2886 327.855 59.1592 327.855 58.965C327.789 58.8356 327.789 58.7708 327.789 58.6414C327.789 58.5119 327.855 58.4472 327.92 58.3178C327.985 58.253 328.05 58.1235 328.116 58.0588C328.181 57.994 328.311 57.9293 328.376 57.9293C329.942 57.4763 331.376 57.1527 332.876 57.0233ZM347.484 58.0588C347.549 58.0588 347.679 58.0588 347.745 58.0588C350.875 58.7708 353.94 59.677 357.005 60.7126C357.2 60.7773 357.331 60.9068 357.396 61.101C357.461 61.2952 357.461 61.4893 357.396 61.6835C357.331 61.8777 357.2 62.0071 357.005 62.1365C356.809 62.266 356.613 62.266 356.418 62.2013C353.418 61.1657 350.418 60.3243 347.353 59.6123C347.158 59.5476 347.027 59.4828 346.897 59.2887C346.766 59.1592 346.701 58.965 346.766 58.7708C346.766 58.5766 346.832 58.3824 346.962 58.253C347.158 58.1235 347.288 58.0588 347.484 58.0588ZM319.964 61.7483C320.094 61.7483 320.225 61.7482 320.355 61.8129C320.486 61.8776 320.616 61.9424 320.681 62.0719C320.747 62.1366 320.812 62.266 320.812 62.3307C320.812 62.4602 320.812 62.5249 320.812 62.6544C320.812 62.7838 320.747 62.8485 320.681 62.9132C320.616 62.9779 320.551 63.1074 320.486 63.1074C319.181 64.0783 317.942 65.1787 316.899 66.4085C315.986 67.5088 315.203 68.6739 314.617 69.9684C314.486 70.1626 314.356 70.292 314.16 70.292C313.964 70.3568 313.769 70.3567 313.573 70.2272C313.378 70.1625 313.247 70.0332 313.182 69.839C313.117 69.6448 313.117 69.4505 313.182 69.2564C313.834 67.8324 314.682 66.4732 315.66 65.2434C316.769 63.8842 318.073 62.7191 319.508 61.6835C319.703 61.7482 319.834 61.7483 319.964 61.7483ZM341.484 64.7903H341.615C341.745 64.7903 341.81 64.7902 341.941 64.855C342.006 64.9197 342.136 64.9197 342.201 65.0492C342.267 65.1139 342.332 65.1787 342.397 65.3082C342.462 65.3729 342.462 65.5024 342.462 65.6318C342.462 68.9328 341.941 72.169 340.897 75.2759C340.832 75.4701 340.702 75.5995 340.506 75.7289C340.31 75.7937 340.115 75.8585 339.919 75.7937C339.723 75.729 339.593 75.5995 339.463 75.4053C339.397 75.2111 339.332 75.017 339.463 74.8228C340.506 71.9102 340.962 68.8033 340.962 65.6964C340.962 65.5023 341.028 65.3081 341.158 65.114C341.093 64.8551 341.288 64.7256 341.484 64.7903ZM365.678 63.7547C365.808 63.7547 365.874 63.7547 366.004 63.7547C367.047 64.143 368.156 64.4667 369.199 64.7256C371.286 65.3728 373.177 65.9554 375.069 66.4085C375.199 66.4085 375.264 66.4732 375.329 66.5379C375.395 66.6026 375.46 66.6674 375.525 66.7321C375.59 66.7968 375.59 66.9262 375.656 66.991C375.656 67.1204 375.656 67.1851 375.656 67.3146C375.656 67.444 375.59 67.5089 375.525 67.5736C375.46 67.6383 375.395 67.7029 375.329 67.7676C375.264 67.8324 375.134 67.8325 375.069 67.8972C374.938 67.8972 374.873 67.8972 374.743 67.8972C372.851 67.4441 370.83 66.9263 368.743 66.2143C367.7 65.8906 366.591 65.567 365.548 65.2434C365.352 65.1787 365.222 65.0492 365.156 64.9198C365.026 64.7903 365.026 64.5961 365.026 64.4019C365.026 64.2077 365.156 64.0783 365.222 63.9489C365.352 63.8194 365.482 63.7547 365.678 63.7547ZM411.196 61.3598C411.327 61.3598 411.457 61.3599 411.588 61.4246C411.718 61.4894 411.848 61.554 411.914 61.6835C411.979 61.7482 412.044 61.8776 412.044 61.9423C412.044 62.0718 412.109 62.1365 412.044 62.2659C412.044 62.3954 411.979 62.4601 411.979 62.5896C411.914 62.6543 411.849 62.7838 411.783 62.8486C409.24 64.9198 406.371 66.5379 403.371 67.703C403.175 67.7677 402.98 67.7677 402.784 67.703C402.588 67.6383 402.458 67.4441 402.393 67.25C402.327 67.0558 402.327 66.8615 402.393 66.6673C402.458 66.4731 402.654 66.3438 402.849 66.2791C405.718 65.1787 408.457 63.6252 410.87 61.6835C410.936 61.4246 411.066 61.3598 411.196 61.3598ZM384.133 68.2208H384.329C387.459 68.5445 390.589 68.6091 393.719 68.2855C393.915 68.2855 394.111 68.3502 394.306 68.4797C394.437 68.6091 394.567 68.8033 394.567 68.9975C394.567 69.1917 394.502 69.3858 394.372 69.58C394.241 69.7742 394.045 69.839 393.85 69.839C390.654 70.1626 387.394 70.0978 384.198 69.7742C384.003 69.7742 383.807 69.6448 383.677 69.5154C383.546 69.3859 383.481 69.1269 383.481 68.9327C383.481 68.7386 383.611 68.6091 383.677 68.4149C383.872 68.2854 384.003 68.2208 384.133 68.2208ZM312.465 78.1885C312.66 78.1885 312.856 78.1885 313.051 78.318C313.182 78.4474 313.312 78.6416 313.378 78.8358C313.704 81.2954 315.008 83.496 316.899 85.1142C317.29 85.4378 317.682 85.6967 318.138 85.9556C318.334 86.0851 318.464 86.2145 318.529 86.4087C318.595 86.6029 318.529 86.7971 318.464 86.9913C318.334 87.1855 318.203 87.3148 318.008 87.3796C317.812 87.4443 317.616 87.3797 317.421 87.3149C316.899 86.9913 316.443 86.6677 315.986 86.3441C313.834 84.5317 312.399 81.9426 312.008 79.0946C312.008 78.9005 312.008 78.7064 312.138 78.5122C312.073 78.318 312.269 78.2533 312.465 78.1885ZM334.963 82.0721C335.093 82.0721 335.224 82.0721 335.289 82.0721C335.354 82.0721 335.485 82.2016 335.615 82.2663C335.68 82.331 335.745 82.3957 335.811 82.5251C335.876 82.5899 335.876 82.7193 335.876 82.8488C335.876 82.9782 335.876 83.0429 335.811 83.1724C335.745 83.2371 335.68 83.3667 335.615 83.4314C333.267 85.7615 330.333 87.4443 327.072 88.3505C326.942 88.3505 326.877 88.3505 326.746 88.3505C326.616 88.3505 326.55 88.2858 326.485 88.221C326.42 88.1563 326.29 88.0916 326.29 88.0268C326.224 87.9621 326.159 87.8327 326.159 87.768C326.159 87.6385 326.159 87.5738 326.159 87.4444C326.159 87.3149 326.224 87.2501 326.29 87.1854C326.355 87.1206 326.42 86.9912 326.485 86.9265C326.55 86.8618 326.681 86.7971 326.746 86.7971C329.681 85.9557 332.42 84.4023 334.572 82.2663C334.637 82.2016 334.832 82.1368 334.963 82.0721Z" fill="#055480"/>
<path d="M276.337 12.8804C276.532 12.8804 276.728 12.8803 276.858 13.0098C278.097 13.8512 279.402 14.4985 280.836 14.9516C281.032 15.0163 281.162 15.1456 281.293 15.3398C281.358 15.534 281.358 15.7283 281.293 15.9225C281.228 16.1166 281.097 16.246 280.902 16.3755C280.706 16.4402 280.51 16.505 280.315 16.3755C278.815 15.8577 277.315 15.1457 276.011 14.2395C275.88 14.1748 275.815 14.0454 275.75 13.8513C275.685 13.7218 275.685 13.5275 275.75 13.3981C275.815 13.2686 275.88 13.1392 276.011 13.0098C276.076 13.0098 276.206 12.9451 276.337 12.8804Z" fill="#055480"/>
<path d="M274.641 146.992C292.053 146.992 306.204 132.882 306.204 115.471C306.204 98.0596 292.118 83.9492 274.641 83.9492C257.229 83.9492 243.078 98.0596 243.078 115.471C243.078 132.882 257.229 146.992 274.641 146.992Z" fill="#E8EBFF"/>
<path d="M312.399 129.257C308.682 126.992 303.857 128.157 301.574 131.911C299.292 135.601 300.465 140.455 304.183 142.72L352.44 172.106C356.157 174.371 360.983 173.206 363.265 169.452C365.548 165.763 364.374 160.908 360.657 158.643L312.399 129.257Z" fill="#2B7EBA"/>
<path d="M275.75 109.646H243.665L243.535 110.422C243.274 111.976 243.143 113.594 243.143 115.212V116.118H275.75C276.598 116.118 277.445 115.794 278.032 115.147C278.619 114.565 279.01 113.723 279.01 112.882C279.01 112.04 278.684 111.199 278.032 110.616C277.445 109.969 276.598 109.646 275.75 109.646Z" fill="#CFDCEB"/>
<path d="M255.404 102.526C255.404 101.684 255.077 100.843 254.425 100.26C253.838 99.6779 252.991 99.2896 252.143 99.2896H247.448L247.187 99.7426C246.339 101.296 245.622 102.849 245.035 104.532L244.578 105.762H252.143C252.991 105.762 253.838 105.438 254.425 104.791C255.077 104.209 255.404 103.367 255.404 102.526Z" fill="#CFDCEB"/>
<path d="M267.207 92.1696C267.207 91.3282 266.881 90.4868 266.229 89.9042C265.642 89.3217 264.794 88.9333 263.946 88.9333H256.838L256.577 89.1274C254.686 90.4866 252.925 92.1048 251.295 93.8524L249.991 95.3411H263.946C264.403 95.3411 264.794 95.2765 265.185 95.0823C265.577 94.9528 265.968 94.6939 266.229 94.3703C266.555 94.0466 266.75 93.7229 266.946 93.3346C267.077 93.0109 267.207 92.6227 267.207 92.1696Z" fill="#CFDCEB"/>
<path d="M263.946 130.164H246.469L247.252 131.523C248.165 133.206 249.273 134.824 250.447 136.313L250.708 136.636H263.946C264.794 136.636 265.642 136.313 266.229 135.665C266.816 135.083 267.207 134.241 267.207 133.4C267.207 132.558 266.881 131.717 266.229 131.134C265.642 130.487 264.794 130.164 263.946 130.164Z" fill="#CFDCEB"/>
<path d="M241.448 95.2763C237.47 101.814 235.448 109.451 235.774 117.089C236.101 124.791 238.709 132.17 243.209 138.384C247.774 144.597 254.034 149.322 261.207 151.976C268.446 154.63 276.271 155.083 283.771 153.271C291.27 151.458 297.987 147.51 303.204 141.814C308.421 136.183 311.812 129.128 313.051 121.49C314.225 113.917 313.117 106.15 309.921 99.1598C306.66 92.1694 301.444 86.3441 294.922 82.3311C290.553 79.6774 285.727 77.9299 280.706 77.0884C275.685 76.3117 270.533 76.5059 265.577 77.7357C260.62 78.9655 255.925 81.1015 251.817 84.0788C247.578 87.121 244.122 90.8749 241.448 95.2763ZM301.574 131.846C298.313 137.154 293.553 141.426 287.945 144.015C282.271 146.604 275.945 147.51 269.815 146.539C263.685 145.568 257.947 142.785 253.317 138.578C248.752 134.371 245.491 128.869 244.056 122.85C242.557 116.765 242.948 110.422 245.1 104.597C247.252 98.7716 251.099 93.6582 256.121 89.9688C261.142 86.2794 267.142 84.2082 273.402 83.9493C279.663 83.6904 285.793 85.3086 291.14 88.5449C298.248 92.8815 303.4 99.8719 305.356 108.027C307.247 116.183 305.878 124.727 301.574 131.846Z" fill="#2B7EBA"/>
<path d="M287.423 96.9591C290.618 99.8718 291.596 103.626 290.879 106.344C290.097 109.322 294.857 108.674 295.64 105.956C296.292 103.691 296.226 101.36 295.509 99.0951C294.727 96.8944 293.292 95.0173 291.336 93.658C289.118 92.1693 286.575 91.1985 283.901 90.8102C281.228 90.4218 278.554 90.6159 275.945 91.3926C275.685 91.4574 275.424 91.5221 275.228 91.7163C275.032 91.8457 274.837 92.1047 274.706 92.2989C274.576 92.5578 274.511 92.8167 274.511 93.0756C274.511 93.3345 274.576 93.5933 274.706 93.8522C275.88 95.2115 277.315 94.7585 280.902 94.7585C283.314 94.7585 285.597 95.5351 287.423 96.9591Z" fill="white"/>
</svg>
