<svg width="530" height="527" viewBox="0 0 530 527" fill="none" xmlns="http://www.w3.org/2000/svg">
<path d="M81.3053 419.619L67.1587 527H62.5196L76.6662 419.619H81.3053Z" fill="#D2ECFF"/>
<path d="M18.7872 419.618L17.1961 431.694L4.64048 526.999H0L12.6192 431.223L14.1466 419.618H18.7872Z" fill="#D2ECFF"/>
<path d="M81.3053 526.999H76.6662L74.7092 512.148L72.3903 494.54L64.7583 436.619L62.5196 419.618H67.1601L69.4638 437.105L74.7092 476.928L77.0294 494.536L81.3053 526.999Z" fill="#D2ECFF"/>
<path d="M143.824 526.999H139.183L128.203 443.652L125.036 419.618H129.677L132.905 444.116L143.824 526.999Z" fill="#D2ECFF"/>
<path d="M19.0135 347.836H14.373V412.791H19.0135V347.836Z" fill="#D2ECFF"/>
<path d="M82.0621 347.836H77.4231V412.791H82.0621V347.836Z" fill="#D2ECFF"/>
<path d="M131.624 412.791H67.8741C69.9334 412.791 71.603 414.318 71.603 416.204C71.603 418.089 69.9334 419.618 67.8741 419.618H131.624C133.684 419.618 135.353 418.089 135.353 416.204C135.353 414.318 133.684 412.791 131.624 412.791Z" fill="#D2ECFF"/>
<path d="M71.6031 416.204C71.6031 414.318 69.9334 412.791 67.8742 412.791H19.1116H12.8303C10.7711 412.791 9.10144 414.318 9.10144 416.204C9.10144 418.089 10.7711 419.618 12.8303 419.618H19.1116H67.8742C69.9334 419.618 71.6031 418.089 71.6031 416.204Z" fill="#86E2DC"/>
<path d="M85.8547 298.954H10.5833C7.71339 298.954 5.38623 301.084 5.38623 303.711V343.078C5.38623 345.705 7.71339 347.836 10.5833 347.836H85.8547C88.7246 347.836 91.0517 345.705 91.0517 343.078V303.711C91.0504 301.083 88.7246 298.954 85.8547 298.954Z" fill="#D2ECFF"/>
<path d="M18.7871 419.618L17.196 431.694C15.5193 431.521 13.9878 431.363 12.6191 431.223L14.148 419.618H18.7871Z" fill="#AEE7FF"/>
<path d="M67.1601 419.618L69.4638 437.105C67.888 436.943 66.319 436.78 64.7598 436.619L62.5196 419.618H67.1601Z" fill="#AEE7FF"/>
<path d="M132.905 444.116C131.408 443.97 129.837 443.815 128.203 443.652H128.202L125.036 419.618H129.677L132.905 444.116Z" fill="#AEE7FF"/>
<path d="M14.373 347.836H19.0135V356.808L14.373 356.337V347.836Z" fill="#AEE7FF"/>
<path d="M82.0621 347.836V363.197L77.4231 362.728V347.836H82.0621Z" fill="#AEE7FF"/>
<path d="M107.245 239.21C89.1666 241.969 66.6408 235.808 63.8165 231.886C57.2714 241.018 53.9458 240.732 53.9458 240.732V247.581L52.468 246.227C52.0122 245.283 51.2885 244.347 50.2058 244.347C44.2532 244.347 43.8375 259.506 53.856 260.382C54.0535 260.976 54.2579 261.531 54.4665 262.033V286.295H77.0641V276.753C78.5833 277.135 80.039 277.353 81.3759 277.353C90.2853 277.353 105.468 265.359 107.189 246.226C107.291 242.616 107.245 239.21 107.245 239.21Z" fill="#FCBEB7"/>
<path d="M79.8165 213.242C64.2322 213.242 61.115 220.851 61.115 220.851C54.465 220.851 44.2836 231.981 50.4143 244.346L50.4461 244.375L53.9471 247.581V240.732C53.9471 240.732 57.2715 241.018 63.8179 231.886C66.6422 235.808 89.1694 241.969 107.247 239.21C107.247 239.21 107.294 242.616 107.19 246.226C107.19 246.23 107.19 246.234 107.19 246.238C113.941 228.355 100.388 213.242 79.8165 213.242Z" fill="#163343"/>
<path d="M73.1154 251.45C72.4263 251.45 71.8683 250.939 71.8683 250.308V248.176C71.8683 247.545 72.4263 247.034 73.1154 247.034C73.8046 247.034 74.3626 247.545 74.3626 248.176V250.308C74.3612 250.939 73.8032 251.45 73.1154 251.45Z" fill="#163343"/>
<path d="M96.2323 251.45C95.5431 251.45 94.9852 250.939 94.9852 250.308V248.176C94.9852 247.545 95.5431 247.034 96.2323 247.034C96.9215 247.034 97.4795 247.545 97.4795 248.176V250.308C97.4781 250.939 96.9201 251.45 96.2323 251.45Z" fill="#163343"/>
<path d="M82.2818 264.773C80.0568 264.773 78.5417 264.007 77.6233 263.309C76.4659 262.429 75.9853 261.469 75.9646 261.429C75.8348 261.166 75.9632 260.856 76.2505 260.737C76.5378 260.618 76.8747 260.736 77.0045 260.998C77.0695 261.127 78.6494 264.161 83.2416 263.675C83.5551 263.642 83.8382 263.847 83.8741 264.135C83.91 264.422 83.6863 264.681 83.3728 264.714C82.993 264.756 82.6284 264.773 82.2818 264.773Z" fill="#163343"/>
<path d="M64.8371 260.914C68.2421 260.914 71.0023 258.387 71.0023 255.27C71.0023 252.152 68.2421 249.625 64.8371 249.625C61.4321 249.625 58.6719 252.152 58.6719 255.27C58.6719 258.387 61.4321 260.914 64.8371 260.914Z" fill="#F49795"/>
<path d="M106.546 250.584C105.765 254.374 104.455 257.83 102.799 260.907C99.5386 260.759 96.9463 258.292 96.9463 255.27C96.9463 252.153 99.7057 249.626 103.11 249.626C104.382 249.626 105.564 249.979 106.546 250.584Z" fill="#F49795"/>
<path d="M96.2323 238.105C91.7312 238.105 88.0147 241.238 87.5465 245.246C85.0992 244.192 82.9392 244.762 81.7998 245.242C81.3302 241.235 77.615 238.105 73.1154 238.105C68.2981 238.105 64.3799 241.692 64.3799 246.102C64.3799 250.513 68.2995 254.1 73.1154 254.1C77.8236 254.1 81.6727 250.671 81.8426 246.398C82.5663 246.023 84.8906 245.05 87.5037 246.405C87.6777 250.675 91.5255 254.1 96.2309 254.1C101.048 254.1 104.966 250.513 104.966 246.102C104.968 241.692 101.048 238.105 96.2323 238.105ZM73.1154 253.054C68.9279 253.054 65.5222 249.936 65.5222 246.102C65.5222 242.269 68.9279 239.15 73.1154 239.15C77.3015 239.15 80.7087 242.269 80.7087 246.102C80.7073 249.936 77.3015 253.054 73.1154 253.054ZM96.2323 253.054C92.0448 253.054 88.639 249.936 88.639 246.102C88.639 242.269 92.0448 239.15 96.2323 239.15C100.42 239.15 103.826 242.269 103.826 246.102C103.826 249.936 100.418 253.054 96.2323 253.054Z" fill="white"/>
<path d="M77.0626 286.295V276.753C71.9525 275.467 66.1353 272.317 61.7628 269.314L77.0626 286.295Z" fill="#F9AFAB"/>
<path d="M141.267 449.422L136.549 448.83L132.082 414.915H136.722L141.267 449.422Z" fill="#EBEDF4"/>
<path d="M128.737 319.817L132.834 327.009H110.994L128.737 319.817Z" fill="#FCBEB7"/>
<path d="M86.9029 508.245V523.73C86.9029 525.536 88.5022 527 90.4744 527H138.446C138.901 527 139.272 526.661 139.272 526.244V523.39C139.272 522.013 138.395 520.761 137.027 520.188L109.289 508.245H86.9029Z" fill="#2F616C"/>
<path d="M86.9029 499.436L86.9139 508.246H109.288L110.836 499.436H86.9029Z" fill="#FCBEB7"/>
<path d="M77.024 277.296L107.398 289.857C111.575 291.585 114.974 294.578 117.021 298.332L128.737 319.817L110.994 327.009L112.463 374.502H24.0449L27.9051 330.147L11.9147 330.241V305.973C11.9147 298.456 16.848 291.676 24.4247 288.779L54.465 277.295C54.4664 277.296 67.5897 285.181 77.024 277.296Z" fill="#89C6FF"/>
<path d="M83.3507 279.81C78.7807 283.193 73.132 285.028 67.1739 285.028C60.8637 285.028 54.6956 282.78 49.9944 279.005L49.0276 279.374C53.9388 283.43 60.5087 285.866 67.1739 285.866C73.5035 285.866 79.4975 283.863 84.2927 280.184L83.3507 279.81Z" fill="white"/>
<path d="M133.979 508.245V523.73C133.979 525.536 135.578 527 137.551 527H185.522C185.978 527 186.348 526.661 186.348 526.244V523.39C186.348 522.013 185.471 520.761 184.103 520.188L156.365 508.245H133.979Z" fill="#2F616C"/>
<path d="M133.979 499.436L133.992 508.246H156.365L157.912 499.436H133.979Z" fill="#FCBEB7"/>
<path d="M71.1184 374.502V375.33C71.1004 396.132 89.5146 413.003 112.236 413.003H131.337L133.981 499.435H157.914L175.56 396.38C177.528 384.887 167.823 374.502 155.118 374.502H71.1184Z" fill="#62ADD7"/>
<path d="M175.813 393.492C173.752 396.252 170.284 398.064 166.355 398.064C160.028 398.064 154.9 393.369 154.9 387.577C154.9 382.014 159.63 377.463 165.608 377.112C171.78 380.442 175.846 386.612 175.813 393.492Z" fill="#4A88A3"/>
<path d="M128.734 393.087L131.337 413.003H115.666L128.734 393.087Z" fill="#4A88A3"/>
<path d="M24.0422 374.502V375.33C24.0242 396.132 42.4384 413.003 65.1603 413.003H84.2609L86.9044 499.435H110.837L128.484 396.38C130.452 384.887 120.747 374.502 108.042 374.502H24.0422Z" fill="#62ADD7"/>
<path d="M11.9161 330.241L12.7669 357.14C12.9975 364.409 19.4997 370.194 27.4438 370.194H78.5873L82.0208 359.243L36.9085 352.435L36.5894 330.095L11.9161 330.241Z" fill="#FCBEB7"/>
<path d="M27.082 364.6C27.082 366.726 26.0379 368.63 24.393 369.903C19.1061 368.88 14.8579 365.253 13.3511 360.535C14.728 358.792 16.9682 357.657 19.4983 357.657C23.6886 357.657 27.082 360.765 27.082 364.6Z" fill="#F9AFAB"/>
<path d="M36.5894 330.096L43.5157 353.433L36.9085 352.436L36.5894 330.096Z" fill="#4AB2D3"/>
<path d="M75.7173 358.292L67.6545 370.194H78.5859L82.0207 359.243L75.7173 358.292Z" fill="#F9AFAB"/>
<path d="M163.601 327.009H96.9132C94.0792 327.009 91.5877 328.728 90.806 331.221L78.586 370.194H51.544C50.2444 370.194 49.1906 371.159 49.1906 372.349C49.1906 373.539 50.2444 374.503 51.544 374.503H77.2352H85.4045H157.144L169.708 334.433C170.875 330.714 167.826 327.009 163.601 327.009Z" fill="#4A88A3"/>
<path d="M128.734 393.087C126.716 396.074 123.106 398.063 118.987 398.063C112.661 398.063 107.532 393.368 107.532 387.575C107.532 381.931 112.402 377.327 118.507 377.097C124.571 380.362 128.608 386.363 128.734 393.087Z" fill="#4A88A3"/>
<path d="M129.699 352.56C129.873 350.741 128.911 349.176 127.549 349.067C126.188 348.957 124.942 350.343 124.767 352.163C124.592 353.983 125.555 355.547 126.916 355.657C128.278 355.767 129.524 354.38 129.699 352.56Z" fill="#89C6FF"/>
<path d="M25.3307 298.657C25.3307 302.048 22.3268 304.798 18.6227 304.798C15.9503 304.798 13.6452 303.368 12.5666 301.299C13.514 297.947 15.4655 294.912 18.1752 292.531C18.323 292.52 18.4722 292.517 18.6227 292.517C22.3268 292.515 25.3307 295.266 25.3307 298.657Z" fill="#4AB2D3"/>
<path d="M116.606 297.612C115.537 298.271 114.25 298.656 112.865 298.656C109.161 298.656 106.158 295.905 106.158 292.514C106.158 291.485 106.434 290.512 106.925 289.661L107.398 289.858C111.304 291.472 114.53 294.194 116.606 297.612Z" fill="#4AB2D3"/>
<path d="M263.491 154.398L263.263 190.921L283.597 191.027L302.301 191.124L303.592 191.131L328.92 191.262C328.92 191.262 329.094 163.217 329.196 146.915C329.306 129.379 313.91 126.249 313.91 126.249C313.91 126.249 308.357 117.981 292.049 117.896C272.426 117.794 259.273 128.731 259.188 142.315C259.151 148.554 261.895 152.585 263.491 154.398ZM263.859 148.339C266.344 147.84 273.356 142.248 273.392 136.477C278.801 144.776 295.418 156.764 320.28 149.63V149.631C320.357 149.621 320.435 149.615 320.516 149.616C326.42 149.646 326.738 164.682 316.797 165.499C316.648 165.939 316.494 166.357 316.338 166.749L316.187 191.196L293.775 191.079L293.835 181.576C292.27 181.971 290.771 182.196 289.4 182.188C280.13 182.142 264.098 168.965 263.859 148.339Z" fill="#163343"/>
<path d="M293.826 182.886L293.835 181.578C292.27 181.972 290.771 182.197 289.4 182.189C280.13 182.141 264.098 168.965 263.859 148.339C266.344 147.839 273.356 142.248 273.392 136.477C278.801 144.776 295.417 156.764 320.28 149.63V149.631C320.357 149.621 320.435 149.615 320.516 149.616C326.42 149.646 326.738 164.682 316.797 165.499C316.648 165.939 316.494 166.357 316.338 166.749L316.236 183.195L333.742 190.861L333.619 210.695L275.292 210.39L275.416 190.369L293.826 182.886Z" fill="#FCBEB7"/>
<path d="M275.291 210.39L275.415 190.369L293.826 182.886L293.835 181.578C299.036 180.263 304.96 177.044 309.313 174.035L275.291 210.39Z" fill="#F9AFAB"/>
<path d="M305.936 165.972C309.313 165.972 312.05 163.466 312.05 160.374C312.05 157.282 309.313 154.776 305.936 154.776C302.559 154.776 299.822 157.282 299.822 160.374C299.822 163.466 302.559 165.972 305.936 165.972Z" fill="#F49795"/>
<path d="M264.601 155.511C265.352 159.274 266.63 162.708 268.253 165.768C271.487 165.639 274.074 163.205 274.092 160.208C274.111 157.117 271.39 154.597 268.014 154.579C266.754 154.572 265.579 154.916 264.601 155.511Z" fill="#F49795"/>
<path d="M266.307 151.075C266.279 155.449 270.143 159.028 274.921 159.053C279.587 159.077 283.424 155.7 283.624 151.466C286.241 150.126 288.522 151.103 289.238 151.486C289.381 155.726 293.176 159.148 297.847 159.172C302.624 159.197 306.532 155.659 306.56 151.285C306.588 146.912 302.723 143.333 297.946 143.308C293.484 143.285 289.78 146.37 289.289 150.342C288.161 149.86 286.023 149.284 283.59 150.317C283.15 146.339 279.484 143.212 275.02 143.189C270.243 143.164 266.334 146.702 266.307 151.075ZM290.365 151.201C290.389 147.4 293.786 144.325 297.939 144.346C302.091 144.367 305.45 147.478 305.426 151.279C305.403 155.08 302.005 158.155 297.852 158.134C293.699 158.112 290.342 155.002 290.365 151.201ZM267.44 151.08C267.464 147.278 270.861 144.204 275.014 144.226C279.167 144.247 282.525 147.358 282.501 151.159C282.478 154.961 279.08 158.035 274.929 158.014C270.774 157.993 267.416 154.883 267.44 151.08Z" fill="white"/>
<path d="M274.929 156.803C275.611 156.807 276.169 156.302 276.172 155.678L276.186 153.564C276.19 152.939 275.639 152.43 274.956 152.426C274.274 152.422 273.716 152.926 273.713 153.551L273.7 155.667C273.695 156.291 274.247 156.801 274.929 156.803Z" fill="#163343"/>
<path d="M297.485 156.923C298.167 156.926 298.724 156.422 298.728 155.797L298.742 153.682C298.746 153.057 298.195 152.547 297.513 152.544C296.83 152.54 296.274 153.044 296.27 153.669L296.256 155.783C296.252 156.409 296.801 156.919 297.485 156.923Z" fill="#163343"/>
<path d="M288.578 169.708C290.785 169.719 292.292 168.967 293.208 168.28C294.361 167.414 294.844 166.465 294.864 166.424C294.993 166.164 294.869 165.855 294.583 165.736C294.299 165.617 293.965 165.731 293.833 165.99C293.768 166.118 292.182 169.119 287.632 168.613C287.322 168.579 287.04 168.781 287.001 169.066C286.964 169.35 287.185 169.608 287.496 169.644C287.874 169.687 288.234 169.707 288.578 169.708Z" fill="#163343"/>
<path d="M249.463 498.793L247.09 507.605L221.755 514.744L225.492 498.667L249.463 498.793Z" fill="#FCBEB7"/>
<path d="M334.668 499.238L333.91 510.134L335.482 510.673L336.493 515.347L311.272 507.94L310.697 499.112L334.668 499.238Z" fill="#FCBEB7"/>
<path d="M202.229 518.069L222.838 510.085L221.755 514.744L247.09 507.605L247.048 514.239C247.035 516.572 245.688 518.68 243.586 519.857L241.376 525.538C241.186 526.029 240.676 526.356 240.107 526.352C239.367 526.349 238.772 525.796 238.776 525.12L238.799 521.417L221.484 526.256L204 526.165C201.457 526.153 199.407 524.255 199.423 521.927C199.429 520.241 200.534 518.725 202.229 518.069Z" fill="#2F616C"/>
<path d="M311.209 514.51L311.271 507.875L336.491 515.347L335.482 510.675L355.963 518.929C357.647 519.608 358.728 521.139 358.712 522.822C358.69 525.15 356.611 527.02 354.069 527L336.584 526.862L318.743 521.618L318.705 525.495C318.699 526.173 318.094 526.717 317.355 526.71C316.786 526.706 316.282 526.373 316.098 525.878L313.778 519.633C312.169 518.386 311.19 516.526 311.209 514.51Z" fill="#2F616C"/>
<path d="M332.225 277.285L341.328 313.498C343.956 323.956 344.95 334.701 344.282 345.415L334.668 499.238L310.696 499.113L301.456 339.373L249.463 498.793L225.491 498.667L269.08 276.956L332.225 277.285Z" fill="#62ADD7"/>
<path d="M300.983 200.743C296.727 200.72 293.346 196.951 291.074 193.137L315.347 193.264C311.622 197.034 306.528 200.771 300.983 200.743Z" fill="white"/>
<path d="M259.13 203.55C262.176 198.053 267.204 193.69 273.361 191.2L287.802 185.359C287.798 185.979 288.952 189.576 291.074 193.137C293.346 196.951 296.727 200.72 300.983 200.743C306.528 200.772 311.622 197.035 315.347 193.264C319.127 189.436 321.498 185.574 321.498 185.574L338.167 192.751C344.989 195.689 349.99 201.298 351.769 208.006L361.313 244.02C362.869 249.892 360.996 256.084 356.361 260.387C348.685 257.876 334.276 252.655 334.276 252.655L332.225 277.286L269.08 276.957L253.79 213.189L259.13 203.55Z" fill="#9ED6FE"/>
<path d="M300.326 206.146C303.837 206.163 307.415 205.205 310.962 203.295C313.778 201.778 316.58 199.662 319.292 197.004C323.897 192.492 326.712 187.878 326.739 187.832L325.803 187.428C325.775 187.474 323.045 191.946 318.523 196.374C315.88 198.962 313.156 201.018 310.427 202.486C307.046 204.306 303.649 205.219 300.33 205.203C297.198 205.186 294.382 204.215 291.962 202.314C290.003 200.777 288.291 198.63 286.872 195.933C284.435 191.299 283.787 187.032 283.78 186.985L282.808 187.379C282.837 187.576 283.432 191.555 285.933 196.322C287.414 199.142 289.213 201.396 291.281 203.023C293.895 205.077 296.938 206.128 300.326 206.146Z" fill="white"/>
<path d="M261.557 399.709C267.894 399.709 273.031 395.006 273.031 389.204C273.031 383.402 267.894 378.699 261.557 378.699C255.22 378.699 250.083 383.402 250.083 389.204C250.083 395.006 255.22 399.709 261.557 399.709Z" fill="#4A88A3"/>
<path d="M321.672 400.023C328.009 400.023 333.146 395.319 333.146 389.518C333.146 383.716 328.009 379.013 321.672 379.013C315.335 379.013 310.198 383.716 310.198 389.518C310.198 395.319 315.335 400.023 321.672 400.023Z" fill="#4A88A3"/>
<path d="M338.038 197.42C338.015 201.125 341.277 204.147 345.325 204.168C346.95 204.177 348.454 203.7 349.675 202.886C347.416 198.897 343.9 195.578 339.538 193.39C338.604 194.509 338.048 195.905 338.038 197.42Z" fill="#78BEFF"/>
<path d="M294.608 285.413L246.026 283.479C243.474 283.378 241.274 281.802 240.555 279.557L219.714 214.608C219.27 213.228 220.442 211.859 222.01 211.922L271.14 213.878C273.364 213.966 275.281 215.34 275.908 217.296L296.903 282.728C297.347 284.107 296.177 285.476 294.608 285.413Z" fill="#4A88A3"/>
<path d="M242.454 251.084L233.903 258.828L232.481 254.395L242.454 251.084Z" fill="#2F616C"/>
<path d="M230.724 238.967L242.969 239.771C243.873 239.831 244.569 240.526 244.554 241.356L245.771 241.431C246.562 241.481 247.202 242.041 247.292 242.763L247.435 243.93H247.441C248.347 243.945 249.068 244.631 249.053 245.46C249.04 246.068 248.628 246.611 248.008 246.833L245.26 247.817C245.257 249.097 244.44 250.256 243.168 250.787L234.62 254.35C233.378 254.869 232.001 255.054 230.649 254.887C227.611 254.51 225.162 252.418 224.538 249.671L224.023 247.397C223.468 244.948 224.311 242.408 226.263 240.658C227.456 239.585 229.056 238.98 230.724 238.967Z" fill="#FCBEB7"/>
<path d="M291.884 196.027L283.407 214.691C282.929 215.744 282.233 216.697 281.378 217.468L279.883 218.817C279.536 219.13 279.054 218.947 279.053 218.501L279.043 216.579C279.037 215.48 279.285 214.357 279.762 213.304L288.24 194.64C288.756 193.504 289.99 192.893 290.996 193.276C292.002 193.659 292.4 194.891 291.884 196.027Z" fill="#62ADD7"/>
<path d="M280.823 207.114L285.448 201.351C286.045 200.607 286.962 200.137 287.966 200.059L295.667 199.461C296.716 199.38 297.755 199.693 298.545 200.329L302.536 203.541C303.111 204.005 303.6 204.552 303.98 205.161L308.855 212.334L355.281 247.077C359.861 250.505 360.23 256.796 356.075 260.652C351.944 264.487 345.114 264.264 341.292 260.169L302.165 218.255L293.911 213.549L287.795 213.709C286.374 213.747 285.127 212.848 284.834 211.575L284.5 211.209C283.925 210.578 283.696 209.74 283.88 208.935L284.239 207.357L282.256 208.515C281.965 208.685 281.605 208.715 281.286 208.599C280.64 208.361 280.41 207.629 280.823 207.114Z" fill="#FCBEB7"/>
<path d="M334.276 252.653L317.132 234.287L333.568 261.17L334.276 252.653Z" fill="#78BEFF"/>
<path d="M294.608 285.413L266.033 292.458L267.628 284.339L294.608 285.413Z" fill="#2F616C"/>
<path d="M261.702 199.74C262.602 200.089 263.59 200.284 264.628 200.289C268.838 200.31 272.27 197.205 272.294 193.351C272.298 192.798 272.23 192.26 272.102 191.744C267.982 193.629 264.423 196.374 261.702 199.74Z" fill="#78BEFF"/>
<path d="M348.7 261.981C352.615 261.981 355.789 259.076 355.789 255.491C355.789 251.906 352.615 249.001 348.7 249.001C344.785 249.001 341.611 251.906 341.611 255.491C341.611 259.076 344.785 261.981 348.7 261.981Z" fill="#F9AFAB"/>
<path d="M436.527 281.949H428.989V520.097H436.527V281.949Z" fill="#D2ECFF"/>
<path d="M487.855 527H377.662C375.639 527 373.999 525.498 373.999 523.647V523.452C373.999 521.599 375.639 520.098 377.662 520.098H487.855C489.878 520.098 491.517 521.601 491.517 523.452V523.647C491.517 525.498 489.876 527 487.855 527Z" fill="#D2ECFF"/>
<path d="M503.665 281.949H361.851L386.389 210.479H479.127L503.665 281.949Z" fill="#D2ECFF"/>
<path d="M436.527 281.949V323.269C433.98 324.061 431.456 324.847 428.989 325.615V281.948H436.527V281.949Z" fill="#AEE7FF"/>
<path d="M370.544 256.631L494.992 256.686L496.793 261.936H368.722L370.544 256.631Z" fill="#AEE7FF"/>
<path d="M520.629 506.764V502.148C520.629 500.721 519.366 499.565 517.807 499.565H400.84C394.938 499.565 390.154 503.945 390.154 509.348V517.217C390.154 522.62 394.938 527 400.84 527H517.807C519.366 527 520.629 525.843 520.629 524.417V519.802C520.629 518.374 519.366 517.218 517.807 517.218H405.138C402.764 517.218 400.84 515.457 400.84 513.283C400.84 511.11 402.764 509.348 405.138 509.348H517.807C519.366 509.348 520.629 508.191 520.629 506.764Z" fill="#86E2DC"/>
<path d="M519.494 424.458V419.843C519.494 418.415 518.231 417.258 516.671 417.258H399.704C393.803 417.258 389.019 421.638 389.019 427.041V434.91C389.019 440.313 393.803 444.693 399.704 444.693H516.671C518.231 444.693 519.494 443.536 519.494 442.11V437.495C519.494 436.067 518.231 434.911 516.671 434.911H404.002C401.628 434.911 399.704 433.15 399.704 430.976C399.704 428.803 401.628 427.041 404.002 427.041H516.671C518.231 427.041 519.494 425.886 519.494 424.458Z" fill="#D2ECFF"/>
<path d="M512.272 479.329V474.713C512.272 473.287 511.009 472.13 509.449 472.13H409.197C403.295 472.13 398.511 476.51 398.511 481.913V489.782C398.511 495.185 403.295 499.565 409.197 499.565H509.449C511.009 499.565 512.272 498.408 512.272 496.981V492.365C512.272 490.938 511.009 489.782 509.449 489.782H413.495C411.12 489.782 409.197 488.021 409.197 485.847C409.197 483.674 411.12 481.912 413.495 481.912H509.449C511.009 481.912 512.272 480.755 512.272 479.329Z" fill="#AEE7FF"/>
<path d="M529.111 397.768V393.153C529.111 391.725 527.847 390.57 526.289 390.57H426.036C420.135 390.57 415.351 394.95 415.351 400.353V408.221C415.351 413.624 420.135 418.004 426.036 418.004H526.289C527.848 418.004 529.111 416.847 529.111 415.421V410.806C529.111 409.378 527.847 408.221 526.289 408.221H430.334C427.96 408.221 426.036 406.46 426.036 404.286C426.036 402.113 427.96 400.351 430.334 400.351H526.289C527.847 400.353 529.111 399.196 529.111 397.768Z" fill="#AEE7FF"/>
<path d="M508.556 481.912V489.781H413.495C411.12 489.781 409.197 488.02 409.197 485.846C409.197 483.672 411.12 481.911 413.495 481.911H508.556V481.912Z" fill="#EFF1FA"/>
<path d="M500.16 509.348V517.217H405.099C402.725 517.217 400.801 515.456 400.801 513.282C400.801 511.108 402.725 509.347 405.099 509.347H500.16V509.348Z" fill="#EFF1FA"/>
<path d="M499.025 427.041V434.91H403.964C401.589 434.91 399.666 433.149 399.666 430.975C399.666 428.801 401.589 427.04 403.964 427.04H499.025V427.041Z" fill="#EFF1FA"/>
<path d="M525.394 400.353V408.221H430.333C427.959 408.221 426.035 406.46 426.035 404.286C426.035 402.113 427.959 400.351 430.333 400.351H525.394V400.353Z" fill="#EFF1FA"/>
<path d="M529.111 451.893V447.277C529.111 445.85 527.847 444.694 526.289 444.694H426.036C420.135 444.694 415.351 449.074 415.351 454.477V462.346C415.351 467.749 420.135 472.129 426.036 472.129H526.289C527.848 472.129 529.111 470.972 529.111 469.546V464.931C529.111 463.504 527.847 462.347 526.289 462.347H430.334C427.96 462.347 426.036 460.586 426.036 458.412C426.036 456.239 427.96 454.477 430.334 454.477H526.289C527.847 454.477 529.111 453.32 529.111 451.893Z" fill="#86E2DC"/>
<path d="M525.394 454.477V462.346H430.333C427.959 462.346 426.035 460.585 426.035 458.411C426.035 456.238 427.959 454.476 430.333 454.476H525.394V454.477Z" fill="#EFF1FA"/>
<path d="M475.647 376.833H492.869C493.719 376.833 494.377 377.512 494.277 378.284L492.819 389.426C492.734 390.079 492.13 390.57 491.412 390.57H477.104C476.387 390.57 475.782 390.079 475.697 389.426L474.239 378.284C474.139 377.513 474.797 376.833 475.647 376.833Z" fill="#D2ECFF"/>
<path d="M490.171 372.287V367.22L486.859 372.978V363.625L484.258 369.515L481.656 363.625V372.978L478.346 367.22V372.287L473.521 365.185L475.647 376.833H484.258H492.869L494.995 365.185L490.171 372.287Z" fill="#9ED6FE"/>
<path d="M308.206 52.916H22.7812C18.91 52.916 15.7721 50.9022 15.7721 48.4177V4.49826C15.7721 2.01378 18.91 0 22.7812 0H308.208C312.079 0 315.217 2.01378 315.217 4.49826V48.4177C315.216 50.9022 312.078 52.916 308.206 52.916Z" fill="#62ADD7"/>
<path d="M216.342 29.695H48.5995C46.6107 29.695 44.9976 28.6607 44.9976 27.3834V25.5336C44.9976 24.2573 46.6107 23.2219 48.5995 23.2219H216.342C218.331 23.2219 219.944 24.2564 219.944 25.5336V27.3834C219.944 28.6598 218.333 29.695 216.342 29.695Z" fill="#D2ECFF"/>
<path d="M399.046 52.916H346.407C343.429 52.916 341.016 50.9022 341.016 48.4177V4.49826C341.016 2.01378 343.429 0 346.407 0H399.046C402.024 0 404.438 2.01378 404.438 4.49826V48.4177C404.438 50.9022 402.023 52.916 399.046 52.916Z" fill="#62ADD7"/>
<path d="M388.784 41.0547C388.27 41.0547 387.757 40.8906 387.365 40.5635L380.687 34.9919C374.501 39.4264 365.132 39.2038 359.271 34.3111C353.126 29.1844 353.126 20.8403 359.271 15.71C365.418 10.5797 375.419 10.5797 381.566 15.71C387.032 20.2721 387.636 27.3771 383.38 32.5003L390.205 38.1952C390.989 38.8494 390.989 39.9094 390.205 40.5635C389.811 40.8906 389.297 41.0547 388.784 41.0547ZM370.417 17.317C368.055 17.317 365.692 18.0667 363.892 19.5673C360.295 22.5694 360.295 27.4543 363.892 30.4547C365.636 31.9092 367.952 32.7096 370.417 32.7096C372.882 32.7096 375.199 31.9092 376.942 30.4547C377.008 30.3997 377.072 30.3439 377.136 30.2889C377.198 30.2038 377.273 30.1258 377.361 30.0522C377.403 30.0176 377.447 29.9838 377.493 29.9546C380.529 26.933 380.346 22.4072 376.943 19.5664C375.143 18.0667 372.78 17.317 370.417 17.317Z" fill="#D2ECFF"/>
</svg>
