<svg width="200" height="149" viewBox="0 0 200 149" fill="none" xmlns="http://www.w3.org/2000/svg">
<path d="M34.9453 136.4C34.8353 136.4 34.7353 136.36 34.6453 136.28C34.5653 136.2 34.5103 136.11 34.4803 136.01L31.3753 125.36C31.3253 125.18 31.3403 125.025 31.4203 124.895C31.5003 124.755 31.6253 124.685 31.7953 124.685C31.8953 124.685 31.9803 124.71 32.0503 124.76C32.1303 124.8 32.1903 124.89 32.2303 125.03L34.9453 134.42L37.5253 125.42C37.5453 125.34 37.5953 125.275 37.6753 125.225C37.7653 125.165 37.8553 125.135 37.9453 125.135C38.1653 125.135 38.3103 125.235 38.3803 125.435L40.9603 134.42L43.6753 124.985C43.7253 124.785 43.8703 124.685 44.1103 124.685C44.2803 124.685 44.4003 124.75 44.4703 124.88C44.5503 125.01 44.5653 125.17 44.5153 125.36L41.4253 136.01C41.3853 136.14 41.3203 136.24 41.2303 136.31C41.1503 136.37 41.0603 136.4 40.9603 136.4C40.8403 136.4 40.7403 136.365 40.6603 136.295C40.5803 136.215 40.5253 136.12 40.4953 136.01L37.9453 126.995L35.4253 136.01C35.3253 136.27 35.1653 136.4 34.9453 136.4ZM48.4472 136.49C47.6472 136.49 46.9272 136.31 46.2872 135.95C45.6572 135.58 45.1572 135.08 44.7872 134.45C44.4272 133.81 44.2472 133.095 44.2472 132.305C44.2472 131.505 44.4272 130.79 44.7872 130.16C45.1572 129.52 45.6572 129.02 46.2872 128.66C46.9272 128.29 47.6472 128.105 48.4472 128.105C49.2472 128.105 49.9622 128.29 50.5922 128.66C51.2222 129.02 51.7172 129.52 52.0772 130.16C52.4472 130.79 52.6322 131.505 52.6322 132.305V135.95C52.6322 136.08 52.5922 136.19 52.5122 136.28C52.4322 136.36 52.3222 136.4 52.1822 136.4C52.0522 136.4 51.9422 136.36 51.8522 136.28C51.7722 136.19 51.7322 136.08 51.7322 135.95V134.78C51.4022 135.3 50.9522 135.715 50.3822 136.025C49.8122 136.335 49.1672 136.49 48.4472 136.49ZM48.4472 135.65C49.0772 135.65 49.6372 135.505 50.1272 135.215C50.6272 134.915 51.0172 134.515 51.2972 134.015C51.5872 133.505 51.7322 132.935 51.7322 132.305C51.7322 131.665 51.5872 131.095 51.2972 130.595C51.0172 130.085 50.6272 129.685 50.1272 129.395C49.6372 129.095 49.0772 128.945 48.4472 128.945C47.8272 128.945 47.2672 129.095 46.7672 129.395C46.2672 129.685 45.8722 130.085 45.5822 130.595C45.2922 131.095 45.1472 131.665 45.1472 132.305C45.1472 132.935 45.2922 133.505 45.5822 134.015C45.8722 134.515 46.2672 134.915 46.7672 135.215C47.2672 135.505 47.8272 135.65 48.4472 135.65ZM55.6278 136.4C55.4978 136.4 55.3878 136.36 55.2978 136.28C55.2178 136.19 55.1778 136.08 55.1778 135.95V128.645C55.1778 128.505 55.2178 128.395 55.2978 128.315C55.3878 128.235 55.4978 128.195 55.6278 128.195C55.7678 128.195 55.8778 128.235 55.9578 128.315C56.0378 128.395 56.0778 128.505 56.0778 128.645V135.95C56.0778 136.08 56.0378 136.19 55.9578 136.28C55.8778 136.36 55.7678 136.4 55.6278 136.4ZM55.6128 126.47C55.4228 126.47 55.2578 126.405 55.1178 126.275C54.9878 126.135 54.9228 125.965 54.9228 125.765C54.9228 125.535 54.9928 125.365 55.1328 125.255C55.2828 125.135 55.4478 125.075 55.6278 125.075C55.7978 125.075 55.9528 125.135 56.0928 125.255C56.2428 125.365 56.3178 125.535 56.3178 125.765C56.3178 125.965 56.2478 126.135 56.1078 126.275C55.9778 126.405 55.8128 126.47 55.6128 126.47ZM62.4419 136.4C61.8919 136.39 61.4019 136.265 60.9719 136.025C60.5419 135.775 60.2069 135.435 59.9669 135.005C59.7269 134.565 59.6069 134.07 59.6069 133.52V129.305H58.4369C58.3169 129.305 58.2169 129.27 58.1369 129.2C58.0669 129.12 58.0319 129.02 58.0319 128.9C58.0319 128.78 58.0669 128.685 58.1369 128.615C58.2169 128.535 58.3169 128.495 58.4369 128.495H59.6069V126.05C59.6069 125.91 59.6469 125.8 59.7269 125.72C59.8169 125.63 59.9269 125.585 60.0569 125.585C60.1969 125.585 60.3069 125.63 60.3869 125.72C60.4769 125.8 60.5219 125.91 60.5219 126.05V128.495H62.5019C62.6219 128.495 62.7169 128.535 62.7869 128.615C62.8669 128.685 62.9069 128.78 62.9069 128.9C62.9069 129.02 62.8669 129.12 62.7869 129.2C62.7169 129.27 62.6219 129.305 62.5019 129.305H60.5219V133.52C60.5219 134.1 60.7019 134.575 61.0619 134.945C61.4219 135.305 61.8869 135.485 62.4569 135.485H62.7869C62.9269 135.485 63.0369 135.53 63.1169 135.62C63.2069 135.7 63.2519 135.81 63.2519 135.95C63.2519 136.08 63.2069 136.19 63.1169 136.28C63.0369 136.36 62.9269 136.4 62.7869 136.4H62.4419ZM65.8817 136.4C65.7517 136.4 65.6417 136.36 65.5517 136.28C65.4717 136.19 65.4317 136.08 65.4317 135.95V128.645C65.4317 128.505 65.4717 128.395 65.5517 128.315C65.6417 128.235 65.7517 128.195 65.8817 128.195C66.0217 128.195 66.1317 128.235 66.2117 128.315C66.2917 128.395 66.3317 128.505 66.3317 128.645V135.95C66.3317 136.08 66.2917 136.19 66.2117 136.28C66.1317 136.36 66.0217 136.4 65.8817 136.4ZM65.8667 126.47C65.6767 126.47 65.5117 126.405 65.3717 126.275C65.2417 126.135 65.1767 125.965 65.1767 125.765C65.1767 125.535 65.2467 125.365 65.3867 125.255C65.5367 125.135 65.7017 125.075 65.8817 125.075C66.0517 125.075 66.2067 125.135 66.3467 125.255C66.4967 125.365 66.5717 125.535 66.5717 125.765C66.5717 125.965 66.5017 126.135 66.3617 126.275C66.2317 126.405 66.0667 126.47 65.8667 126.47ZM69.7858 136.4C69.6558 136.4 69.5458 136.36 69.4558 136.28C69.3758 136.19 69.3358 136.08 69.3358 135.95V128.645C69.3358 128.505 69.3758 128.395 69.4558 128.315C69.5458 128.235 69.6558 128.195 69.7858 128.195C69.9258 128.195 70.0358 128.235 70.1158 128.315C70.1958 128.395 70.2358 128.505 70.2358 128.645V129.425C70.5658 129.015 70.9758 128.69 71.4658 128.45C71.9658 128.21 72.5058 128.09 73.0858 128.09C73.8058 128.09 74.4508 128.24 75.0208 128.54C75.6008 128.83 76.0558 129.26 76.3858 129.83C76.7158 130.39 76.8808 131.085 76.8808 131.915V135.95C76.8808 136.08 76.8358 136.19 76.7458 136.28C76.6658 136.36 76.5608 136.4 76.4308 136.4C76.3008 136.4 76.1908 136.36 76.1008 136.28C76.0208 136.19 75.9808 136.08 75.9808 135.95V131.915C75.9808 131.255 75.8508 130.71 75.5908 130.28C75.3408 129.85 74.9958 129.53 74.5558 129.32C74.1258 129.1 73.6358 128.99 73.0858 128.99C72.5458 128.99 72.0608 129.095 71.6308 129.305C71.2008 129.505 70.8608 129.785 70.6108 130.145C70.3608 130.505 70.2358 130.91 70.2358 131.36V135.95C70.2358 136.08 70.1958 136.19 70.1158 136.28C70.0358 136.36 69.9258 136.4 69.7858 136.4ZM83.1786 136.49C82.3586 136.49 81.6336 136.31 81.0036 135.95C80.3736 135.59 79.8786 135.095 79.5186 134.465C79.1586 133.835 78.9786 133.115 78.9786 132.305C78.9786 131.485 79.1636 130.76 79.5336 130.13C79.9036 129.5 80.4036 129.005 81.0336 128.645C81.6736 128.285 82.3886 128.105 83.1786 128.105C83.9986 128.105 84.7186 128.285 85.3386 128.645C85.9686 129.005 86.4636 129.5 86.8236 130.13C87.1836 130.76 87.3636 131.485 87.3636 132.305V135.245C87.3636 136.055 87.1836 136.785 86.8236 137.435C86.4636 138.085 85.9736 138.595 85.3536 138.965C84.7336 139.345 84.0286 139.535 83.2386 139.535C82.4086 139.535 81.6986 139.38 81.1086 139.07C80.5286 138.76 80.0486 138.365 79.6686 137.885C79.5886 137.785 79.5486 137.68 79.5486 137.57C79.5486 137.46 79.5986 137.37 79.6986 137.3C79.7986 137.22 79.9136 137.19 80.0436 137.21C80.1836 137.23 80.2886 137.295 80.3586 137.405C80.6686 137.775 81.0636 138.08 81.5436 138.32C82.0236 138.57 82.5886 138.695 83.2386 138.695C83.8586 138.695 84.4086 138.545 84.8886 138.245C85.3786 137.945 85.7636 137.53 86.0436 137C86.3236 136.48 86.4636 135.895 86.4636 135.245V134.585C86.1736 135.165 85.7436 135.63 85.1736 135.98C84.6036 136.32 83.9386 136.49 83.1786 136.49ZM83.1786 135.65C83.8186 135.65 84.3836 135.51 84.8736 135.23C85.3736 134.94 85.7636 134.545 86.0436 134.045C86.3236 133.535 86.4636 132.955 86.4636 132.305C86.4636 131.645 86.3236 131.065 86.0436 130.565C85.7636 130.055 85.3736 129.66 84.8736 129.38C84.3836 129.09 83.8186 128.945 83.1786 128.945C82.5386 128.945 81.9686 129.09 81.4686 129.38C80.9686 129.66 80.5786 130.055 80.2986 130.565C80.0186 131.065 79.8786 131.645 79.8786 132.305C79.8786 132.955 80.0186 133.535 80.2986 134.045C80.5786 134.545 80.9686 134.94 81.4686 135.23C81.9686 135.51 82.5386 135.65 83.1786 135.65ZM97.3638 136.4C96.8138 136.39 96.3238 136.265 95.8938 136.025C95.4638 135.775 95.1288 135.435 94.8888 135.005C94.6488 134.565 94.5288 134.07 94.5288 133.52V129.305H93.3588C93.2388 129.305 93.1388 129.27 93.0588 129.2C92.9888 129.12 92.9538 129.02 92.9538 128.9C92.9538 128.78 92.9888 128.685 93.0588 128.615C93.1388 128.535 93.2388 128.495 93.3588 128.495H94.5288V126.05C94.5288 125.91 94.5688 125.8 94.6488 125.72C94.7388 125.63 94.8488 125.585 94.9788 125.585C95.1188 125.585 95.2288 125.63 95.3088 125.72C95.3988 125.8 95.4438 125.91 95.4438 126.05V128.495H97.4238C97.5438 128.495 97.6388 128.535 97.7088 128.615C97.7888 128.685 97.8288 128.78 97.8288 128.9C97.8288 129.02 97.7888 129.12 97.7088 129.2C97.6388 129.27 97.5438 129.305 97.4238 129.305H95.4438V133.52C95.4438 134.1 95.6238 134.575 95.9838 134.945C96.3438 135.305 96.8088 135.485 97.3788 135.485H97.7088C97.8488 135.485 97.9588 135.53 98.0388 135.62C98.1288 135.7 98.1738 135.81 98.1738 135.95C98.1738 136.08 98.1288 136.19 98.0388 136.28C97.9588 136.36 97.8488 136.4 97.7088 136.4H97.3638ZM103.804 136.49C103.004 136.49 102.284 136.31 101.644 135.95C101.014 135.58 100.514 135.08 100.144 134.45C99.7836 133.81 99.6036 133.095 99.6036 132.305C99.6036 131.505 99.7836 130.79 100.144 130.16C100.514 129.52 101.014 129.02 101.644 128.66C102.284 128.29 103.004 128.105 103.804 128.105C104.604 128.105 105.319 128.29 105.949 128.66C106.579 129.02 107.074 129.52 107.434 130.16C107.804 130.79 107.989 131.505 107.989 132.305C107.989 133.095 107.804 133.81 107.434 134.45C107.074 135.08 106.579 135.58 105.949 135.95C105.319 136.31 104.604 136.49 103.804 136.49ZM103.804 135.65C104.434 135.65 104.994 135.505 105.484 135.215C105.984 134.915 106.374 134.515 106.654 134.015C106.944 133.505 107.089 132.935 107.089 132.305C107.089 131.665 106.944 131.095 106.654 130.595C106.374 130.085 105.984 129.685 105.484 129.395C104.994 129.095 104.434 128.945 103.804 128.945C103.184 128.945 102.624 129.095 102.124 129.395C101.624 129.685 101.229 130.085 100.939 130.595C100.649 131.095 100.504 131.665 100.504 132.305C100.504 132.935 100.649 133.505 100.939 134.015C101.229 134.515 101.624 134.915 102.124 135.215C102.624 135.505 103.184 135.65 103.804 135.65ZM117.419 136.49C116.899 136.49 116.354 136.395 115.784 136.205C115.214 136.015 114.739 135.695 114.359 135.245C114.279 135.145 114.244 135.04 114.254 134.93C114.274 134.81 114.339 134.71 114.449 134.63C114.549 134.56 114.654 134.535 114.764 134.555C114.884 134.575 114.979 134.63 115.049 134.72C115.339 135.06 115.689 135.3 116.099 135.44C116.519 135.57 116.974 135.635 117.464 135.635C118.304 135.635 118.899 135.485 119.249 135.185C119.599 134.885 119.774 134.535 119.774 134.135C119.774 133.345 119.009 132.84 117.479 132.62C116.479 132.48 115.739 132.21 115.259 131.81C114.779 131.41 114.539 130.945 114.539 130.415C114.539 129.665 114.809 129.095 115.349 128.705C115.899 128.305 116.594 128.105 117.434 128.105C118.114 128.105 118.689 128.23 119.159 128.48C119.629 128.72 120.009 129.045 120.299 129.455C120.379 129.555 120.404 129.665 120.374 129.785C120.354 129.895 120.279 129.985 120.149 130.055C120.049 130.105 119.944 130.12 119.834 130.1C119.724 130.08 119.629 130.02 119.549 129.92C119.039 129.27 118.324 128.945 117.404 128.945C116.774 128.945 116.284 129.08 115.934 129.35C115.584 129.62 115.409 129.945 115.409 130.325C115.409 130.715 115.579 131.035 115.919 131.285C116.259 131.525 116.839 131.705 117.659 131.825C118.409 131.925 118.999 132.095 119.429 132.335C119.869 132.575 120.179 132.855 120.359 133.175C120.549 133.485 120.644 133.82 120.644 134.18C120.644 134.65 120.494 135.06 120.194 135.41C119.894 135.76 119.499 136.03 119.009 136.22C118.519 136.4 117.989 136.49 117.419 136.49ZM126.301 136.475C125.511 136.475 124.806 136.3 124.186 135.95C123.576 135.59 123.096 135.095 122.746 134.465C122.396 133.835 122.221 133.115 122.221 132.305C122.221 131.485 122.386 130.765 122.716 130.145C123.046 129.515 123.501 129.02 124.081 128.66C124.661 128.3 125.326 128.12 126.076 128.12C126.816 128.12 127.471 128.295 128.041 128.645C128.611 128.985 129.056 129.46 129.376 130.07C129.696 130.67 129.856 131.365 129.856 132.155C129.856 132.285 129.816 132.39 129.736 132.47C129.656 132.54 129.551 132.575 129.421 132.575H123.136C123.166 133.175 123.321 133.705 123.601 134.165C123.881 134.625 124.251 134.985 124.711 135.245C125.181 135.505 125.711 135.635 126.301 135.635C126.691 135.635 127.081 135.57 127.471 135.44C127.871 135.3 128.186 135.12 128.416 134.9C128.496 134.82 128.591 134.78 128.701 134.78C128.821 134.77 128.921 134.8 129.001 134.87C129.111 134.96 129.166 135.06 129.166 135.17C129.176 135.28 129.131 135.38 129.031 135.47C128.711 135.76 128.291 136 127.771 136.19C127.261 136.38 126.771 136.475 126.301 136.475ZM126.076 128.96C125.556 128.96 125.086 129.08 124.666 129.32C124.246 129.56 123.901 129.895 123.631 130.325C123.371 130.745 123.211 131.235 123.151 131.795H128.986C128.916 130.955 128.616 130.275 128.086 129.755C127.556 129.225 126.886 128.96 126.076 128.96ZM135.268 136.49C134.468 136.49 133.748 136.31 133.108 135.95C132.478 135.58 131.978 135.08 131.608 134.45C131.248 133.81 131.068 133.095 131.068 132.305C131.068 131.505 131.248 130.79 131.608 130.16C131.978 129.52 132.478 129.02 133.108 128.66C133.748 128.29 134.468 128.105 135.268 128.105C136.068 128.105 136.783 128.29 137.413 128.66C138.043 129.02 138.538 129.52 138.898 130.16C139.268 130.79 139.453 131.505 139.453 132.305V135.95C139.453 136.08 139.413 136.19 139.333 136.28C139.253 136.36 139.143 136.4 139.003 136.4C138.873 136.4 138.763 136.36 138.673 136.28C138.593 136.19 138.553 136.08 138.553 135.95V134.78C138.223 135.3 137.773 135.715 137.203 136.025C136.633 136.335 135.988 136.49 135.268 136.49ZM135.268 135.65C135.898 135.65 136.458 135.505 136.948 135.215C137.448 134.915 137.838 134.515 138.118 134.015C138.408 133.505 138.553 132.935 138.553 132.305C138.553 131.665 138.408 131.095 138.118 130.595C137.838 130.085 137.448 129.685 136.948 129.395C136.458 129.095 135.898 128.945 135.268 128.945C134.648 128.945 134.088 129.095 133.588 129.395C133.088 129.685 132.693 130.085 132.403 130.595C132.113 131.095 131.968 131.665 131.968 132.305C131.968 132.935 132.113 133.505 132.403 134.015C132.693 134.515 133.088 134.915 133.588 135.215C134.088 135.505 134.648 135.65 135.268 135.65ZM142.149 136.4C142.019 136.4 141.909 136.36 141.819 136.28C141.739 136.19 141.699 136.08 141.699 135.95V128.645C141.699 128.505 141.739 128.395 141.819 128.315C141.909 128.235 142.019 128.195 142.149 128.195C142.289 128.195 142.399 128.235 142.479 128.315C142.559 128.395 142.599 128.505 142.599 128.645V129.575C142.889 129.115 143.254 128.755 143.694 128.495C144.144 128.235 144.639 128.105 145.179 128.105C145.559 128.105 145.854 128.15 146.064 128.24C146.274 128.33 146.354 128.49 146.304 128.72C146.274 128.87 146.204 128.96 146.094 128.99C145.984 129.02 145.849 129.025 145.689 129.005C145.539 128.975 145.369 128.96 145.179 128.96C144.679 128.96 144.234 129.065 143.844 129.275C143.454 129.485 143.149 129.775 142.929 130.145C142.709 130.505 142.599 130.92 142.599 131.39V135.95C142.599 136.08 142.559 136.19 142.479 136.28C142.399 136.36 142.289 136.4 142.149 136.4ZM151.306 136.49C150.526 136.49 149.826 136.305 149.206 135.935C148.596 135.565 148.111 135.065 147.751 134.435C147.401 133.805 147.226 133.095 147.226 132.305C147.226 131.505 147.391 130.79 147.721 130.16C148.051 129.53 148.506 129.035 149.086 128.675C149.666 128.305 150.331 128.12 151.081 128.12C151.721 128.12 152.306 128.245 152.836 128.495C153.366 128.735 153.826 129.105 154.216 129.605C154.296 129.705 154.326 129.81 154.306 129.92C154.286 130.03 154.221 130.12 154.111 130.19C154.021 130.26 153.921 130.29 153.811 130.28C153.701 130.26 153.606 130.2 153.526 130.1C152.886 129.34 152.071 128.96 151.081 128.96C150.491 128.96 149.971 129.105 149.521 129.395C149.081 129.685 148.736 130.08 148.486 130.58C148.246 131.08 148.126 131.655 148.126 132.305C148.126 132.935 148.261 133.505 148.531 134.015C148.801 134.515 149.171 134.915 149.641 135.215C150.121 135.505 150.676 135.65 151.306 135.65C151.716 135.65 152.101 135.59 152.461 135.47C152.831 135.35 153.151 135.165 153.421 134.915C153.511 134.835 153.611 134.79 153.721 134.78C153.831 134.77 153.926 134.805 154.006 134.885C154.106 134.975 154.156 135.08 154.156 135.2C154.166 135.31 154.126 135.405 154.036 135.485C153.306 136.155 152.396 136.49 151.306 136.49ZM157.017 136.4C156.887 136.4 156.777 136.36 156.687 136.28C156.607 136.19 156.567 136.08 156.567 135.95V128.645C156.567 128.505 156.607 128.395 156.687 128.315C156.777 128.235 156.887 128.195 157.017 128.195C157.157 128.195 157.267 128.235 157.347 128.315C157.427 128.395 157.467 128.505 157.467 128.645V129.425C157.797 129.015 158.207 128.69 158.697 128.45C159.197 128.21 159.737 128.09 160.317 128.09C161.037 128.09 161.682 128.24 162.252 128.54C162.832 128.83 163.287 129.26 163.617 129.83C163.947 130.39 164.112 131.085 164.112 131.915V135.95C164.112 136.08 164.067 136.19 163.977 136.28C163.897 136.36 163.792 136.4 163.662 136.4C163.532 136.4 163.422 136.36 163.332 136.28C163.252 136.19 163.212 136.08 163.212 135.95V131.915C163.212 131.255 163.082 130.71 162.822 130.28C162.572 129.85 162.227 129.53 161.787 129.32C161.357 129.1 160.867 128.99 160.317 128.99C159.777 128.99 159.292 129.095 158.862 129.305C158.432 129.505 158.092 129.785 157.842 130.145C157.592 130.505 157.467 130.91 157.467 131.36V135.95C157.467 136.08 157.427 136.19 157.347 136.28C157.267 136.36 157.157 136.4 157.017 136.4ZM157.017 132.8C156.887 132.8 156.777 132.76 156.687 132.68C156.607 132.59 156.567 132.48 156.567 132.35V125.135C156.567 124.995 156.607 124.885 156.687 124.805C156.777 124.725 156.887 124.685 157.017 124.685C157.157 124.685 157.267 124.725 157.347 124.805C157.427 124.885 157.467 124.995 157.467 125.135V132.35C157.467 132.48 157.427 132.59 157.347 132.68C157.267 132.76 157.157 132.8 157.017 132.8ZM166.825 133.82C166.705 133.82 166.595 133.78 166.495 133.7C166.405 133.61 166.36 133.5 166.36 133.37V125.135C166.36 124.995 166.405 124.885 166.495 124.805C166.585 124.715 166.695 124.67 166.825 124.67C166.955 124.67 167.06 124.715 167.14 124.805C167.23 124.885 167.275 124.995 167.275 125.135V133.37C167.275 133.5 167.225 133.61 167.125 133.7C167.035 133.78 166.935 133.82 166.825 133.82ZM166.825 136.4C166.605 136.4 166.42 136.33 166.27 136.19C166.13 136.04 166.06 135.855 166.06 135.635C166.06 135.415 166.135 135.235 166.285 135.095C166.435 134.955 166.615 134.885 166.825 134.885C167.035 134.885 167.21 134.96 167.35 135.11C167.5 135.25 167.575 135.425 167.575 135.635C167.575 135.845 167.5 136.025 167.35 136.175C167.21 136.325 167.035 136.4 166.825 136.4Z" fill="#403E3E"/>
<path d="M70.4871 36.4528H37.7822V60.3919H70.4871V36.4528Z" fill="#F8D7BC"/>
<path d="M34.4595 34.5305V36.4528H70.3751V60.3919H34.4595V62.1693H172.559V34.5305H34.4595Z" fill="#4EA0BA"/>
<path d="M6.04822 64.672H105.805C116.446 64.672 125.182 73.1233 125.182 83.4969V84.8026C125.182 95.14 116.595 103.628 105.955 103.628H6.08554V64.672H6.04822Z" fill="#F8ECE2"/>
<path d="M180.063 62.1693H1.26933C0.522644 62.1693 0.0373252 62.6409 0.0373252 63.3663C0.0373252 64.0917 0.522644 64.5632 1.26933 64.5632H105.171C116.184 64.5632 125.145 73.2683 125.145 83.9684C125.145 94.6685 116.334 103.374 105.283 103.482C105.283 103.482 105.283 103.482 105.171 103.482H1.232C0.485319 103.482 0 103.954 0 104.679C0 105.405 0.485319 105.876 1.232 105.876H180.026C191.04 105.876 200 97.1712 200 86.4712V81.7196C200.037 70.9832 191.077 62.2781 180.063 62.1693C180.063 62.2781 180.063 62.2781 180.063 62.1693Z" fill="#FFA756"/>
<path d="M108.979 72.9782H6.04822V71.6724H108.979C109.352 71.6724 109.726 72.0351 109.726 72.3978C109.688 72.7605 109.352 72.9782 108.979 72.9782Z" fill="#EBD0BE"/>
<path d="M61.4148 54.6611H37.7449V53.3553H61.5268C61.9002 53.3553 62.2735 53.718 62.2735 54.0807C62.1615 54.4072 61.7882 54.6611 61.4148 54.6611Z" fill="#E0C1A6"/>
<path d="M55.7773 47.1529H37.7449V45.8472H55.8893C56.2627 45.8472 56.636 46.1011 56.636 46.5726C56.524 46.7902 56.2627 47.1529 55.7773 47.1529Z" fill="#E0C1A6"/>
<path d="M116.446 88.1034H6.04822V86.7975H116.446C116.819 86.7975 117.192 87.1603 117.192 87.523C117.192 87.8857 116.819 88.1034 116.446 88.1034Z" fill="#EBD0BE"/>
<path d="M102.856 96.5547H6.04822V95.14H102.856C103.229 95.14 103.603 95.394 103.603 95.7204C103.565 96.2282 103.192 96.4458 102.856 96.5547Z" fill="#EBD0BE"/>
<path d="M113.123 80.7403H6.01086V79.4344H113.123C113.496 79.4344 113.87 79.7972 113.87 80.1599C113.758 80.3775 113.496 80.7403 113.123 80.7403Z" fill="#EBD0BE"/>
<path d="M99.0105 32.3904H58.9508V17.9907H99.0105C101.325 17.9907 103.192 19.7679 103.192 22.053V28.4731C103.192 30.6131 101.363 32.3904 99.0105 32.3904Z" fill="#F8D0B3"/>
<path d="M177.114 15.8507H55.5534C54.9561 15.8507 54.4707 16.3222 54.4707 16.9025C54.4707 17.4829 54.9561 17.9544 55.5534 17.9544H99.0479C101.363 17.9544 103.229 19.7318 103.229 22.0169V28.328C103.229 30.5769 101.4 32.3904 99.0479 32.3904H55.7774C55.1801 32.4992 54.6947 32.9708 54.8067 33.5874C54.8067 34.0589 55.2921 34.5305 55.7774 34.5305H177.114C179.429 34.5305 181.295 32.7531 181.295 30.468V19.768C181.295 17.8456 179.317 15.8507 177.114 15.8507Z" fill="#FF827A"/>
<path d="M52.4921 0.943115H117.827C121.635 0.943115 124.809 3.91736 124.809 7.72586V8.1974C124.809 11.8971 121.747 14.9801 117.827 14.9801H52.4921V0.943115Z" fill="#F8E7D8"/>
<path d="M164.122 0H49.6546C49.3932 0 49.1692 0.253918 49.1692 0.471546C49.1692 0.725446 49.4305 0.943093 49.6546 0.943093H117.566C121.486 0.943093 124.809 4.02613 124.809 7.97971C124.809 11.7882 121.635 15.0164 117.566 15.0164H49.6546C49.3932 15.0164 49.1692 15.2703 49.1692 15.488C49.1692 15.7419 49.4305 15.9594 49.6546 15.9594H164.122C168.042 15.9594 171.364 12.8764 171.364 8.92281V7.0004C171.364 3.08309 168.042 0 164.122 0Z" fill="#2B98BA"/>
<path d="M110.323 4.89663H52.4921V4.31635H110.323C110.584 4.31635 110.696 4.42516 110.696 4.67906C110.696 4.7516 110.584 4.89663 110.323 4.89663Z" fill="#DEBCA7"/>
<path d="M104.797 11.7882H52.4547V11.2079H104.797C105.059 11.2079 105.171 11.3168 105.171 11.5707C105.171 11.6795 105.059 11.7882 104.797 11.7882Z" fill="#DEBCA7"/>
<path d="M116.819 8.34243H52.4921V7.617H116.819C116.931 7.617 117.192 7.72582 117.192 7.97972C117.192 8.08853 117.08 8.34243 116.819 8.34243Z" fill="#DEBCA7"/>
<path d="M91.0957 86.7975H75.042C75.042 86.7975 72.4659 87.6318 70.2632 91.6942C67.5751 96.6996 68.4338 101.451 66.7164 105.151C65.6337 107.654 63.767 109.685 61.4523 111.099C63.2817 111.353 65.2604 111.462 67.2018 111.208C68.8071 110.846 70.2632 110.265 71.4952 109.286C71.8686 110.12 71.9805 110.954 72.0925 111.789C72.2046 112.623 72.2046 113.566 72.0925 114.4C72.0925 114.4 77.9914 113.094 80.3061 109.757C83.6289 105.223 80.7914 99.6376 85.1969 92.601C86.8023 90.4972 88.7437 88.466 91.0957 86.7975Z" fill="#BFA990"/>
</svg>
